<?xml version="1.0" encoding="UTF-8" standalone="no"?>
<!-- Created with Inkscape (http://www.inkscape.org/) -->

<svg
   xmlns:dc="http://purl.org/dc/elements/1.1/"
   xmlns:cc="http://creativecommons.org/ns#"
   xmlns:rdf="http://www.w3.org/1999/02/22-rdf-syntax-ns#"
   xmlns:svg="http://www.w3.org/2000/svg"
   xmlns="http://www.w3.org/2000/svg"
   xmlns:xlink="http://www.w3.org/1999/xlink"
   xmlns:sodipodi="http://sodipodi.sourceforge.net/DTD/sodipodi-0.dtd"
   xmlns:inkscape="http://www.inkscape.org/namespaces/inkscape"
   width="39.536217mm"
   height="39.536221mm"
   viewBox="0 0 140.08896 140.08897"
   id="svg4672"
   version="1.1"
   inkscape:version="0.92.3 (unknown)"
   sodipodi:docname="compare_two_sequences.svg">
  <defs
     id="defs4674" />
  <sodipodi:namedview
     id="base"
     pagecolor="#ffffff"
     bordercolor="#666666"
     borderopacity="1.0"
     inkscape:pageopacity="0.0"
     inkscape:pageshadow="2"
     inkscape:zoom="2.8"
     inkscape:cx="-0.30891378"
     inkscape:cy="129.21694"
     inkscape:document-units="px"
     inkscape:current-layer="layer1"
     showgrid="false"
     fit-margin-top="0.5"
     fit-margin-left="0.5"
     fit-margin-bottom="0.5"
     fit-margin-right="0.5"
     inkscape:window-width="2226"
     inkscape:window-height="1388"
     inkscape:window-x="457"
     inkscape:window-y="393"
     inkscape:window-maximized="0" />
  <metadata
     id="metadata4677">
    <rdf:RDF>
      <cc:Work
         rdf:about="">
        <dc:format>image/svg+xml</dc:format>
        <dc:type
           rdf:resource="http://purl.org/dc/dcmitype/StillImage" />
        <dc:title></dc:title>
      </cc:Work>
    </rdf:RDF>
  </metadata>
  <g
     inkscape:label="Layer 1"
     inkscape:groupmode="layer"
     id="layer1"
     transform="translate(-14.452634,-12.762348)">
    <use
       id="use79769-8-2"
       xlink:href="#home"
       transform="matrix(0.12554633,0,0,0.12554633,-86.752433,154.44143)"
       x="0"
       y="0"
       width="100%"
       height="100%" />
    <path
       style="fill:#000000;fill-opacity:1;stroke:#000000;stroke-width:1.19278181;stroke-miterlimit:4;stroke-dasharray:none;stroke-opacity:1"
       d="m 144.04769,53.10661 c 0.23635,2.186813 -0.27264,5.132322 -1.37448,7.952856 -1.17911,3.018456 -2.43737,5.378448 -6.01492,11.281853 l -2.60412,4.297026 2.82238,1.688567 c 3.92079,2.345769 5.96455,3.713528 7.87215,5.268336 2.2204,1.809805 3.87578,3.762508 4.89034,5.768804 0.35998,0.71177 0.45198,0.983025 0.75234,2.217328 0.26434,1.086051 0.34577,1.565631 0.35772,2.105685 0.0863,3.900089 -1.51187,7.328255 -4.58247,9.828955 -2.12567,1.73114 -5.07922,3.1816 -9.10233,4.47007 -1.48635,0.47603 -4.76462,1.39666 -6.31374,1.77308 -0.70909,0.1723 -1.3273,0.3526 -1.37375,0.40064 -0.0639,0.0661 0.0599,0.76799 0.50714,2.8749 1.50466,7.08884 1.88982,10.70231 1.53819,14.42891 -0.11446,1.21238 -0.57361,3.16686 -0.97834,4.16492 -1.79081,4.41488 -5.76457,7.04637 -10.09692,6.68634 -3.73658,-0.31054 -7.71863,-2.36782 -15.29796,-7.9034 -0.40976,-0.29925 -0.78661,-0.5341 -0.83748,-0.52178 -0.0509,0.0118 -0.69122,1.16235 -1.42307,2.55578 -2.28536,4.35162 -2.925931,5.50087 -4.517626,8.10546 -2.06731,3.38265 -3.468298,5.23292 -5.179451,6.84045 -1.783403,1.6753 -3.292374,2.55018 -5.152381,2.98743 -2.258714,0.53092 -4.43244,0.16495 -6.342454,-1.0676 -2.856286,-1.84338 -4.803052,-5.73986 -6.132838,-12.27502 -0.478019,-2.34936 -0.606343,-3.12235 -1.374014,-8.27826 -0.456078,-3.06314 -0.601727,-4.23067 -0.555289,-4.4515 0.116659,-0.55467 0.27655,-0.66304 1.730399,-1.17288 2.708405,-0.94982 4.858622,-1.59879 7.000633,-2.11289 5.366013,-1.28791 8.422757,-1.15466 12.371972,0.53928 1.924641,0.82556 4.960943,2.60732 7.653969,4.49157 0.70119,0.49057 1.31758,0.89203 1.36977,0.89213 0.0521,3.2e-4 0.46263,-0.65716 0.91202,-1.46065 2.0531,-3.67064 3.99598,-6.52482 5.79151,-8.50791 1.38133,-1.52554 2.49581,-2.45456 4.2009,-3.50183 2.58417,-1.58728 5.57677,-2.76981 10.56221,-4.17379 1.05916,-0.29829 1.93359,-0.55558 1.94322,-0.57175 0.01,-0.0169 -0.20952,-1.14718 -0.48704,-2.51331 -0.83195,-4.09549 -1.23371,-6.83196 -1.37231,-9.346768 -0.20793,-3.772977 0.17123,-6.396264 1.41213,-9.7701 0.88702,-2.411681 1.80839,-4.309868 3.76768,-7.763031 0.57917,-1.020795 1.04618,-1.884755 1.03771,-1.919865 -0.009,-0.03518 -0.86138,-0.616049 -1.89534,-1.290907 -2.16261,-1.411487 -3.04839,-2.042702 -4.34966,-3.099465 -2.88805,-2.345349 -4.64291,-4.568451 -5.86593,-7.431064 -1.1607,-2.716668 -2.22628,-7.126767 -3.05512,-12.643839 -0.10835,-0.721768 -0.23396,-1.334787 -0.27896,-1.362289 0.0386,-2.09281 -0.83349,-1.720497 1.80153,-2.723418 0.16309,-0.03938 0.94682,-0.300946 1.7416,-0.581342 4.97021,-1.753452 7.26681,-2.455864 9.89477,-3.02635 2.71896,-0.590263 4.29239,-0.735064 6.205,-0.570974 3.63941,0.312123 6.36273,2.297514 7.71603,5.624979 0.31293,0.769636 0.61516,1.96908 0.70465,2.796617 z m -2.34343,-1.959032 c -0.0362,-0.05235 -0.10891,-0.08484 -0.16193,-0.07204 -0.12388,0.02996 -19.16203,15.771312 -19.26295,15.927356 -0.083,0.128256 0.23775,0.627427 0.91749,1.427764 0.28487,0.335401 0.37005,0.390894 0.50576,0.32946 0.0898,-0.04073 4.30157,-3.000717 9.35973,-6.577927 7.75652,-5.485428 9.20285,-6.536049 9.23631,-6.709347 0.0661,-0.342654 0.0616,-1.50337 -0.009,-2.119806 -0.0633,-0.555775 -0.44832,-2.005571 -0.58595,-2.205411 z m -0.66386,-1.247279 c -0.22428,-0.347571 -0.5763,-0.814678 -0.78232,-1.037964 -0.47307,-0.512788 -1.31645,-1.161927 -1.49859,-1.153495 -0.11362,0.005 -17.01195,16.147042 -17.61703,16.828279 -0.16696,0.18794 -0.17161,0.234126 -0.0521,0.516658 0.21555,0.510011 0.81376,1.602324 0.90979,1.661015 0.0544,0.03332 3.84611,-3.053449 9.70474,-7.90051 5.28851,-4.375326 9.65101,-8.00064 9.6945,-8.056167 0.10654,-0.136167 0.10603,-0.137345 -0.35883,-0.857816 z m 1.00604,6.28563 c -0.26419,0.127415 -18.09359,12.763141 -18.15806,12.868556 -0.0642,0.104861 0.2349,0.442466 1.07817,1.217185 0.28436,0.261259 0.56528,0.463388 0.62418,0.449182 0.0939,-0.02255 14.52108,-8.618222 14.79526,-8.814897 0.13382,-0.09594 0.81239,-1.774829 1.16971,-2.893061 0.25945,-0.812321 0.70599,-2.696218 0.67305,-2.839522 -0.009,-0.03753 -0.0907,-0.0313 -0.18226,0.01347 z m -5.41703,-9.34322 c -0.92037,-0.20898 -2.24298,-0.329224 -2.66657,-0.24271 -0.14139,0.02878 -2.18211,2.245589 -7.01341,7.61828 -3.74764,4.167608 -6.8528,7.63804 -6.90032,7.712065 -0.0739,0.114959 -0.0377,0.276793 0.24874,1.110641 0.41277,1.202424 0.48206,1.337329 0.64274,1.251152 0.12439,-0.06666 17.23107,-16.483553 17.39172,-16.690345 0.13938,-0.179289 -0.59935,-0.50858 -1.7029,-0.759083 z m 11.82957,44.531022 c -0.0996,-0.0611 -20.93844,-1.016555 -21.01829,-0.963855 -0.1217,0.08045 -0.42382,1.893591 -0.36424,2.186325 l 0.0528,0.259894 10.69052,1.456781 c 5.87979,0.801246 10.75776,1.463582 10.8395,1.474 0.1005,0.01178 0.17213,-0.0478 0.22023,-0.182907 0.10032,-0.282484 0.1424,-1.596651 0.0725,-2.26885 -0.0594,-0.571159 -0.39358,-1.899971 -0.49321,-1.960884 z m -0.83788,-1.812548 c -0.5398,-0.900653 -1.9964,-2.650757 -2.23974,-2.691051 -0.31463,-0.05217 -16.78077,0.650587 -16.9783,0.724528 -0.1498,0.05604 -0.25894,0.289147 -0.53711,1.147115 -0.36398,1.122878 -0.38647,1.335965 -0.1424,1.347529 9.80584,0.464582 20.35699,0.932665 20.46032,0.907721 0.12034,-0.02912 0.1195,-0.07928 -0.007,-0.391281 -0.0796,-0.196929 -0.32985,-0.666947 -0.55619,-1.044613 z m 0.98603,6.52191 c -5.49022,-0.763863 -21.28629,-2.903076 -21.41192,-2.898532 -0.11613,0.0033 -0.19155,0.06144 -0.21805,0.167979 -0.0442,0.178161 -0.087,2.113259 -0.0499,2.266678 0.033,0.136504 19.88989,4.654792 20.04489,4.561032 0.17135,-0.10351 1.13016,-1.749924 1.34443,-2.308324 0.23683,-0.617177 0.46256,-1.487314 0.42684,-1.645008 -0.0152,-0.07086 -0.0774,-0.135662 -0.13616,-0.14374 z M 139.96538,62.49292 c -0.0914,0.05537 -11.7703,7.025963 -13.98824,8.349068 -0.0695,0.04157 -0.11479,0.124553 -0.10015,0.184607 0.0325,0.134821 1.95661,1.634859 2.06389,1.609039 0.14611,-0.03518 8.96571,-4.404966 9.15554,-4.536133 0.23027,-0.159058 1.72797,-2.82853 2.80976,-5.007903 0.25077,-0.505415 0.273,-0.72781 0.0592,-0.598628 z M 144.276,85.7452 c -0.72483,-0.633452 -1.6007,-1.319705 -2.68499,-2.103833 -0.49512,-0.35804 -0.74772,-0.48707 -0.96231,-0.491681 -0.16006,-0.0033 -2.70673,0.305946 -5.65924,0.687498 l -5.36822,0.693693 -0.16293,0.322608 c -0.26405,0.522702 -1.0067,2.254813 -0.99234,2.314514 0.0204,0.08432 -0.16954,0.09038 8.20897,-0.259593 4.34633,-0.181543 8.00407,-0.333111 8.12831,-0.336865 0.34563,-0.0101 0.25225,-0.162592 -0.50722,-0.826324 z m -7.42147,12.529671 c -5.33077,-1.21737 -9.74322,-2.19033 -9.8054,-2.162019 -0.14053,0.06396 -0.099,1.259145 0.0734,2.109471 l 0.11899,0.587402 7.54127,2.459845 c 4.27074,1.39303 7.62491,2.44247 7.73419,2.41963 0.82554,-0.17175 4.14106,-2.73976 4.046,-3.13386 -0.009,-0.0369 -4.37772,-1.063132 -9.70851,-2.280503 z m -3.73306,-51.658562 c -0.67768,0.01347 -1.64434,0.16919 -3.3239,0.536975 l -1.92489,0.421476 -4.19636,5.408392 c -2.308,2.974593 -4.27301,5.51862 -4.36664,5.653339 l -0.17035,0.244932 0.34602,1.341031 c 0.29612,1.147705 0.36304,1.335729 0.4639,1.304136 0.13751,-0.04292 13.39238,-14.769064 13.37154,-14.855545 -0.009,-0.03198 -0.0974,-0.05656 -0.19928,-0.0547 z m 4.79622,34.631958 -1.78047,-1.083425 -0.94266,0.19028 c -0.51844,0.104691 -1.59215,0.328938 -2.38599,0.49838 l -1.44339,0.308117 -0.36457,0.643753 c -0.66658,1.177278 -1.17222,2.216352 -1.11977,2.301183 0.0511,0.08264 9.21993,-1.026502 10.05129,-1.215906 l 0.379,-0.08651 -0.30651,-0.23628 c -0.16859,-0.129939 -1.10769,-0.723804 -2.08695,-1.319672 z m -1.1577,-12.641903 c -0.0508,0.01178 -8.20886,4.051151 -8.34522,4.131556 -0.0718,0.04242 -0.10839,0.122869 -0.0818,0.178194 0.0273,0.05571 0.57929,0.459247 1.22641,0.896545 0.79159,0.534939 1.23021,0.782244 1.34031,0.755767 0.0901,-0.02155 0.80949,-0.29381 1.59888,-0.604789 l 1.43525,-0.565369 1.44184,-2.338901 c 1.26437,-2.051068 1.50823,-2.483502 1.38349,-2.453424 z m -2.08512,32.927356 c -3.97689,-1.29287 -7.28249,-2.350016 -7.34569,-2.349191 -0.0644,7.91e-4 -0.11462,0.0855 -0.11412,0.192955 9.8e-4,0.313941 0.37645,2.655936 0.44187,2.759076 0.0331,0.0523 0.60434,0.32696 1.26918,0.61011 0.66481,0.28312 2.70083,1.15196 4.52447,1.93074 l 3.31569,1.41598 0.61593,-0.20437 c 1.06057,-0.35184 2.92417,-1.07729 3.69902,-1.43986 0.76174,-0.35644 0.8614,-0.4172 0.83792,-0.51084 -0.007,-0.0297 -3.26733,-1.11171 -7.24426,-2.4046 z m -1.03075,-22.855249 -0.65603,-0.35171 -0.68927,1.191584 c -0.37911,0.655384 -0.66831,1.212388 -0.64266,1.237787 0.0628,0.0621 3.80917,-0.727238 3.90332,-0.822319 0.0799,-0.0808 -0.79791,-0.656142 -1.91536,-1.255358 z m -0.15569,-4.81461 c -0.0534,0.01346 -0.53798,0.204351 -1.07662,0.42316 -0.53865,0.218809 -1.02316,0.409207 -1.07666,0.423143 -0.0535,0.01347 -0.0868,0.06834 -0.0741,0.12085 0.0333,0.138187 1.11309,0.788606 1.25301,0.754875 0.1185,-0.02861 1.11368,-1.573861 1.08636,-1.686985 -0.009,-0.03316 -0.0582,-0.04898 -0.11176,-0.03518 z m -6.41357,-26.081552 c -0.32371,0.07911 -3.375,1.052069 -4.12195,1.314337 -0.3599,0.126404 -0.70423,0.292884 -0.7652,0.370158 -0.0609,0.07726 -0.93576,1.373095 -1.94391,2.879681 l -1.83302,2.739204 0.13694,0.771606 c 0.39539,2.228605 0.444,2.457126 0.52889,2.484949 0.0968,0.03182 8.25935,-10.42057 8.23065,-10.539568 -0.01,-0.04006 -0.11428,-0.04931 -0.23235,-0.02053 z m 4.87723,56.568501 c -2.19091,-0.93424 -4.03896,-1.70586 -4.10687,-1.71472 -0.13146,-0.0178 -0.099,0.22734 0.32921,2.45743 l 0.19096,0.99501 1.45485,0.77941 1.45484,0.7794 0.54837,-0.1323 c 0.84114,-0.20285 4.16814,-1.17002 4.28336,-1.24517 0.0884,-0.0577 0.0837,-0.077 -0.0347,-0.14357 -0.0751,-0.0424 -1.9292,-0.84136 -4.12004,-1.77557 z M 121.48105,49.625407 c -0.55664,0.130612 -3.5807,1.232519 -3.64142,1.326892 -0.0394,0.06144 0.034,0.768458 0.17268,1.66162 0.29411,1.894468 0.30271,1.93153 0.43084,1.866662 0.1163,-0.05891 3.2803,-4.756643 3.26403,-4.846237 -0.007,-0.03249 -0.10772,-0.03669 -0.22615,-0.0084 z m 8.15746,57.472663 c -0.55879,-0.30146 -1.0447,-0.54117 -1.0797,-0.53273 -0.0799,0.0192 0.3058,1.64064 0.39672,1.66718 0.11514,0.0337 1.72923,-0.46117 1.71376,-0.52538 -0.009,-0.0335 -0.47194,-0.30765 -1.03075,-0.60913 z m -3.46598,3.91414 c -0.70623,0.18409 -1.30635,0.37103 -1.3336,0.41536 -0.0273,0.0444 0.71843,0.68479 1.65712,1.42325 1.22828,0.96632 1.71842,1.30867 1.74865,1.22155 0.0231,-0.0666 -0.14476,-0.8577 -0.37303,-1.75804 l -0.41508,-1.63688 z m 0.71561,2.51618 c -0.82631,-0.65647 -1.72433,-1.36887 -1.99554,-1.58307 -0.27127,-0.21422 -0.54037,-0.39396 -0.59804,-0.39929 -0.11075,-0.0101 -1.69811,0.46365 -2.51125,0.74991 -0.37007,0.13028 -0.46884,0.19484 -0.42873,0.28031 0.0949,0.20213 7.86469,7.4756 7.93841,7.43133 0.10822,-0.0649 -0.31082,-2.65804 -0.73123,-4.52539 l -0.17117,-0.76028 z m -1.67421,3.13326 c -2.2994,-2.16642 -4.22105,-3.96389 -4.27038,-3.99438 -0.0554,-0.0344 -0.39041,0.0552 -0.8768,0.23393 -1.25347,0.46088 -1.71208,0.67836 -1.68322,0.7981 0.0252,0.10486 11.06372,12.47066 11.23119,12.58173 0.13903,0.0922 0.15872,-0.0195 0.16977,-0.96648 0.0169,-1.26635 -0.14577,-3.5526 -0.30457,-4.30547 l -0.0862,-0.40864 -4.1807,-3.93891 z m -1.35774,3.64649 c -3.18144,-3.55171 -5.8251,-6.47122 -5.87481,-6.48774 -0.16633,-0.0552 -2.09916,0.93938 -2.15479,1.10895 -0.0406,0.1237 12.53673,16.7456 12.65042,16.71838 0.10773,-0.0257 0.47181,-0.89809 0.72934,-1.74731 0.22604,-0.7454 0.5421,-2.67252 0.48116,-2.93371 -0.0276,-0.11799 -2.43086,-2.86235 -5.83132,-6.65857 z m -1.94047,3.26551 c -3.48092,-4.60872 -6.36531,-8.40277 -6.40976,-8.43124 -0.0924,-0.0591 -0.857,0.3963 -1.50101,0.89414 -0.30332,0.23446 -0.42514,0.37989 -0.40091,0.47837 0.0193,0.0777 2.66727,4.28977 5.88462,9.35985 4.46607,7.03789 5.88264,9.21684 5.98904,9.21234 0.19678,-0.009 1.06917,-0.73223 1.63659,-1.3578 0.59208,-0.65281 1.19273,-1.51754 1.15706,-1.66565 -0.0152,-0.0608 -2.87471,-3.88128 -6.35563,-8.49001 z m -2.69012,2.39782 c -3.20051,-5.0469 -5.85884,-9.20199 -5.90743,-9.23349 -0.0552,-0.0357 -0.20879,0.0421 -0.40891,0.20674 -0.50138,0.41288 -1.36117,1.33828 -1.33589,1.43787 0.0126,0.0495 1.6343,3.14434 3.60383,6.87754 1.96955,3.73321 4.07252,7.72996 4.67317,8.88167 0.76882,1.47408 1.14441,2.12164 1.2687,2.1874 0.63107,0.3337 4.06584,-0.60009 3.9515,-1.07422 -0.0135,-0.0591 -2.64449,-4.2366 -5.84497,-9.28351 z m -3.69995,0.53926 c -2.26339,-4.29309 -4.13891,-7.82009 -4.16782,-7.8378 -0.0945,-0.0579 -0.31199,0.16976 -0.99046,1.03644 -0.54914,0.70148 -0.65921,0.89056 -0.61793,1.06179 0.0276,0.11463 1.39879,3.33849 3.04707,7.16427 2.33087,5.41009 3.03644,6.98312 3.17509,7.07834 0.25188,0.17291 1.68872,0.72113 2.53246,0.96622 0.80017,0.23248 2.01438,0.42958 2.10186,0.34125 0.0316,-0.032 -0.1726,-0.49614 -0.45377,-1.03152 -0.28125,-0.53534 -2.36322,-4.48594 -4.62655,-8.77903 z m -3.11814,1.20012 c -1.56203,-3.62919 -2.8776,-6.62291 -2.92348,-6.65271 -0.0901,-0.0582 -0.67212,0.74215 -1.29927,1.78678 l -0.38136,0.63533 1.34726,3.9563 c 0.74105,2.17597 1.40581,4.10659 1.47727,4.29024 0.11753,0.30203 0.24289,0.4054 1.31205,1.08162 1.24049,0.78462 3.21138,1.88757 3.32426,1.86032 0.0365,-0.009 0.0477,-0.0932 0.0247,-0.18768 -0.0229,-0.0944 -1.31941,-3.14103 -2.88143,-6.7702 z m -3.53447,-0.26872 c -0.636,-1.8711 -1.18277,-3.44422 -1.21509,-3.49583 -0.0886,-0.14138 -0.15966,-0.0409 -1.03225,1.46101 l -0.80195,1.38016 0.25977,1.0772 0.25974,1.07715 1.46023,1.04345 c 1.81743,1.2986 2.30933,1.62449 2.41409,1.59923 0.0525,-0.0118 0.0332,-0.15015 -0.053,-0.38013 -0.0744,-0.19816 -0.65565,-1.89117 -1.29164,-3.76228 z m -3.22129,-0.0372 c -0.0703,-0.068 -0.13407,-0.0135 -0.27344,0.23133 -0.1,0.17604 -0.17153,0.36293 -0.15911,0.41524 0.0331,0.13988 0.63034,0.54053 0.7003,0.46991 0.0757,-0.0766 -0.14502,-0.99786 -0.26769,-1.1165 z m -4.25517,0.40355 c -1.11153,-0.77906 -1.425076,-0.93832 -1.36721,-0.69457 0.0128,0.0537 0.14147,1.20455 0.28617,2.55722 0.27387,2.56138 0.32923,2.93046 0.42896,2.86051 0.15645,-0.10974 1.94535,-3.65526 1.89894,-3.76365 -0.0288,-0.0673 -0.5899,-0.49909 -1.24686,-0.95951 z m -2.900024,-1.93512 c -0.784284,-0.49592 -1.183162,-0.70374 -1.224462,-0.63805 -0.07943,0.12657 0.3731,12.68932 0.458979,12.73927 0.03585,0.0209 0.260067,-0.30677 0.498189,-0.72816 0.722576,-1.27837 2.107418,-3.86492 2.153448,-4.02182 0.0488,-0.16596 -0.517512,-5.67041 -0.642374,-6.245 -0.08047,-0.3705 -0.08114,-0.37109 -1.243757,-1.10624 z m -1.869869,-1.12333 c -0.947957,-0.53928 -1.80504,-0.9562 -1.875553,-0.91219 -0.05703,0.0357 -0.728827,17.46613 -0.754597,19.57839 -0.0038,0.32457 0.170822,0.16955 0.815397,-0.72333 0.782834,-1.08435 2.444424,-3.64785 2.542821,-3.92313 0.05388,-0.14862 -0.333058,-13.1983 -0.407708,-13.77435 -0.0049,-0.0374 -0.149009,-0.14795 -0.320416,-0.24534 z m -2.864995,-1.41887 c -1.161725,-0.48515 -1.334545,-0.53456 -1.410376,-0.4033 -0.09627,0.16679 -2.647896,24.60236 -2.573678,24.64772 0.337689,0.20648 3.932748,-3.07659 3.942325,-3.60022 0.0019,-0.10065 0.162474,-4.66947 0.356881,-10.15286 0.194499,-5.48336 0.34279,-10.02879 0.329655,-10.10089 -0.0138,-0.0753 -0.288707,-0.2417 -0.644792,-0.39051 z m -2.63288,-0.88501 c -0.458557,-0.10941 -0.904179,-0.18232 -0.99027,-0.16208 -0.133306,0.0314 -0.495399,1.96679 -2.439337,13.03752 -1.256046,7.15025 -2.277473,13.07075 -2.270969,13.15647 0.01464,0.19574 0.581774,0.24304 1.602363,0.13348 0.736077,-0.0789 2.001817,-0.48214 2.2733,-0.72414 0.09584,-0.0853 0.232736,-1.07555 0.501002,-3.62225 0.203035,-1.92757 0.793758,-7.5154 1.312874,-12.41743 0.519117,-4.90199 0.921513,-8.97797 0.894309,-9.05775 -0.03447,-0.10099 -0.302501,-0.20541 -0.883255,-0.34396 z m -2.041075,-0.31762 c -0.832402,-0.0435 -1.426311,-0.0283 -1.466606,0.0375 -0.04969,0.0818 -6.061738,24.36082 -6.073648,24.52894 -0.0138,0.19588 1.009749,0.9847 1.7092,1.31714 0.676689,0.32161 1.763434,0.61541 1.835826,0.49636 0.08235,-0.13532 4.624017,-26.07052 4.590922,-26.21646 -0.02229,-0.0981 -0.181843,-0.14189 -0.595781,-0.1636 z m -2.019764,0.028 c -0.458314,0.007 -1.273814,0.0993 -1.639198,0.18678 l -0.399756,0.0958 -3.153527,9.78009 c -2.374326,7.3634 -3.139208,9.83956 -3.095491,10.02089 0.09592,0.39763 0.905845,2.0747 1.325745,2.74526 0.466704,0.74514 1.075224,1.4813 1.173674,1.4198 0.08216,-0.0513 6.031059,-24.01223 5.996983,-24.1549 -0.01262,-0.0528 -0.106409,-0.0951 -0.208454,-0.0936 z m -2.996818,0.4016 c -0.335657,0.0515 -0.880233,0.15889 -1.210173,0.23834 -0.52282,0.12607 -0.615009,0.17224 -0.717017,0.35902 -0.264596,0.48451 -5.038233,12.53955 -5.062529,12.78462 -0.02964,0.29895 1.1978,5.18287 1.357124,5.39997 0.05083,0.0694 0.120917,0.10823 0.155725,0.0865 0.07731,-0.0483 6.124368,-18.75122 6.102583,-18.87449 -0.0093,-0.0525 -0.259563,-0.0502 -0.625753,0.007 z m -3.198199,0.78134 c -0.466097,0.12472 -1.098218,0.30826 -1.404749,0.40802 l -0.557268,0.18132 -1.386598,2.87071 c -0.762599,1.57888 -1.407593,2.91749 -1.433217,2.97468 -0.04192,0.0912 0.28415,2.33229 0.669891,4.61495 0.108126,0.64004 0.150339,0.77311 0.229442,0.72371 0.127532,-0.0796 4.833115,-11.83473 4.774887,-11.9281 -0.02725,-0.0436 -0.377459,0.017 -0.892391,0.15468 z m -2.822791,0.86773 c -0.747653,0.18482 -2.607499,0.86152 -2.640006,0.96065 -0.01666,0.054 0.0699,0.78883 0.194512,1.63383 0.124469,0.84499 0.250643,1.7259 0.280264,1.9576 0.03602,0.27936 0.08268,0.41434 0.139331,0.40067 0.08882,-0.0214 2.476294,-4.88628 2.450506,-4.99327 -0.0079,-0.0333 -0.199155,-0.0152 -0.424533,0.0406 z"
       id="path93168-8-6-1-2-2-7-3-2"
       inkscape:connector-curvature="0"
       sodipodi:nodetypes="cccccccccccccsccccccccscccccccsccccccccccccccccccccccccccccccccccccccsccccccccccccccccccccccsccccccccccccccccccccccccccccccscscccsccscccsccsccccccccccscccccccccscccccccccccccccccccccccsccccscccccccccccccccsccccccccsccccccccccccccccccccccccccccccccccccccccccccccccccccccccsccccccccccccccccccccccccccccsccccsccccccccccccccccccccccccccccccccccccscsccccccccccccccscccccccccccccccccccccccccccccccccccccc" />
    <path
       style="fill:#000000;fill-opacity:1;stroke:#000000;stroke-width:1.19278181;stroke-miterlimit:4;stroke-dasharray:none;stroke-opacity:1"
       d="m 80.744203,15.825092 c -2.012005,0.888702 -4.308394,2.802289 -6.200124,5.166758 -2.024505,2.53036 -3.439199,4.800051 -6.762953,10.84999 l -2.419274,4.403755 -2.873524,-1.599967 c -3.991882,-2.222613 -6.198287,-3.308681 -8.498567,-4.183296 -2.677545,-1.018084 -5.196352,-1.475278 -7.44111,-1.350776 -0.796397,0.0441 -1.077318,0.100148 -2.296446,0.457126 -1.072724,0.31411 -1.528754,0.483366 -2.002438,0.743043 -3.420768,1.875177 -5.590494,4.973449 -6.220878,8.883031 -0.436367,2.706451 -0.215746,5.989497 0.679985,10.117888 0.330896,1.525219 1.172741,4.824608 1.621322,6.354388 0.205324,0.70024 0.358286,1.325781 0.339927,1.390044 -0.02518,0.08836 -0.695056,0.332085 -2.743324,0.998225 -6.891456,2.241363 -10.213399,3.714521 -13.264884,5.882348 -0.992748,0.705273 -2.455801,2.080185 -3.117767,2.929738 -2.927993,3.758333 -3.220049,8.515447 -0.742072,12.087356 2.137222,3.080682 5.909915,5.500594 14.493518,9.296698 0.464061,0.205259 0.855829,0.414206 0.870645,0.464397 0.01481,0.05033 -0.661023,1.179803 -1.501854,2.510297 -2.625933,4.154968 -3.300938,5.284377 -4.760712,7.965109 -1.895828,3.481686 -2.797706,5.620096 -3.334283,7.905736 -0.559167,2.38216 -0.562365,4.12639 -0.01094,5.95584 0.669583,2.22155 2.073323,3.92109 4.095797,4.9589 3.024552,1.55194 7.372388,1.28967 13.696909,-0.8263 2.2736,-0.7607 3.007184,-1.03606 7.8562,-2.94921 2.880776,-1.1366 3.964708,-1.5942 4.132739,-1.74485 0.422047,-0.37836 0.435933,-0.57101 0.150557,-2.085 -0.531633,-2.82049 -1.044728,-5.00707 -1.670514,-7.11918 -1.567623,-5.291038 -3.211405,-7.87164 -6.652991,-10.444786 -1.677308,-1.254012 -4.738488,-2.992653 -7.716829,-4.382764 -0.775459,-0.361928 -1.431299,-0.695006 -1.4575,-0.740181 -0.02636,-0.04494 0.337794,-0.72919 0.808978,-1.520153 2.152291,-3.61333 3.652675,-6.72303 4.472267,-9.269531 0.630494,-1.95905 0.877846,-3.388732 0.93225,-5.389002 0.08254,-3.031601 -0.389682,-6.214534 -1.666511,-11.23405 -0.271277,-1.066375 -0.485678,-1.952301 -0.476455,-1.968761 0.009,-0.01683 1.098245,-0.392106 2.420103,-0.834859 3.962769,-1.327262 6.533531,-2.347553 8.78072,-3.484923 3.371458,-1.706392 5.453692,-3.346384 7.755092,-6.107975 1.64505,-1.974029 2.828223,-3.721035 4.839124,-7.14444 0.59446,-1.011942 1.109155,-1.848382 1.143817,-1.858599 0.0347,-0.0101 0.964203,0.437955 2.065614,0.995969 2.303696,1.167128 3.293236,1.618616 4.859049,2.217177 3.47514,1.328441 6.277863,1.736655 9.368467,1.36451 2.933042,-0.35314 7.285084,-1.635362 12.477441,-3.676128 0.679278,-0.266965 1.272938,-0.464751 1.319252,-0.439555 1.793134,-1.079823 1.906757,-0.138354 1.457802,-2.921894 -0.04748,-0.160908 -0.2128,-0.970418 -0.367383,-1.798914 -0.966543,-5.181048 -1.50654,-7.521179 -2.326454,-10.082306 -0.848308,-2.64978 -1.509636,-4.084832 -2.60801,-5.659164 -2.090042,-2.995751 -5.171102,-4.361541 -8.729423,-3.869792 -0.822973,0.113781 -2.012854,0.451824 -2.774254,0.78805 z m 2.868307,1.049914 c 0.06347,0.005 0.127953,0.05201 0.143354,0.104355 0.0361,0.122197 -4.077341,24.480456 -4.162014,24.645893 -0.06961,0.135998 -0.662246,0.10789 -1.695217,-0.08062 -0.432901,-0.07894 -0.52358,-0.125057 -0.53819,-0.273309 -0.0096,-0.09796 0.447892,-5.225635 1.016741,-11.394691 0.87227,-9.460047 1.058984,-11.237939 1.192326,-11.353555 0.263711,-0.228605 1.271147,-0.805015 1.840049,-1.052539 0.51292,-0.223186 1.961037,-0.614534 2.202933,-0.595246 z m 1.412099,-0.04865 c 0.413165,0.02037 0.993722,0.09173 1.290066,0.158553 0.680629,0.153335 1.66451,0.559125 1.748244,0.721078 0.05231,0.100989 -5.477763,22.806314 -5.765179,23.67093 -0.07931,0.238586 -0.116996,0.265701 -0.421331,0.303606 -0.549445,0.06833 -1.794535,0.09644 -1.893364,0.04259 -0.05604,-0.03047 0.72132,-4.857548 1.98967,-12.35481 1.144906,-6.767616 2.103251,-12.358326 2.129578,-12.423733 0.06469,-0.160404 0.06488,-0.160909 0.922316,-0.118157 z m -5.946532,2.271559 c 0.02178,0.292515 -2.0064,22.05107 -2.06545,22.159616 -0.05866,0.108058 -0.500656,0.01784 -1.593221,-0.325117 -0.368383,-0.1158 -0.683958,-0.257808 -0.70106,-0.315977 -0.02723,-0.09257 0.203051,-16.884732 0.23628,-17.220554 0.01616,-0.163769 1.130815,-1.590944 1.920592,-2.459499 0.573779,-0.63086 1.981996,-1.95952 2.122568,-2.002642 0.03643,-0.01178 0.07253,0.06295 0.08026,0.164106 z m 10.799982,0.0197 c 0.641159,0.692565 1.406651,1.777875 1.543495,2.18799 0.04565,0.137008 -0.853682,3.012549 -3.09091,9.882922 -1.735468,5.329367 -3.188346,9.75374 -3.228713,9.831888 -0.06262,0.121355 -0.220885,0.171008 -1.08619,0.339929 -1.247721,0.24372 -1.399224,0.251192 -1.404904,0.06901 -0.0043,-0.141048 5.659655,-23.164303 5.75839,-23.406862 0.08554,-0.210292 0.740095,0.264894 1.508832,1.095208 z m -44.479803,12.02082 c 0.102605,0.05588 11.34961,17.624964 11.343892,17.720449 -0.009,0.145592 -1.428009,1.313848 -1.711303,1.408609 l -0.251503,0.08416 -6.606864,-8.529872 c -3.633817,-4.691421 -6.646387,-8.584693 -6.696272,-8.650269 -0.06001,-0.0813 -0.04473,-0.172959 0.04827,-0.282196 0.194483,-0.228101 1.311519,-0.921658 1.928617,-1.197206 0.524336,-0.234143 1.842225,-0.609148 1.944776,-0.553318 z M 47.386909,30.9578 c 1.049895,0.01716 3.293831,0.403518 3.450405,0.594118 0.202497,0.246413 7.82694,14.857902 7.86167,15.065956 0.02641,0.15771 -0.120917,0.36876 -0.724862,1.038653 -0.79045,0.876684 -0.963754,1.002702 -1.095776,0.797156 -5.30525,-8.259829 -10.986193,-17.163327 -11.016257,-17.265292 -0.03501,-0.118662 0.009,-0.143067 0.342136,-0.189943 0.210324,-0.02963 0.742529,-0.0478 1.182749,-0.04057 z m -6.141137,2.407019 c 3.406638,4.37275 13.157281,16.982909 13.216153,17.093997 0.05504,0.102336 0.04255,0.196659 -0.03643,0.272822 -0.132144,0.127414 -1.786615,1.132001 -1.937999,1.176638 -0.134753,0.03972 -13.976116,-14.897742 -13.972424,-15.078866 0.004,-0.200143 0.95041,-1.853701 1.326912,-2.318452 0.416047,-0.513679 1.056746,-1.144254 1.211189,-1.192156 0.0694,-0.02155 0.156045,-8.25e-4 0.192595,0.04611 z m 33.410826,-9.311105 c -0.0022,0.106879 -0.199516,13.706309 -0.236397,16.288695 -0.0011,0.08096 -0.05058,0.161582 -0.109741,0.179104 -0.133104,0.03921 -2.394156,-0.87714 -2.425422,-0.982892 -0.04257,-0.144077 -0.668038,-9.966994 -0.649384,-10.196979 0.02269,-0.278965 1.585622,-2.910735 2.93212,-4.937262 0.312293,-0.469884 0.49381,-0.600328 0.488805,-0.350683 z M 52.364217,31.94675 c 0.910998,0.310996 1.942968,0.727019 3.164449,1.273318 0.557631,0.249779 0.79571,0.40404 0.90699,0.587571 0.08303,0.13684 1.088384,2.497067 2.234222,5.244772 l 2.083356,4.995885 -0.197898,0.302428 c -0.320687,0.489981 -1.449417,1.999226 -1.508246,2.01663 -0.08323,0.02457 0.0064,0.191997 -3.879701,-7.238983 -2.015947,-3.854795 -3.713561,-7.098288 -3.772414,-7.207743 -0.163837,-0.304515 0.01464,-0.299735 0.969222,0.02609 z m -7.140271,12.692011 c 3.719659,4.007878 6.768477,7.342715 6.775041,7.410714 0.01481,0.15384 -1.040932,0.715321 -1.863542,0.991156 l -0.568261,0.190565 -5.900936,-5.30104 c -3.341754,-3.002012 -5.927678,-5.3821 -5.962549,-5.488155 -0.26404,-0.800825 0.302186,-4.956146 0.690984,-5.070886 0.03641,-0.0101 3.109587,3.259651 6.829253,7.267579 z M 91.828084,22.042404 c 0.327557,0.59341 0.675678,1.508605 1.19695,3.147048 l 0.597435,1.877754 -2.585638,6.338313 c -1.422063,3.486101 -2.642718,6.459887 -2.712596,6.608341 l -0.126876,0.269993 -1.334374,0.370881 c -1.142016,0.317375 -1.338281,0.353428 -1.361345,0.250318 -0.03154,-0.140542 6.094181,-18.982707 6.179511,-19.007921 0.03149,-0.0101 0.09759,0.05621 0.147006,0.145256 z m -32.390276,13.162315 1.828521,1.000245 0.306549,0.911474 c 0.168586,0.501326 0.511207,1.543312 0.76139,2.315541 l 0.454851,1.404081 -0.375224,0.63761 c -0.686257,1.1659 -1.333304,2.123342 -1.433009,2.120312 -0.09722,-0.0033 -3.720991,-8.497927 -3.972623,-9.312604 l -0.114707,-0.371437 0.357881,0.147276 c 0.196848,0.08096 1.180688,0.597399 2.186357,1.14752 z m 11.527088,-5.318325 c 0.01464,0.05016 0.596043,9.134627 0.594544,9.29291 -7.6e-4,0.08349 -0.05218,0.155355 -0.113378,0.159899 -0.06203,0.0034 -0.687336,-0.272165 -1.389638,-0.61381 -0.859056,-0.41806 -1.292554,-0.674253 -1.32469,-0.782832 -0.02634,-0.0887 -0.150272,-0.847969 -0.275655,-1.687069 l -0.228011,-1.525639 1.304602,-2.418144 c 1.144122,-2.120531 1.396669,-2.547916 1.43298,-2.424844 z M 43.491494,48.155716 c 3.108158,2.797627 5.676443,5.131816 5.707325,5.186922 0.03149,0.05639 -0.01683,0.142058 -0.110028,0.195329 -0.272603,0.155691 -2.488334,1.001978 -2.610383,0.996878 -0.06205,-0.0017 -0.58531,-0.35989 -1.162946,-0.794108 -0.577629,-0.434168 -2.348043,-1.76298 -3.934291,-2.952898 l -2.884116,-2.163468 -0.131017,-0.635624 c -0.225553,-1.094382 -0.529092,-3.07102 -0.602526,-3.923349 -0.0722,-0.837955 -0.06942,-0.954614 0.02339,-0.98109 0.02935,-0.0084 2.596472,2.27373 5.704569,5.071408 z m 20.308604,-10.53499 0.63261,0.392258 -0.687265,1.192728 c -0.378024,0.656041 -0.715826,1.185004 -0.750645,1.175461 -0.08512,-0.02322 -1.274763,-3.662445 -1.239495,-3.791526 0.02997,-0.109573 0.967118,0.363155 2.044834,1.031063 z m 4.247418,-2.272535 c 0.01464,0.05319 0.0921,0.568062 0.171816,1.143951 0.0799,0.575906 0.157189,1.09068 0.171888,1.144036 0.01464,0.05319 -0.01582,0.109404 -0.06758,0.124553 -0.136285,0.04023 -1.239502,-0.569645 -1.280217,-0.707697 -0.03457,-0.116979 0.806165,-1.751399 0.917798,-1.784322 0.03256,-0.0101 0.0713,0.02659 0.08629,0.07928 z M 93.8416,27.861735 c 0.09331,0.319916 0.776376,3.448871 0.92271,4.226889 0.07054,0.374837 0.09754,0.756474 0.06205,0.847751 -0.03597,0.09173 -0.721249,1.496958 -1.521921,3.123316 l -1.455722,2.957037 -0.73669,0.267234 c -2.127721,0.771892 -2.349942,0.844065 -2.416457,0.784465 -0.07598,-0.068 4.894783,-12.363106 5.012188,-12.397763 0.03952,-0.01178 0.09986,0.07422 0.133912,0.19102 z M 42.413218,51.922196 c 1.904506,1.430255 3.496776,2.644915 3.538401,2.699298 0.08121,0.10486 -0.147409,0.199318 -2.292756,0.943657 l -0.957206,0.332152 -1.402419,-0.870238 -1.402398,-0.870254 -0.159681,-0.540998 c -0.244892,-0.829893 -1.070796,-4.194741 -1.063307,-4.332102 0.0059,-0.105365 0.02466,-0.110919 0.141671,-0.04174 0.07427,0.04376 1.693213,1.250074 3.597695,2.680261 z M 95.042332,33.627677 c 0.165218,0.54736 0.72296,3.717231 0.671564,3.816992 -0.03358,0.0648 -0.682482,0.354808 -1.525316,0.681271 -1.78772,0.692514 -1.824131,0.703623 -1.832014,0.560202 -0.0071,-0.130107 2.479231,-5.219121 2.564961,-5.249839 0.03111,-0.01178 0.08558,0.0749 0.120783,0.191374 z M 41.190805,55.299449 c 0.540459,0.333179 0.991009,0.634126 1.001183,0.668664 0.02317,0.07894 -1.573718,0.555456 -1.64216,0.490015 -0.08675,-0.08298 -0.465242,-1.728139 -0.401907,-1.746855 0.03309,-0.0101 0.502397,0.254913 1.042916,0.588092 z m -1.656744,4.958738 c 0.193708,0.703657 0.331869,1.316845 0.307082,1.362626 -0.02472,0.04578 -0.952246,-0.279806 -2.06114,-0.723501 -1.450971,-0.580585 -1.992529,-0.833848 -1.932186,-0.903565 0.04613,-0.05335 0.815161,-0.303538 1.709008,-0.555993 l 1.625154,-0.458978 z m -2.536854,0.638368 c 0.981614,0.387427 2.047616,0.808886 2.368746,0.936654 0.321135,0.127752 0.611351,0.27097 0.644808,0.318267 0.06435,0.09072 0.447503,1.702403 0.606173,2.549767 0.07224,0.385625 0.06493,0.503581 -0.02836,0.51144 -0.222563,0.01885 -10.406426,-3.073225 -10.40495,-3.159183 0.0022,-0.126236 2.457369,-1.059845 4.284732,-1.629472 l 0.743995,-0.23187 z m -1.876383,3.016537 c 3.025846,0.908125 5.543373,1.673604 5.594421,1.701056 0.05738,0.03097 0.147494,0.365681 0.23582,0.876281 0.227586,1.316002 0.268575,1.821889 0.15044,1.856747 -0.103446,0.03063 -16.33179,-3.346081 -16.511729,-3.435591 -0.149412,-0.07439 -0.06251,-0.147275 0.752132,-0.630254 1.088745,-0.646934 3.149569,-1.650007 3.880951,-1.888963 l 0.396955,-0.12977 5.50152,1.651133 z m -2.479095,2.9991 c 4.666613,0.979339 8.516811,1.809047 8.555973,1.843821 0.131,0.116473 0.236062,2.28765 0.116995,2.420602 -0.08687,0.09695 -20.770456,-2.48431 -20.803756,-2.596407 -0.03151,-0.106207 0.541859,-0.857631 1.148552,-1.505256 0.532496,-0.56845 2.043421,-1.805731 2.300069,-1.883577 0.116019,-0.03501 3.694312,0.67405 8.682155,1.720817 z m -1.857771,3.313259 c 5.731734,0.710171 10.459687,1.311088 10.506553,1.335375 0.09744,0.0505 0.08525,0.940342 -0.02386,1.746974 -0.0514,0.379902 -0.116389,0.558131 -0.213811,0.586391 -0.07705,0.02222 -5.048677,-0.165116 -11.048182,-0.41631 -8.328028,-0.348782 -10.923378,-0.486092 -10.972615,-0.580484 -0.09109,-0.174627 0.09949,-1.292068 0.357564,-2.096259 0.269299,-0.839133 0.717865,-1.791677 0.863988,-1.834833 0.05996,-0.01768 4.798635,0.548925 10.53033,1.259129 z m -0.731501,3.528602 c 5.971025,0.248264 10.898575,0.472913 10.950148,0.499238 0.05853,0.02996 0.06805,0.201826 0.0254,0.457497 -0.10688,0.640639 -0.478393,1.847944 -0.577276,1.87585 -0.04915,0.01347 -3.540262,0.15687 -7.758052,0.317745 -4.217811,0.160909 -8.730592,0.338094 -10.02831,0.393739 -1.661038,0.0712 -2.40963,0.06968 -2.528734,-0.005 -0.604498,-0.379617 -1.513206,-3.82115 -1.045413,-3.959167 0.05822,-0.01716 4.991235,0.1719 10.962238,0.420147 z m 1.382958,3.473882 c 4.849624,-0.186393 8.841846,-0.325656 8.871631,-0.309447 0.09732,0.05285 0.009,0.35506 -0.402339,1.375956 -0.332946,0.826324 -0.441687,1.016166 -0.610569,1.066055 -0.11304,0.03332 -3.590638,0.45785 -7.727969,0.943287 -5.850717,0.686455 -7.565784,0.861923 -7.717568,0.789463 -0.275676,-0.131621 -1.468876,-1.101906 -2.103008,-1.710061 -0.601419,-0.576713 -1.379203,-1.529712 -1.346462,-1.649619 0.01178,-0.04342 0.51601,-0.09863 1.120225,-0.12287 0.604249,-0.02407 5.066547,-0.196389 9.916147,-0.382815 z m 0.519753,3.300416 c 3.923966,-0.461822 7.174372,-0.819339 7.223129,-0.794529 0.09549,0.04898 -0.306634,0.953149 -0.897759,2.018615 l -0.359532,0.647928 -4.099857,0.811378 c -2.254973,0.446236 -4.259309,0.835835 -4.454082,0.865761 -0.320306,0.04931 -0.472541,-0.0067 -1.592377,-0.596289 -1.299777,-0.681978 -3.24038,-1.837358 -3.27323,-1.948731 -0.01043,-0.03602 0.05694,-0.08786 0.150137,-0.115296 0.09325,-0.02743 3.379961,-0.427856 7.303902,-0.889695 z m 1.99993,2.926623 c 1.938412,-0.384784 3.574162,-0.697832 3.635016,-0.695628 0.1668,0.0067 0.115246,0.117821 -0.74913,1.624457 l -0.794276,1.384574 -1.062743,0.313638 -1.062723,0.313621 -1.633772,-0.742858 c -2.033332,-0.92462 -2.561498,-1.187679 -2.592017,-1.291041 -0.01532,-0.05184 0.113428,-0.10385 0.355691,-0.144245 0.208758,-0.03518 1.965627,-0.377783 3.904021,-0.762534 z m 1.642814,2.771135 c 0.09409,0.02676 0.07916,0.109069 -0.06362,0.352485 -0.102436,0.174627 -0.228543,0.329981 -0.280039,0.345399 -0.137648,0.04107 -0.783251,-0.275699 -0.757113,-0.371538 0.02846,-0.103851 0.936726,-0.373238 1.100783,-0.326396 z m 1.778111,3.886842 c 1.230428,0.573079 1.525149,0.765008 1.285102,0.836795 -0.05292,0.01514 -1.113899,0.479663 -2.357696,1.030759 -2.35515,1.043517 -2.702469,1.180105 -2.69176,1.05875 0.01683,-0.19033 2.192883,-3.512325 2.309951,-3.526345 0.07268,-0.0084 0.727163,0.261342 1.454406,0.600075 z m 3.125854,1.543935 c 0.821656,0.431273 1.201057,0.672771 1.164809,0.74141 -0.0698,0.132127 -11.175828,6.021528 -11.262015,5.972128 -0.03609,-0.02053 0.135712,-0.37859 0.381511,-0.795523 0.745814,-1.26497 2.293395,-3.757544 2.406308,-3.875835 0.119302,-0.125226 5.169453,-2.387023 5.729539,-2.566177 0.361101,-0.115632 0.361916,-0.115296 1.579868,0.523997 z m 1.907838,1.057673 c 0.941019,0.551332 1.730606,1.085126 1.727735,1.168206 -0.0026,0.06716 -14.761673,9.364205 -16.578063,10.442665 -0.27912,0.16562 -0.232249,-0.0632 0.218721,-1.06781 0.54764,-1.22012 1.936925,-3.940863 2.126113,-4.163712 0.101695,-0.121019 11.596599,-6.310743 12.132811,-6.534097 0.03484,-0.01514 0.202552,0.05521 0.372646,0.154849 z m 2.661265,1.771715 c 1.001009,0.76356 1.130206,0.8885 1.054448,1.019803 -0.09637,0.166799 -19.982304,14.594283 -20.058695,14.552713 -0.347651,-0.18924 0.698037,-4.94413 1.146724,-5.21426 0.08626,-0.0518 3.962666,-2.47544 8.614186,-5.385514 4.651476,-2.910094 8.513778,-5.311223 8.582819,-5.335931 0.07196,-0.02576 0.353677,0.129097 0.660557,0.363156 z m 2.082873,1.837644 c 0.324029,0.342453 0.609978,0.691891 0.635468,0.776571 0.03942,0.131285 -1.455569,1.412463 -10.071151,8.631301 -5.564246,4.66287 -10.180865,8.50774 -10.258361,8.54493 -0.176831,0.0851 -0.501316,-0.38231 -0.916839,-1.3209 -0.299664,-0.67695 -0.583347,-1.97469 -0.509528,-2.3308 0.02605,-0.12574 0.815099,-0.73932 2.886471,-2.24501 1.567817,-1.13964 6.111623,-4.44511 10.097364,-7.34567 3.985697,-2.900566 7.314422,-5.287052 7.397101,-5.303379 0.104691,-0.0207 0.329134,0.159227 0.739513,0.592906 z m 1.295622,1.60882 c 0.453918,0.699112 0.737725,1.22104 0.700807,1.28887 -0.04606,0.08399 -18.066232,17.430032 -18.205858,17.524402 -0.162676,0.11008 -1.357661,-0.3821 -1.995313,-0.82162 -0.61684,-0.42525 -1.41466,-1.21948 -1.347748,-1.34169 0.07603,-0.13903 20.26572,-17.039762 20.408671,-17.084096 0.09603,-0.0298 0.21377,0.08651 0.43953,0.434185 z m 0.985642,1.763164 c 0.223689,0.400048 0.550945,1.152768 0.657857,1.512988 l 0.116895,0.39406 -6.893016,7.62109 c -5.189749,5.73791 -6.95171,7.6384 -7.130614,7.69121 -0.392318,0.11581 -2.249676,0.25288 -3.040352,0.22449 -0.878663,-0.0316 -1.820454,-0.1905 -1.816416,-0.30652 0.0032,-0.0968 17.779699,-17.229167 17.920274,-17.270976 0.05214,-0.01514 0.135594,0.0446 0.185282,0.13381 z m 1.150615,2.796118 c 0.123207,0.31641 0.302619,0.84166 0.398667,1.16722 0.152225,0.51578 0.158351,0.61872 0.0476,0.80042 -0.287271,0.47144 -8.340461,10.63305 -8.54054,10.77662 -0.244063,0.17513 -5.087378,1.55408 -5.355091,1.52466 -0.08539,-0.0101 -0.154092,-0.0506 -0.152729,-0.0915 0.0032,-0.091 13.176851,-14.6795 13.294517,-14.72226 0.05014,-0.0181 0.173181,0.19973 0.307557,0.54499 z m 0.922422,3.16037 c 0.125074,0.46599 0.282152,1.10522 0.34906,1.42058 l 0.121574,0.57324 -1.792791,2.63621 c -0.986057,1.44989 -1.822824,2.67776 -1.859553,2.72852 -0.05806,0.082 -2.161888,0.92009 -4.331611,1.72736 -0.608342,0.22637 -0.744695,0.25636 -0.741452,0.1631 0.0052,-0.1503 7.832604,-10.10296 7.942591,-10.09922 0.0514,0.002 0.173946,0.3354 0.312188,0.85018 z m 0.659914,2.87846 c 0.213792,0.73992 0.557652,2.68893 0.488087,2.76669 -0.03843,0.0414 -0.718114,0.33388 -1.512177,0.64851 -0.794015,0.31466 -1.620005,0.64591 -1.835463,0.73605 -0.259855,0.10873 -0.400181,0.13567 -0.416657,0.0796 -0.02577,-0.0877 2.993489,-4.58766 3.099039,-4.61881 0.03291,-0.0101 0.112737,0.16478 0.177171,0.3879 z"
       id="path93168-8-6-1-2-2-0-6-6"
       inkscape:connector-curvature="0"
       sodipodi:nodetypes="cccccccccccccsccccccccscccccccsccccccccccccccccccccccccccccccccccccccsccccccccccccccccccccccsccccccccccccccccccccccccccccccscscccsccscccsccsccccccccccscccccccccscccccccccccccccccccccccsccccscccccccccccccccsccccccccsccccccccccccccccccccccccccccccccccccccccccccccccccccccccsccccccccccccccccccccccccccccsccccsccccccccccccccccccccccccccccccccccccscsccccccccccccccscccccccccccccccccccccccccccccccccccccc" />
    <path
       style="fill:none;fill-opacity:0.12844035;fill-rule:evenodd;stroke:#000000;stroke-width:3.9659996;stroke-linecap:butt;stroke-linejoin:miter;stroke-miterlimit:4;stroke-dasharray:7.93199874, 3.96599939;stroke-dashoffset:0;stroke-opacity:1"
       d="M 121.25491,19.916773 51.340082,140.51386"
       id="path167014-9-0-1"
       inkscape:connector-curvature="0"
       sodipodi:nodetypes="cc" />
  </g>
</svg>
