<svg
  xmlns:rdf="http://www.w3.org/1999/02/22-rdf-syntax-ns#"
  xmlns="http://www.w3.org/2000/svg"
  height="400.4"
  width="300"
  version="1.1"
  xmlns:cc="http://creativecommons.org/ns#"
  xmlns:xlink="http://www.w3.org/1999/xlink"
  xmlns:dc="http://purl.org/dc/elements/1.1/">
  <defs>
    <linearGradient id="a" y2="266" gradientUnits="userSpaceOnUse" y1="376" gradientTransform="matrix(.1 0 0 .1 47 -17)" x2="73" x1="-117">
      <stop stop-color="#4e76ba" offset="0"/>
      <stop stop-color="#294169" offset="1"/>
    </linearGradient>
    <linearGradient id="b" y2="266" gradientUnits="userSpaceOnUse" y1="376" gradientTransform="matrix(.8 0 0.2 .2 47 -17)" x2="63" x1="11">
      <stop stop-color="#fcfdff" offset="0"/>
      <stop stop-color="#c6c6c6" offset="1"/>
    </linearGradient>
    <linearGradient id="c" y2="326" gradientUnits="userSpaceOnUse" y1="456" gradientTransform="matrix(.8 0 0.2 .2 47 -17)" x2="63" x1="11">
      <stop stop-color="#fcfdff" offset="0"/>
      <stop stop-color="#9aa8de" offset="1"/>
    </linearGradient>
  </defs>
  <g transform='scale(8) translate(0 -15)'>


    <g stroke="#1d2145"  >

      <path stroke-width=".408" d="m17.3 37.8c2.97 1.64 1.14 5.25-.15 7.36-1.23 3-6.1 2.3-6.05-1.04.5-2.5 1.58-5.64 4.15-6.66.7-.2 1.45-.03 2.05.33z" fill="#fff"/>
      <g stroke-width=".436" fill="url(#c)">
        <path stroke-linejoin="round" d="m11.1 53.6c-1.7 1.14-5 1.56-5.93 2.9 1.7.9 3.7 3 5.7 2.66 2.14-.8 4.27-1.6 6.4-2.38-1.82-1.43-4.3-1.67-6.17-3.16z" stroke-width=".408"/>
        <path stroke-linejoin="round" d="m10.1 58.7l-5.34-2.98 6.3-2.8 6.17 3.1c-2.38.9-4.76 1.8-7.14 2.68z" />
        <path stroke-linejoin="round" d="m6.33 49.4l-.12 7.1c2.7 1.13 7.97 2.16 9.16-1.2-.1-1.96-.14-3.93-.14-5.9h-8.9z"/>
        <path d="m15.2 49.4c-2.16 1.63-5.9 1.64-8.1.44.2-2.53 4.88-1.63 6.86-1.2.4.23 1.03.3 1.24.76z"/>
      </g>
      <g>
        <path class='white' stroke-width=".436" d="m14.6 40.9c3.05 1.38 1.54 5.07.4 7.25-.94 3.2-6 2.9-6.16-.55.4-2.65 1.32-6.43 4.4-7 .47-.03.94.1 1.36.3z"/>
        <path class='white' stroke-width=".433" d="m7.37 22.2c3.36-.8 4.1 3.4 4.66 5.78 1.25 2.38.82 7.58-2.88 6.7-2.85-1.47-2.54-5.2-3.52-7.84-.3-1.67.05-3.83 1.74-4.64z"/>
        <g stroke-width=".436">
          <path class='white' d="m7.6 31c3.57-1.6 5.5 2.7 6.5 5.34 1.78 2.86-1.03 7.12-4.34 5.63-2.56-1.5-3.4-4.7-4.18-7.38-.22-1.48.63-3 2-3.58z"/>
          <path class='white' d="m18.2 40c1 3.2-2.76 4.53-5.13 5.13-3 1.42-6.16-2.56-3.7-4.97 2.25-1.45 5.68-3.3 8.16-1.38.33.33.55.76.67 1.22z"/>
          <path class='white' d="m12.1 39.7c2.95 1.6 1.2 5.17-.1 7.26-1.16 3.13-6.2 2.48-6.1-.97.6-2.62 1.75-6.33 4.86-6.7.47 0 .93.17 1.33.4z"/>
        </g>
      </g>
    </g>
    <circle cx='22' cy='62.5' r='9' class='shadow' fill='#cccccc' ></circle>
    <g transform='translate(-24, 42)'>
      <circle cx='46' cy='10' r='9' fill='#fff' class='ball' stroke-width='0.0' stroke='#f00'></circle>
      <path class='ball' fill='url(#a)' stroke='#1d2145' stroke-width='0.3'
        d="m45.5 19.1c-2.7-.14-5.2-1.48-6.83-3.66-.72-1.07-1.26-2.23-1.5-3.3-.2-.73-.27-1.34-.27-2.1 0-1.2.22-2.28.65-3.33 1.07-2.8 3.5-4.84 6.44-5.5l.3-.1.63.63h1.2l.82-.73s1.02.16 1.42.27c2.9.78 5.32 3.03 6.23 5.93.38 1.3.54 2.53.38 3.9-.27 2-1.08 3.8-2.47 5.2-1.87 1.9-4.3 2.86-6.98 2.75zm-1.75-4.35v-.86h-3.1v-1.9h2.14v-.9h-2.1v-2.07h2.22v-.9h-3.36s-.08 4.42 0 6.65h4.1l.06-.05zm6.53-2.7h2.15v-.93h-2.15v-2.17h3.06v-.9h-3.5v.52c0 .35-.27.27-.68.33v5.75l1.16.05v-2.74zm-2.42-.26l-1.6-2.34c-.36 0-.6.27-.82.54.16.32.35.54.54.9 0 .07-.2.04-.43 0-.38-.2-.73-.47-.97-.82-.53-.75-.53-1.88.06-2.63l.1-.13c-.26-.1-.43-.28-.53-.5l-.15-.27-.4.54c-.76 1.24-.46 2.95.42 3.95.46.43.92.7 1.6.88-.04.27-.52.54-.7.73 0 .08.42.67.42.67zm1.7-3.28c-.1-.95-.55-1.78-1.35-2.34-.8-.54-1.95-.7-2.84-.43-.2.05-.2.08-.2.1l.23.94c0 .06 0 .06.12 0 .6-.2 1.27-.18 1.78 0 .7.38 1.18 1.08 1.26 1.72v.2h1.07v-.18zm-4.4-1.73c-.1-.45-.25-.9-.25-1.34.68-.62 1.03-.75 1.97-.45l.08.34.8.27c.1-.5.27-.92.16-1.43l-1.06-.7-.08.1c-.1.12-.27.14-1.08.28-.7.1-.94.13-1.07.08-.45.43-1 1.42-1 1.42s.53 1.02.96 1.67c.32.1.45 0 .6-.22zm.55-3.14c.76-.13.92-.2.98-.27 0-.1 0-.43-.14-.53-.6-.16-1.34 0-1.93.18-.04 0-.04.07-.04.34s0 .27.08.32c.05.05.1.08.2.08.07 0 .44 0 .87-.08zm-.45-.94l1.08-.22-.14-.62h-1.35l-.13.94z"
        >
      </path>
    </g>

    <g stroke="#1d2145"  fill="#020103">
      <g class='robot'>
        <path stroke-linejoin="round" stroke-width=".45" d="m4.4 23.9v-.25l-.1.2-.14.72c-.2 1.2 3.06.8 4.18 1.16l11.7 3.57c1.28.35 2.55.7 2.75-.5l.12-.73c.15-.6 0-1.27-.4-1.78-.37-.5-.88-.77-1.4-.92l-13.2-3.1c-1.12-.3-3.72.82-4.84 1.38z" fill="#fff"/>
        <path stroke-linejoin="round" stroke-width=".35" d="m2.42 24.3v-.1c.4-.92 1.53-1.17 2.55-.92l14.8 3.58c.9.25 1.4.92 1 1.84v.1c-.4 1.02 1.02 2.04-2.4 1.27l-14.9-3.6c-1.03-.25-1.54-1.22-1.13-2.14z" fill="#fff"/>

        <g stroke-width=".43" fill="url(#c)">
          <path stroke-linejoin="round" d="m22.8 26c-.488.0224-1.19.666-1.46 1.47-.440 1.06-.396 2.04.104 2.26l1.25.554 1.54-3.74-1.12-.438-.189-.114-.122.0056z"/>
          <ellipse rx=".916" transform="rotate(22.1)" ry="2.02" cy="17.5" cx="32.2"/>

        </g>
        <g fill="#9aa8de" class="robot-head">
          <path d="m27.1 27.8.666 1.19 2.47.498.014.305-2.77-.484-.344-.84z" stroke-width=".427" style='z-index: -5;'/>
          <g stroke-linejoin="round" stroke-width="0.8" >
            <path transform="matrix(.516 -.058 -.014 .525 -249 -39)" d="m535 187-3.7 2.2-4.3.8c-.2.6.3 1.6.3 1.8l6.5 2.5 7.7-5.4v-1.5l-3.5.5-3-1z"/>
            <path transform="matrix(.516 -.058 -.014 .525 -249 -39)" d="m534 192-6.6-2.6 7.8-4.7 6.5 2z"/>
          </g>
          <path d="m23.4 30.7.4 1.43 2.45.66-.1.3-2.65-.77-.16-.8z" stroke-width=".449" style='z-index: -5000;'/>
          <g>
           <ellipse rx="1.316" ry="1.4" cy="27.1" cx="24" stroke-width='0.3' fill='white'/>
           <ellipse class='eye' rx=".416" ry="0.5" cy="27.2" cx="24" stroke-width='0.3' fill='black'/>
           <ellipse rx="1.316" ry="1.5" cy="28.5" cx="21.8" stroke-width='0.3' fill='white'/>
           <ellipse class='eye' rx=".416" ry="0.5" cy="28.5" cx="21.7" stroke-width='0.3' fill='black'/>
          </g>

        </g>
      </g>
      <path stroke-width=".403" d="m3.1 23.1c3.1-.9 4.18 2.9 4.55 5.2.84 2.63 2.1 7.07-1.18 8.48-3.33.76-3.86-3.5-4.53-5.77-.6-2.6-1.75-6.24 1.16-7.93z" fill="#fff"/>
    </g>


  </g>
<style>
.white {
  fill: url(#b);
}
.shadow {
  -webkit-transform-origin: 22px 59px;
  -moz-transform-origin: 22px 59px;
  animation:shadow 1s cubic-bezier(0.370, 0.690, 0.450, 0.855) infinite;
}

.ball {
  -webkit-transform-origin: center;
  -moz-transform-origin: 50% 10%;
  animation:ball 1s linear infinite;
}
.robot {
  -webkit-transform-origin: 9px 26px;
  -moz-transform-origin: 9px 26px;
  animation: robot 1s cubic-bezier(.17,-0.29,.7,1.4) infinite;
}

.robot-head {
  -moz-transform-origin: 4% 8%;
  animation: robot-head 1s cubic-bezier(.17,-0.29,.7,1.4) infinite;
}

.eye {
    -webkit-animation:eye 1s cubic-bezier(.17,-0.29,.7,1.4) infinite;
    -webkit-transform-origin: center;
}
@-webkit-keyframes eye { 50% { -webkit-transform:  translate(0, 0.02em)}}
@-webkit-keyframes robot { 50% { -webkit-transform:  rotate(6deg)} 100% { -webkit-transform: rotate(0); } }
@-webkit-keyframes ball { 50% { -webkit-transform:  translate(0, -13px) }}
@-webkit-keyframes shadow {0% {-webkit-transform:  scale(0.8, 0.2) } 50% { -webkit-transform: scale(.1, 0.02) } 100% {-webkit-transform:  scale(0.8, 0.2) } }
@-moz-keyframes robot { 50% { -moz-transform:  rotate(4deg)} 100% { -moz-transform: rotate(0); } }
@-moz-keyframes robot-head { 50% { -moz-transform:  rotate(4deg)} 100% { -moz-transform: rotate(0); } }
@-moz-keyframes ball { 50% { -moz-transform:  translate(0, -13px) } }
@-moz-keyframes eye {}
@-moz-keyframes shadow {0% {-moz-transform:  scale(0.8, 0.2) } 50% { -moz-transform: scale(.1, 0.02) } 100% {-moz-transform:  scale(0.8, 0.2) } }

</style>
</svg>
