<?xml version="1.0" encoding="UTF-8" standalone="no"?>
<!-- Created with Inkscape (http://www.inkscape.org/) -->

<svg
   xmlns:dc="http://purl.org/dc/elements/1.1/"
   xmlns:cc="http://creativecommons.org/ns#"
   xmlns:rdf="http://www.w3.org/1999/02/22-rdf-syntax-ns#"
   xmlns:svg="http://www.w3.org/2000/svg"
   xmlns="http://www.w3.org/2000/svg"
   xmlns:xlink="http://www.w3.org/1999/xlink"
   xmlns:sodipodi="http://sodipodi.sourceforge.net/DTD/sodipodi-0.dtd"
   xmlns:inkscape="http://www.inkscape.org/namespaces/inkscape"
   width="33.940685mm"
   height="38.988274mm"
   viewBox="0 0 120.26227 138.14743"
   id="svg4672"
   version="1.1"
   inkscape:version="0.91 r13725"
   sodipodi:docname="find_common_blocks.svg">
  <defs
     id="defs4674" />
  <sodipodi:namedview
     id="base"
     pagecolor="#ffffff"
     bordercolor="#666666"
     borderopacity="1.0"
     inkscape:pageopacity="0.0"
     inkscape:pageshadow="2"
     inkscape:zoom="1.979899"
     inkscape:cx="-144.03852"
     inkscape:cy="124.38814"
     inkscape:document-units="px"
     inkscape:current-layer="layer1"
     showgrid="false"
     fit-margin-top="0.5"
     fit-margin-left="0.5"
     fit-margin-bottom="0.5"
     fit-margin-right="0.5"
     inkscape:window-width="2495"
     inkscape:window-height="1416"
     inkscape:window-x="65"
     inkscape:window-y="24"
     inkscape:window-maximized="1" />
  <metadata
     id="metadata4677">
    <rdf:RDF>
      <cc:Work
         rdf:about="">
        <dc:format>image/svg+xml</dc:format>
        <dc:type
           rdf:resource="http://purl.org/dc/dcmitype/StillImage" />
        <dc:title></dc:title>
      </cc:Work>
    </rdf:RDF>
  </metadata>
  <g
     inkscape:label="Layer 1"
     inkscape:groupmode="layer"
     id="layer1"
     transform="translate(-15.933012,-14.359923)">
    <use
       id="use79769-8-2"
       xlink:href="#home"
       transform="matrix(0.12554633,0,0,0.12554633,-86.752433,154.44143)"
       x="0"
       y="0"
       width="100%"
       height="100%" />
    <path
       style="fill:#000000"
       d="m 74.970511,132.7984 c -15.21215,-0.69251 -29.1416,-8.02515 -38.25283,-20.13677 -9.19344,-12.22089 -12.34727,-27.858156 -8.61736,-42.726449 3.9615,-15.791501 15.37848,-28.74937 30.58863,-34.717074 9.67483,-3.795901 20.40883,-4.500424 30.52609,-2.003592 11.351419,2.801421 21.265109,9.354256 28.300299,18.706162 5.79041,7.697202 9.14012,16.528228 9.99812,26.358405 0.15203,1.741846 0.15203,6.282295 0,8.024142 -0.72084,8.258839 -3.19091,15.782976 -7.41258,22.579596 -5.80433,9.34461 -14.3633,16.48265 -24.556819,20.48 -6.49551,2.5472 -13.6916,3.74887 -20.57355,3.43558 z m 0.46564,-3.55197 c -5.3e-4,-0.0384 -0.16896,-0.73668 -0.37437,-1.55154 -0.79065,-3.13644 -1.48961,-7.03961 -1.85664,-10.36806 -0.16548,-1.50073 -0.38061,-4.10652 -0.38061,-4.61028 0,-0.17857 -0.0296,-0.17259 -0.48985,0.0992 -1.38602,0.81847 -2.80212,1.15163 -4.58764,1.07925 -2.25488,-0.0914 -4.08664,-0.90984 -5.61942,-2.51079 -4.22569,-4.41362 -2.00748,-11.577304 4.04419,-13.060707 1.19514,-0.292954 2.83198,-0.275736 4.04672,0.04262 0.90401,0.236885 1.95701,0.709748 2.67018,1.199077 l 0.39075,0.268128 0.0607,-0.443701 c 0.71984,-5.262792 1.89614,-10.343982 3.4931,-15.088934 0.25843,-0.767833 0.46987,-1.430709 0.46987,-1.473056 0,-0.149793 -4.168,-2.035653 -6.34829,-2.872349 -3.88032,-1.489106 -8.51544,-2.75915 -11.81905,-3.238478 l -0.48621,-0.07053 0.28476,-0.419864 c 0.46011,-0.678369 0.80907,-1.428147 1.07281,-2.304925 0.33989,-1.129954 0.36327,-2.880929 0.0531,-3.973366 -0.4352,-1.53262 -1.09195,-2.628517 -2.22391,-3.710967 -1.10616,-1.057764 -2.17884,-1.658832 -3.67883,-2.061387 -1.09454,-0.293739 -3.05198,-0.294399 -4.1458,-0.0011 -2.32715,0.623395 -4.29348,2.200495 -5.3128,4.261137 -0.54653,1.104899 -0.70648,1.735838 -0.77007,3.037841 -0.0801,1.639795 0.29764,3.160298 1.09909,4.424054 0.15482,0.244115 0.2642,0.46113 0.24308,0.482259 -0.0211,0.02113 -0.62159,0.12357 -1.33436,0.22765 -4.23998,0.619163 -9.37709,2.02251 -13.09892,3.578327 l -0.69978,0.292534 -0.0286,1.39634 c -0.16247,7.931737 2.05691,16.508839 6.11945,23.649367 2.09397,3.68048 4.51773,6.83754 7.66762,9.98742 3.08438,3.08438 5.8637,5.23851 9.56755,7.4154 6.10061,3.58555 13.44685,5.83399 20.5382,6.28603 0.66091,0.0421 1.25414,0.0827 1.31829,0.0902 0.0641,0.007 0.11623,-0.0179 0.11573,-0.0565 z m 29.531629,-27.8201 c 5.28466,-1.39773 7.69565,-7.255947 4.86361,-11.817605 l -0.23594,-0.380017 1.41832,-0.210347 c 3.78993,-0.562079 7.57246,-1.536931 11.40187,-2.938554 l 1.58616,-0.580557 0.0578,-0.694333 c 0.0953,-1.144647 0.0877,-3.766015 -0.0157,-5.406188 -0.73833,-11.718574 -5.68857,-22.52712 -14.06562,-30.711504 -6.48927,-6.340022 -14.309669,-10.521677 -23.251419,-12.432805 -2.05808,-0.43988 -5.54878,-0.889362 -6.93781,-0.89337 -0.57195,-0.0016 -0.63298,0.01543 -0.5756,0.161441 0.0353,0.08976 0.26848,0.961034 0.51818,1.93606 1.18617,4.631893 1.96888,9.458737 2.25437,13.902301 0.0593,0.923718 0.11778,1.693117 0.12987,1.709798 0.0121,0.01669 0.18327,-0.07581 0.38041,-0.205397 1.78865,-1.176187 4.61934,-1.501628 6.8431,-0.78674 3.42559,1.101252 5.63297,4.082773 5.6166,7.58641 -0.0171,3.67837 -2.52843,6.716664 -6.3409,7.671679 -0.93945,0.235325 -2.91224,0.206132 -3.89425,-0.05761 -0.86822,-0.233193 -2.0336,-0.759781 -2.64765,-1.196355 l -0.42987,-0.305622 -0.26179,1.795773 c -0.48069,3.297307 -1.3532,7.316688 -2.2984,10.588111 -0.33722,1.167132 -1.27998,4.104166 -1.45271,4.52571 -0.0673,0.164156 0.1875,0.303094 2.56517,1.398943 4.58405,2.112739 10.16381,3.882629 14.64874,4.64654 0.64146,0.109267 1.21873,0.214938 1.28281,0.234843 0.0774,0.02406 -0.006,0.225937 -0.24905,0.601776 -1.43167,2.215084 -1.63171,5.102556 -0.51657,7.456231 1.09086,2.302401 3.17101,3.933998 5.734169,4.497698 1.05247,0.23145 2.79699,0.18807 3.87213,-0.0963 z"
       id="path89139"
       inkscape:connector-curvature="0" />
  </g>
</svg>
