<?xml version="1.0" encoding="UTF-8" standalone="no"?>
<svg
   xmlns:dc="http://purl.org/dc/elements/1.1/"
   xmlns:cc="http://creativecommons.org/ns#"
   xmlns:rdf="http://www.w3.org/1999/02/22-rdf-syntax-ns#"
   xmlns:svg="http://www.w3.org/2000/svg"
   xmlns="http://www.w3.org/2000/svg"
   xmlns:sodipodi="http://sodipodi.sourceforge.net/DTD/sodipodi-0.dtd"
   xmlns:inkscape="http://www.inkscape.org/namespaces/inkscape"
   height="1000"
   width="1000"
   id="svg2"
   version="1.1"
   inkscape:version="0.91 r"
   sodipodi:docname="pencil-icon.svg">
  <metadata
     id="metadata10">
    <rdf:RDF>
      <cc:Work
         rdf:about="">
        <dc:format>image/svg+xml</dc:format>
        <dc:type
           rdf:resource="http://purl.org/dc/dcmitype/StillImage" />
      </cc:Work>
    </rdf:RDF>
  </metadata>
  <defs
     id="defs8" />
  <sodipodi:namedview
     pagecolor="#ffffff"
     bordercolor="#666666"
     borderopacity="1"
     objecttolerance="10"
     gridtolerance="10"
     guidetolerance="10"
     inkscape:pageopacity="0"
     inkscape:pageshadow="2"
     inkscape:window-width="1645"
     inkscape:window-height="896"
     id="namedview6"
     showgrid="false"
     inkscape:zoom="0.236"
     inkscape:cx="500"
     inkscape:cy="500"
     inkscape:window-x="75"
     inkscape:window-y="34"
     inkscape:window-maximized="0"
     inkscape:current-layer="svg2" />
  <path
     d="m 33.898305,864.14061 q 0,-3.64108 0.910737,-7.28217 0.910738,-3.64108 0.910738,-7.28217 0,-3.64108 0.910737,-7.28217 0.910738,-3.64108 0.910738,-5.46162 l 0,-1.82055 69.180615,-249.41433 q 9.10271,-29.12868 29.12868,-49.15465 l 302.21007,-302.21006 0,-1.82054 1.82054,-1.82055 140.18178,-142.002317 q 56.43682,-54.616277 136.54069,-54.616277 98.3093,0 172.95154,74.642244 69.18062,69.18062 75.55299,159.29794 6.37236,90.11732 -53.70648,150.19523 L 467.1893,865.96209 q -21.84651,21.84651 -50.97519,29.12868 l -245.77325,65.53953 -2.73035,0.91074 q -2.73034,0.91074 -6.37236,1.82054 -3.64202,0.90981 -8.19291,0.91074 -4.55089,9.3e-4 -9.10271,0.91074 -4.55182,0.9098 -8.19291,0.91073 -41.872478,0 -71.911897,-30.03848 -30.039418,-30.03849 -30.038486,-71.9119 z m 58.257362,0 q 0,18.20543 12.743793,30.94923 12.7438,12.7438 30.94923,12.7438 5.46163,0 20.02597,-3.64109 l 107.41201,-29.12868 q 3.64108,-54.61628 -40.05194,-98.3093 -41.87248,-41.87248 -98.3093,-40.05194 l -29.128678,111.0531 q -3.641085,12.7438 -3.641085,16.38488 z M 134.02815,707.57395 q 61.89844,1.82055 109.23255,49.15465 47.33411,47.33411 49.15465,111.0531 l 107.41201,-27.30814 10.92326,-5.46163 q 38.23139,-43.69302 30.94922,-107.41201 -7.28217,-63.71899 -56.43682,-112.87364 -47.33411,-45.51356 -107.41201,-54.61627 -60.07791,-9.10272 -103.77093,21.84651 -7.28217,9.10271 -10.92325,20.02597 z M 256.0045,498.21156 q 41.87248,1.82054 83.74496,18.20542 L 614.65138,241.51506 q -81.92441,-20.02597 -134.72015,30.94922 z m 111.05309,32.76977 q 34.59031,18.20542 60.07791,41.87247 20.02597,20.02597 38.23139,50.9752 L 742.08936,345.28598 Q 727.52502,316.1573 705.67851,294.31079 678.37037,267.00265 643.78006,252.43831 Z m 112.87364,120.1558 q 16.38489,38.2314 20.02597,76.46279 l 0,21.84651 225.74728,-227.56782 0,-1.82054 q 56.43682,-56.43682 29.12868,-145.6434 z m 94.66822,-473.34106 q 98.30929,0 172.95154,74.64224 65.53953,67.36008 72.8217,154.74612 l 0,20.02597 49.15465,-50.97519 q 41.87248,-41.87248 38.23139,-103.77093 -5.46162,-69.18062 -58.25736,-121.97635 -58.25736,-58.257362 -132.8996,-58.257362 -56.43682,0 -94.66822,38.231392 z"
     id="path4"
     inkscape:connector-curvature="0" />
</svg>
