<?xml version="1.0" encoding="UTF-8" standalone="no"?>
<!-- Created with Inkscape (http://www.inkscape.org/) -->

<svg
   xmlns:dc="http://purl.org/dc/elements/1.1/"
   xmlns:cc="http://creativecommons.org/ns#"
   xmlns:rdf="http://www.w3.org/1999/02/22-rdf-syntax-ns#"
   xmlns:svg="http://www.w3.org/2000/svg"
   xmlns="http://www.w3.org/2000/svg"
   xmlns:xlink="http://www.w3.org/1999/xlink"
   xmlns:sodipodi="http://sodipodi.sourceforge.net/DTD/sodipodi-0.dtd"
   xmlns:inkscape="http://www.inkscape.org/namespaces/inkscape"
   width="33.940685mm"
   height="38.988274mm"
   viewBox="0 0 120.26227 138.14743"
   id="svg4672"
   version="1.1"
   inkscape:version="0.92.3 (2405546, 2018-03-11)"
   sodipodi:docname="rearray_plate.svg">
  <defs
     id="defs4674" />
  <sodipodi:namedview
     id="base"
     pagecolor="#ffffff"
     bordercolor="#666666"
     borderopacity="1.0"
     inkscape:pageopacity="0.0"
     inkscape:pageshadow="2"
     inkscape:zoom="2.8"
     inkscape:cx="8.5232478"
     inkscape:cy="-31.016889"
     inkscape:document-units="px"
     inkscape:current-layer="g4567"
     showgrid="false"
     fit-margin-top="0.5"
     fit-margin-left="0.5"
     fit-margin-bottom="0.5"
     fit-margin-right="0.5"
     inkscape:window-width="1887"
     inkscape:window-height="2099"
     inkscape:window-x="67"
     inkscape:window-y="33"
     inkscape:window-maximized="0" />
  <metadata
     id="metadata4677">
    <rdf:RDF>
      <cc:Work
         rdf:about="">
        <dc:format>image/svg+xml</dc:format>
        <dc:type
           rdf:resource="http://purl.org/dc/dcmitype/StillImage" />
        <dc:title></dc:title>
      </cc:Work>
    </rdf:RDF>
  </metadata>
  <g
     inkscape:label="Layer 1"
     inkscape:groupmode="layer"
     id="layer1"
     transform="translate(-15.933012,-14.359923)">
    <g
       id="g4567"
       transform="matrix(0.12554633,0,0,0.12554633,-229.51885,53.565907)">
      <ellipse
         ry="355.19083"
         rx="352.2309"
         cy="72.840645"
         cx="992.43427"
         id="path4565"
         style="opacity:1;fill:#ffffff;fill-opacity:1;stroke:none;stroke-width:0.127;stroke-linecap:round;stroke-linejoin:round;stroke-miterlimit:4;stroke-dasharray:none;stroke-dashoffset:0;stroke-opacity:1" />
      <use
         height="100%"
         width="100%"
         y="0"
         x="0"
         transform="translate(1954.701,91.9013)"
         xlink:href="#home"
         id="use79769-8" />
      <g
         id="g87174"
         transform="translate(0,-2.57193)"
         style="stroke-width:13.44125333;stroke-miterlimit:4;stroke-dasharray:none;stroke:#000000;stroke-opacity:1">
        <path
           id="use84067-2-1-8-8"
           d="m 2065.5231,194.0498 a 42.969325,42.969325 0 0 1 -42.9692,42.96932 42.969325,42.969325 0 0 1 -42.9694,-42.96932 42.969325,42.969325 0 0 1 42.9694,-42.9694 42.969325,42.969325 0 0 1 42.9692,42.9694 z"
           style="opacity:1;fill:#fdfdfd;fill-opacity:1;stroke:#000000;stroke-width:13.44125333;stroke-linecap:round;stroke-linejoin:round;stroke-miterlimit:4;stroke-dasharray:none;stroke-dashoffset:0;stroke-opacity:1"
           inkscape:connector-curvature="0" />
        <path
           id="use84069-7-0-2-7"
           d="m 2065.5231,297.17637 a 42.969325,42.969325 0 0 1 -42.9692,42.96933 42.969325,42.969325 0 0 1 -42.9694,-42.96933 42.969325,42.969325 0 0 1 42.9694,-42.96932 42.969325,42.969325 0 0 1 42.9692,42.96932 z"
           style="opacity:1;fill:#000000;fill-opacity:1;stroke:#000000;stroke-width:13.44125333;stroke-linecap:round;stroke-linejoin:round;stroke-miterlimit:4;stroke-dasharray:none;stroke-dashoffset:0;stroke-opacity:1"
           inkscape:connector-curvature="0" />
        <path
           id="use84083-2-0-9-9"
           d="m 2168.6495,-12.202687 a 42.969325,42.969325 0 0 1 -42.9692,42.969251 42.969325,42.969325 0 0 1 -42.9693,-42.969251 42.969325,42.969325 0 0 1 42.9693,-42.96939 42.969325,42.969325 0 0 1 42.9692,42.96939 z"
           style="opacity:1;fill:#000000;fill-opacity:1;stroke:#000000;stroke-width:13.44125333;stroke-linecap:round;stroke-linejoin:round;stroke-miterlimit:4;stroke-dasharray:none;stroke-dashoffset:0;stroke-opacity:1"
           inkscape:connector-curvature="0" />
        <path
           id="use84085-6-9-9-6"
           d="m 2168.6495,90.923806 a 42.969325,42.969325 0 0 1 -42.9692,42.969394 42.969325,42.969325 0 0 1 -42.9693,-42.969394 42.969325,42.969325 0 0 1 42.9693,-42.96939 42.969325,42.969325 0 0 1 42.9692,42.96939 z"
           style="opacity:1;fill:#fdfdfd;fill-opacity:1;stroke:#000000;stroke-width:13.44125333;stroke-linecap:round;stroke-linejoin:round;stroke-miterlimit:4;stroke-dasharray:none;stroke-dashoffset:0;stroke-opacity:1"
           inkscape:connector-curvature="0" />
        <path
           id="use84087-1-1-6-0"
           d="m 2168.6495,194.0498 a 42.969325,42.969325 0 0 1 -42.9692,42.96932 42.969325,42.969325 0 0 1 -42.9693,-42.96932 42.969325,42.969325 0 0 1 42.9693,-42.9694 42.969325,42.969325 0 0 1 42.9692,42.9694 z"
           style="opacity:1;fill:#000000;fill-opacity:1;stroke:#000000;stroke-width:13.44125333;stroke-linecap:round;stroke-linejoin:round;stroke-miterlimit:4;stroke-dasharray:none;stroke-dashoffset:0;stroke-opacity:1"
           inkscape:connector-curvature="0" />
        <path
           id="use84089-8-7-0-4"
           d="m 2168.6495,297.17637 a 42.969325,42.969325 0 0 1 -42.9692,42.96933 42.969325,42.969325 0 0 1 -42.9693,-42.96933 42.969325,42.969325 0 0 1 42.9693,-42.96932 42.969325,42.969325 0 0 1 42.9692,42.96932 z"
           style="opacity:1;fill:#000000;fill-opacity:1;stroke:#000000;stroke-width:13.44125333;stroke-linecap:round;stroke-linejoin:round;stroke-miterlimit:4;stroke-dasharray:none;stroke-dashoffset:0;stroke-opacity:1"
           inkscape:connector-curvature="0" />
        <path
           id="use84091-7-7-2-1"
           d="m 2168.6495,400.30244 a 42.969325,42.969325 0 0 1 -42.9692,42.96939 42.969325,42.969325 0 0 1 -42.9693,-42.96939 42.969325,42.969325 0 0 1 42.9693,-42.96939 42.969325,42.969325 0 0 1 42.9692,42.96939 z"
           style="opacity:1;fill:#fdfdfd;fill-opacity:1;stroke:#000000;stroke-width:13.44125333;stroke-linecap:round;stroke-linejoin:round;stroke-miterlimit:4;stroke-dasharray:none;stroke-dashoffset:0;stroke-opacity:1"
           inkscape:connector-curvature="0" />
        <path
           id="use84093-9-1-7-0"
           d="m 2168.6495,503.42937 a 42.969325,42.969325 0 0 1 -42.9692,42.96934 42.969325,42.969325 0 0 1 -42.9693,-42.96934 42.969325,42.969325 0 0 1 42.9693,-42.96939 42.969325,42.969325 0 0 1 42.9692,42.96939 z"
           style="opacity:1;fill:#000000;fill-opacity:1;stroke:#000000;stroke-width:13.44125333;stroke-linecap:round;stroke-linejoin:round;stroke-miterlimit:4;stroke-dasharray:none;stroke-dashoffset:0;stroke-opacity:1"
           inkscape:connector-curvature="0" />
        <path
           id="use84101-3-7-6-4"
           d="m 2271.7762,-115.32874 a 42.969325,42.969325 0 0 1 -42.9694,42.969392 42.969325,42.969325 0 0 1 -42.9694,-42.969392 42.969325,42.969325 0 0 1 42.9694,-42.96926 42.969325,42.969325 0 0 1 42.9694,42.96926 z"
           style="opacity:1;fill:#fdfdfd;fill-opacity:1;stroke:#000000;stroke-width:13.44125333;stroke-linecap:round;stroke-linejoin:round;stroke-miterlimit:4;stroke-dasharray:none;stroke-dashoffset:0;stroke-opacity:1"
           inkscape:connector-curvature="0" />
        <path
           id="use84103-7-7-1-8"
           d="m 2271.7762,-12.202687 a 42.969325,42.969325 0 0 1 -42.9694,42.969251 42.969325,42.969325 0 0 1 -42.9694,-42.969251 42.969325,42.969325 0 0 1 42.9694,-42.96939 42.969325,42.969325 0 0 1 42.9694,42.96939 z"
           style="opacity:1;fill:#fdfdfd;fill-opacity:1;stroke:#000000;stroke-width:13.44125333;stroke-linecap:round;stroke-linejoin:round;stroke-miterlimit:4;stroke-dasharray:none;stroke-dashoffset:0;stroke-opacity:1"
           inkscape:connector-curvature="0" />
        <path
           id="use84105-5-6-3-7"
           d="m 2271.7762,90.923806 a 42.969325,42.969325 0 0 1 -42.9694,42.969394 42.969325,42.969325 0 0 1 -42.9694,-42.969394 42.969325,42.969325 0 0 1 42.9694,-42.96939 42.969325,42.969325 0 0 1 42.9694,42.96939 z"
           style="opacity:1;fill:#000000;fill-opacity:1;stroke:#000000;stroke-width:13.44125333;stroke-linecap:round;stroke-linejoin:round;stroke-miterlimit:4;stroke-dasharray:none;stroke-dashoffset:0;stroke-opacity:1"
           inkscape:connector-curvature="0" />
        <path
           id="use84107-9-7-2-0"
           d="m 2271.7762,194.0498 a 42.969325,42.969325 0 0 1 -42.9694,42.96932 42.969325,42.969325 0 0 1 -42.9694,-42.96932 42.969325,42.969325 0 0 1 42.9694,-42.9694 42.969325,42.969325 0 0 1 42.9694,42.9694 z"
           style="opacity:1;fill:#fdfdfd;fill-opacity:1;stroke:#000000;stroke-width:13.44125333;stroke-linecap:round;stroke-linejoin:round;stroke-miterlimit:4;stroke-dasharray:none;stroke-dashoffset:0;stroke-opacity:1"
           inkscape:connector-curvature="0" />
        <path
           id="use84109-2-3-1-8"
           d="m 2271.7762,297.17637 a 42.969325,42.969325 0 0 1 -42.9694,42.96933 42.969325,42.969325 0 0 1 -42.9694,-42.96933 42.969325,42.969325 0 0 1 42.9694,-42.96932 42.969325,42.969325 0 0 1 42.9694,42.96932 z"
           style="opacity:1;fill:#000000;fill-opacity:1;stroke:#000000;stroke-width:13.44125333;stroke-linecap:round;stroke-linejoin:round;stroke-miterlimit:4;stroke-dasharray:none;stroke-dashoffset:0;stroke-opacity:1"
           inkscape:connector-curvature="0" />
        <path
           id="use84111-2-6-5-6"
           d="m 2271.7762,400.30244 a 42.969325,42.969325 0 0 1 -42.9694,42.96939 42.969325,42.969325 0 0 1 -42.9694,-42.96939 42.969325,42.969325 0 0 1 42.9694,-42.96939 42.969325,42.969325 0 0 1 42.9694,42.96939 z"
           style="opacity:1;fill:#fdfdfd;fill-opacity:1;stroke:#000000;stroke-width:13.44125333;stroke-linecap:round;stroke-linejoin:round;stroke-miterlimit:4;stroke-dasharray:none;stroke-dashoffset:0;stroke-opacity:1"
           inkscape:connector-curvature="0" />
        <path
           id="use84113-8-5-9-2"
           d="m 2271.7762,503.42937 a 42.969325,42.969325 0 0 1 -42.9694,42.96934 42.969325,42.969325 0 0 1 -42.9694,-42.96934 42.969325,42.969325 0 0 1 42.9694,-42.96939 42.969325,42.969325 0 0 1 42.9694,42.96939 z"
           style="opacity:1;fill:#000000;fill-opacity:1;stroke:#000000;stroke-width:13.44125333;stroke-linecap:round;stroke-linejoin:round;stroke-miterlimit:4;stroke-dasharray:none;stroke-dashoffset:0;stroke-opacity:1"
           inkscape:connector-curvature="0" />
        <path
           id="use84115-9-6-9-4"
           d="m 2271.7762,606.5555 a 42.969325,42.969325 0 0 1 -42.9694,42.96939 42.969325,42.969325 0 0 1 -42.9694,-42.96939 42.969325,42.969325 0 0 1 42.9694,-42.96939 42.969325,42.969325 0 0 1 42.9694,42.96939 z"
           style="opacity:1;fill:#fdfdfd;fill-opacity:1;stroke:#000000;stroke-width:13.44125333;stroke-linecap:round;stroke-linejoin:round;stroke-miterlimit:4;stroke-dasharray:none;stroke-dashoffset:0;stroke-opacity:1"
           inkscape:connector-curvature="0" />
        <path
           id="use84121-6-4-1-7"
           d="m 2374.9022,-115.32874 a 42.969325,42.969325 0 0 1 -42.9694,42.969392 42.969325,42.969325 0 0 1 -42.9692,-42.969392 42.969325,42.969325 0 0 1 42.9692,-42.96926 42.969325,42.969325 0 0 1 42.9694,42.96926 z"
           style="opacity:1;fill:#000000;fill-opacity:1;stroke:#000000;stroke-width:13.44125333;stroke-linecap:round;stroke-linejoin:round;stroke-miterlimit:4;stroke-dasharray:none;stroke-dashoffset:0;stroke-opacity:1"
           inkscape:connector-curvature="0" />
        <path
           id="use84123-1-8-4-9"
           d="m 2374.9022,-12.202687 a 42.969325,42.969325 0 0 1 -42.9694,42.969251 42.969325,42.969325 0 0 1 -42.9692,-42.969251 42.969325,42.969325 0 0 1 42.9692,-42.96939 42.969325,42.969325 0 0 1 42.9694,42.96939 z"
           style="opacity:1;fill:#000000;fill-opacity:1;stroke:#000000;stroke-width:13.44125333;stroke-linecap:round;stroke-linejoin:round;stroke-miterlimit:4;stroke-dasharray:none;stroke-dashoffset:0;stroke-opacity:1"
           inkscape:connector-curvature="0" />
        <path
           id="use84125-2-1-9-3"
           d="m 2374.9022,90.923806 a 42.969325,42.969325 0 0 1 -42.9694,42.969394 42.969325,42.969325 0 0 1 -42.9692,-42.969394 42.969325,42.969325 0 0 1 42.9692,-42.96939 42.969325,42.969325 0 0 1 42.9694,42.96939 z"
           style="opacity:1;fill:#000000;fill-opacity:1;stroke:#000000;stroke-width:13.44125333;stroke-linecap:round;stroke-linejoin:round;stroke-miterlimit:4;stroke-dasharray:none;stroke-dashoffset:0;stroke-opacity:1"
           inkscape:connector-curvature="0" />
        <path
           id="use84127-9-2-1-9"
           d="m 2374.9022,194.0498 a 42.969325,42.969325 0 0 1 -42.9694,42.96932 42.969325,42.969325 0 0 1 -42.9692,-42.96932 42.969325,42.969325 0 0 1 42.9692,-42.9694 42.969325,42.969325 0 0 1 42.9694,42.9694 z"
           style="opacity:1;fill:#fdfdfd;fill-opacity:1;stroke:#000000;stroke-width:13.44125333;stroke-linecap:round;stroke-linejoin:round;stroke-miterlimit:4;stroke-dasharray:none;stroke-dashoffset:0;stroke-opacity:1"
           inkscape:connector-curvature="0" />
        <path
           id="use84129-3-9-07-2"
           d="m 2374.9022,297.17637 a 42.969325,42.969325 0 0 1 -42.9694,42.96933 42.969325,42.969325 0 0 1 -42.9692,-42.96933 42.969325,42.969325 0 0 1 42.9692,-42.96932 42.969325,42.969325 0 0 1 42.9694,42.96932 z"
           style="opacity:1;fill:#000000;fill-opacity:1;stroke:#000000;stroke-width:13.44125333;stroke-linecap:round;stroke-linejoin:round;stroke-miterlimit:4;stroke-dasharray:none;stroke-dashoffset:0;stroke-opacity:1"
           inkscape:connector-curvature="0" />
        <path
           id="use84131-1-3-5-8"
           d="m 2374.9022,400.30244 a 42.969325,42.969325 0 0 1 -42.9694,42.96939 42.969325,42.969325 0 0 1 -42.9692,-42.96939 42.969325,42.969325 0 0 1 42.9692,-42.96939 42.969325,42.969325 0 0 1 42.9694,42.96939 z"
           style="opacity:1;fill:#000000;fill-opacity:1;stroke:#000000;stroke-width:13.44125333;stroke-linecap:round;stroke-linejoin:round;stroke-miterlimit:4;stroke-dasharray:none;stroke-dashoffset:0;stroke-opacity:1"
           inkscape:connector-curvature="0" />
        <path
           id="use84133-9-9-8-3"
           d="m 2374.9022,503.42937 a 42.969325,42.969325 0 0 1 -42.9694,42.96934 42.969325,42.969325 0 0 1 -42.9692,-42.96934 42.969325,42.969325 0 0 1 42.9692,-42.96939 42.969325,42.969325 0 0 1 42.9694,42.96939 z"
           style="opacity:1;fill:#fdfdfd;fill-opacity:1;stroke:#000000;stroke-width:13.44125333;stroke-linecap:round;stroke-linejoin:round;stroke-miterlimit:4;stroke-dasharray:none;stroke-dashoffset:0;stroke-opacity:1"
           inkscape:connector-curvature="0" />
        <path
           id="use84135-4-0-7-0"
           d="m 2374.9022,606.5555 a 42.969325,42.969325 0 0 1 -42.9694,42.96939 42.969325,42.969325 0 0 1 -42.9692,-42.96939 42.969325,42.969325 0 0 1 42.9692,-42.96939 42.969325,42.969325 0 0 1 42.9694,42.96939 z"
           style="opacity:1;fill:#000000;fill-opacity:1;stroke:#000000;stroke-width:13.44125333;stroke-linecap:round;stroke-linejoin:round;stroke-miterlimit:4;stroke-dasharray:none;stroke-dashoffset:0;stroke-opacity:1"
           inkscape:connector-curvature="0" />
      </g>
      <g
         id="g87200"
         transform="translate(0,-2.571945)"
         style="stroke-width:13.44125333;stroke-miterlimit:4;stroke-dasharray:none;stroke:#000000;stroke-opacity:1">
        <path
           id="use84181-9-4-8-1"
           d="m 2578.9856,-118.9001 a 43.394484,43.394484 0 0 1 -43.3946,43.394529 43.394484,43.394484 0 0 1 -43.3945,-43.394529 43.394484,43.394484 0 0 1 43.3945,-43.39439 43.394484,43.394484 0 0 1 43.3946,43.39439 z"
           style="opacity:1;fill:#000000;fill-opacity:1;stroke:#000000;stroke-width:13.44125333;stroke-linecap:round;stroke-linejoin:round;stroke-miterlimit:4;stroke-dasharray:none;stroke-dashoffset:0;stroke-opacity:1"
           inkscape:connector-curvature="0" />
        <path
           id="use84183-3-4-3-7"
           d="m 2578.9856,-14.753576 a 43.394484,43.394484 0 0 1 -43.3946,43.394316 43.394484,43.394484 0 0 1 -43.3945,-43.394316 43.394484,43.394484 0 0 1 43.3945,-43.394598 43.394484,43.394484 0 0 1 43.3946,43.394598 z"
           style="opacity:1;fill:#000000;fill-opacity:1;stroke:#000000;stroke-width:13.44125333;stroke-linecap:round;stroke-linejoin:round;stroke-miterlimit:4;stroke-dasharray:none;stroke-dashoffset:0;stroke-opacity:1"
           inkscape:connector-curvature="0" />
        <path
           id="use84185-7-4-8-8"
           d="m 2578.9856,89.393316 a 43.394484,43.394484 0 0 1 -43.3946,43.394464 43.394484,43.394484 0 0 1 -43.3945,-43.394464 43.394484,43.394484 0 0 1 43.3945,-43.394677 43.394484,43.394484 0 0 1 43.3946,43.394677 z"
           style="opacity:1;fill:#000000;fill-opacity:1;stroke:#000000;stroke-width:13.44125333;stroke-linecap:round;stroke-linejoin:round;stroke-miterlimit:4;stroke-dasharray:none;stroke-dashoffset:0;stroke-opacity:1"
           inkscape:connector-curvature="0" />
        <path
           id="use84187-4-7-04-9"
           d="m 2578.9856,193.53963 a 43.394484,43.394484 0 0 1 -43.3946,43.39446 43.394484,43.394484 0 0 1 -43.3945,-43.39446 43.394484,43.394484 0 0 1 43.3945,-43.39453 43.394484,43.394484 0 0 1 43.3946,43.39453 z"
           style="opacity:1;fill:#000000;fill-opacity:1;stroke:#000000;stroke-width:13.44125333;stroke-linecap:round;stroke-linejoin:round;stroke-miterlimit:4;stroke-dasharray:none;stroke-dashoffset:0;stroke-opacity:1"
           inkscape:connector-curvature="0" />
        <path
           id="use84189-5-6-0-1"
           d="m 2578.9856,297.68653 a 43.394484,43.394484 0 0 1 -43.3946,43.39446 43.394484,43.394484 0 0 1 -43.3945,-43.39446 43.394484,43.394484 0 0 1 43.3945,-43.39446 43.394484,43.394484 0 0 1 43.3946,43.39446 z"
           style="opacity:1;fill:#000000;fill-opacity:1;stroke:#000000;stroke-width:13.44125333;stroke-linecap:round;stroke-linejoin:round;stroke-miterlimit:4;stroke-dasharray:none;stroke-dashoffset:0;stroke-opacity:1"
           inkscape:connector-curvature="0" />
        <path
           id="use84191-2-3-9-5"
           d="m 2578.9856,401.83302 a 43.394484,43.394484 0 0 1 -43.3946,43.3945 43.394484,43.394484 0 0 1 -43.3945,-43.3945 43.394484,43.394484 0 0 1 43.3945,-43.39461 43.394484,43.394484 0 0 1 43.3946,43.39461 z"
           style="opacity:1;fill:#ffffff;fill-opacity:1;stroke:#000000;stroke-width:13.44125333;stroke-linecap:round;stroke-linejoin:round;stroke-miterlimit:4;stroke-dasharray:none;stroke-dashoffset:0;stroke-opacity:1"
           inkscape:connector-curvature="0" />
        <path
           id="use84193-5-1-1-4"
           d="m 2578.9856,505.98034 a 43.394484,43.394484 0 0 1 -43.3946,43.39449 43.394484,43.394484 0 0 1 -43.3945,-43.39449 43.394484,43.394484 0 0 1 43.3945,-43.39455 43.394484,43.394484 0 0 1 43.3946,43.39455 z"
           style="opacity:1;fill:#ffffff;fill-opacity:1;stroke:#000000;stroke-width:13.44125333;stroke-linecap:round;stroke-linejoin:round;stroke-miterlimit:4;stroke-dasharray:none;stroke-dashoffset:0;stroke-opacity:1"
           inkscape:connector-curvature="0" />
        <path
           id="use84195-4-7-9-9"
           d="m 2578.9856,610.12674 a 43.394484,43.394484 0 0 1 -43.3946,43.39467 43.394484,43.394484 0 0 1 -43.3945,-43.39467 43.394484,43.394484 0 0 1 43.3945,-43.39444 43.394484,43.394484 0 0 1 43.3946,43.39444 z"
           style="opacity:1;fill:#ffffff;fill-opacity:1;stroke:#000000;stroke-width:13.44125333;stroke-linecap:round;stroke-linejoin:round;stroke-miterlimit:4;stroke-dasharray:none;stroke-dashoffset:0;stroke-opacity:1"
           inkscape:connector-curvature="0" />
        <path
           id="use84201-4-6-6-2"
           d="m 2683.1325,-118.9001 a 43.394484,43.394484 0 0 1 -43.3946,43.394529 43.394484,43.394484 0 0 1 -43.3944,-43.394529 43.394484,43.394484 0 0 1 43.3944,-43.39439 43.394484,43.394484 0 0 1 43.3946,43.39439 z"
           style="opacity:1;fill:#000000;fill-opacity:1;stroke:#000000;stroke-width:13.44125333;stroke-linecap:round;stroke-linejoin:round;stroke-miterlimit:4;stroke-dasharray:none;stroke-dashoffset:0;stroke-opacity:1"
           inkscape:connector-curvature="0" />
        <path
           id="use84203-3-2-2-5"
           d="m 2683.1325,-14.753576 a 43.394484,43.394484 0 0 1 -43.3946,43.394316 43.394484,43.394484 0 0 1 -43.3944,-43.394316 43.394484,43.394484 0 0 1 43.3944,-43.394598 43.394484,43.394484 0 0 1 43.3946,43.394598 z"
           style="opacity:1;fill:#000000;fill-opacity:1;stroke:#000000;stroke-width:13.44125333;stroke-linecap:round;stroke-linejoin:round;stroke-miterlimit:4;stroke-dasharray:none;stroke-dashoffset:0;stroke-opacity:1"
           inkscape:connector-curvature="0" />
        <path
           id="use84205-0-1-5-7"
           d="m 2683.1325,89.393316 a 43.394484,43.394484 0 0 1 -43.3946,43.394464 43.394484,43.394484 0 0 1 -43.3944,-43.394464 43.394484,43.394484 0 0 1 43.3944,-43.394677 43.394484,43.394484 0 0 1 43.3946,43.394677 z"
           style="opacity:1;fill:#000000;fill-opacity:1;stroke:#000000;stroke-width:13.44125333;stroke-linecap:round;stroke-linejoin:round;stroke-miterlimit:4;stroke-dasharray:none;stroke-dashoffset:0;stroke-opacity:1"
           inkscape:connector-curvature="0" />
        <path
           id="use84207-7-7-4-4"
           d="m 2683.1325,193.53963 a 43.394484,43.394484 0 0 1 -43.3946,43.39446 43.394484,43.394484 0 0 1 -43.3944,-43.39446 43.394484,43.394484 0 0 1 43.3944,-43.39453 43.394484,43.394484 0 0 1 43.3946,43.39453 z"
           style="opacity:1;fill:#000000;fill-opacity:1;stroke:#000000;stroke-width:13.44125333;stroke-linecap:round;stroke-linejoin:round;stroke-miterlimit:4;stroke-dasharray:none;stroke-dashoffset:0;stroke-opacity:1"
           inkscape:connector-curvature="0" />
        <path
           id="use84209-8-8-4-9"
           d="m 2683.1325,297.68653 a 43.394484,43.394484 0 0 1 -43.3946,43.39446 43.394484,43.394484 0 0 1 -43.3944,-43.39446 43.394484,43.394484 0 0 1 43.3944,-43.39446 43.394484,43.394484 0 0 1 43.3946,43.39446 z"
           style="opacity:1;fill:#000000;fill-opacity:1;stroke:#000000;stroke-width:13.44125333;stroke-linecap:round;stroke-linejoin:round;stroke-miterlimit:4;stroke-dasharray:none;stroke-dashoffset:0;stroke-opacity:1"
           inkscape:connector-curvature="0" />
        <path
           id="use84211-6-5-9-9"
           d="m 2683.1325,401.83302 a 43.394484,43.394484 0 0 1 -43.3946,43.3945 43.394484,43.394484 0 0 1 -43.3944,-43.3945 43.394484,43.394484 0 0 1 43.3944,-43.39461 43.394484,43.394484 0 0 1 43.3946,43.39461 z"
           style="opacity:1;fill:#ffffff;fill-opacity:1;stroke:#000000;stroke-width:13.44125333;stroke-linecap:round;stroke-linejoin:round;stroke-miterlimit:4;stroke-dasharray:none;stroke-dashoffset:0;stroke-opacity:1"
           inkscape:connector-curvature="0" />
        <path
           id="use84213-8-7-93-4"
           d="m 2683.1325,505.98034 a 43.394484,43.394484 0 0 1 -43.3946,43.39449 43.394484,43.394484 0 0 1 -43.3944,-43.39449 43.394484,43.394484 0 0 1 43.3944,-43.39455 43.394484,43.394484 0 0 1 43.3946,43.39455 z"
           style="opacity:1;fill:#ffffff;fill-opacity:1;stroke:#000000;stroke-width:13.44125333;stroke-linecap:round;stroke-linejoin:round;stroke-miterlimit:4;stroke-dasharray:none;stroke-dashoffset:0;stroke-opacity:1"
           inkscape:connector-curvature="0" />
        <path
           id="use84215-8-4-60-5"
           d="m 2683.1325,610.12674 a 43.394484,43.394484 0 0 1 -43.3946,43.39467 43.394484,43.394484 0 0 1 -43.3944,-43.39467 43.394484,43.394484 0 0 1 43.3944,-43.39444 43.394484,43.394484 0 0 1 43.3946,43.39444 z"
           style="opacity:1;fill:#ffffff;fill-opacity:1;stroke:#000000;stroke-width:13.44125333;stroke-linecap:round;stroke-linejoin:round;stroke-miterlimit:4;stroke-dasharray:none;stroke-dashoffset:0;stroke-opacity:1"
           inkscape:connector-curvature="0" />
        <path
           id="use84223-4-9-5-9"
           d="m 2787.2794,-14.753576 a 43.394484,43.394484 0 0 1 -43.3946,43.394316 43.394484,43.394484 0 0 1 -43.3944,-43.394316 43.394484,43.394484 0 0 1 43.3944,-43.394598 43.394484,43.394484 0 0 1 43.3946,43.394598 z"
           style="opacity:1;fill:#000000;fill-opacity:1;stroke:#000000;stroke-width:13.44125333;stroke-linecap:round;stroke-linejoin:round;stroke-miterlimit:4;stroke-dasharray:none;stroke-dashoffset:0;stroke-opacity:1"
           inkscape:connector-curvature="0" />
        <path
           id="use84225-9-7-02-3"
           d="m 2787.2794,89.393316 a 43.394484,43.394484 0 0 1 -43.3946,43.394464 43.394484,43.394484 0 0 1 -43.3944,-43.394464 43.394484,43.394484 0 0 1 43.3944,-43.394677 43.394484,43.394484 0 0 1 43.3946,43.394677 z"
           style="opacity:1;fill:#000000;fill-opacity:1;stroke:#000000;stroke-width:13.44125333;stroke-linecap:round;stroke-linejoin:round;stroke-miterlimit:4;stroke-dasharray:none;stroke-dashoffset:0;stroke-opacity:1"
           inkscape:connector-curvature="0" />
        <path
           id="use84227-2-5-9-5"
           d="m 2787.2794,193.53963 a 43.394484,43.394484 0 0 1 -43.3946,43.39446 43.394484,43.394484 0 0 1 -43.3944,-43.39446 43.394484,43.394484 0 0 1 43.3944,-43.39453 43.394484,43.394484 0 0 1 43.3946,43.39453 z"
           style="opacity:1;fill:#000000;fill-opacity:1;stroke:#000000;stroke-width:13.44125333;stroke-linecap:round;stroke-linejoin:round;stroke-miterlimit:4;stroke-dasharray:none;stroke-dashoffset:0;stroke-opacity:1"
           inkscape:connector-curvature="0" />
        <path
           id="use84229-0-3-4-7"
           d="m 2787.2794,297.68653 a 43.394484,43.394484 0 0 1 -43.3946,43.39446 43.394484,43.394484 0 0 1 -43.3944,-43.39446 43.394484,43.394484 0 0 1 43.3944,-43.39446 43.394484,43.394484 0 0 1 43.3946,43.39446 z"
           style="opacity:1;fill:#ffffff;fill-opacity:1;stroke:#000000;stroke-width:13.44125333;stroke-linecap:round;stroke-linejoin:round;stroke-miterlimit:4;stroke-dasharray:none;stroke-dashoffset:0;stroke-opacity:1"
           inkscape:connector-curvature="0" />
        <path
           id="use84231-6-8-3-0"
           d="m 2787.2794,401.83302 a 43.394484,43.394484 0 0 1 -43.3946,43.3945 43.394484,43.394484 0 0 1 -43.3944,-43.3945 43.394484,43.394484 0 0 1 43.3944,-43.39461 43.394484,43.394484 0 0 1 43.3946,43.39461 z"
           style="opacity:1;fill:#ffffff;fill-opacity:1;stroke:#000000;stroke-width:13.44125333;stroke-linecap:round;stroke-linejoin:round;stroke-miterlimit:4;stroke-dasharray:none;stroke-dashoffset:0;stroke-opacity:1"
           inkscape:connector-curvature="0" />
        <path
           id="use84233-8-8-5-8"
           d="m 2787.2794,505.98034 a 43.394484,43.394484 0 0 1 -43.3946,43.39449 43.394484,43.394484 0 0 1 -43.3944,-43.39449 43.394484,43.394484 0 0 1 43.3944,-43.39455 43.394484,43.394484 0 0 1 43.3946,43.39455 z"
           style="opacity:1;fill:#ffffff;fill-opacity:1;stroke:#000000;stroke-width:13.44125333;stroke-linecap:round;stroke-linejoin:round;stroke-miterlimit:4;stroke-dasharray:none;stroke-dashoffset:0;stroke-opacity:1"
           inkscape:connector-curvature="0" />
        <path
           id="use84247-5-3-1-1"
           d="m 2891.4262,193.53963 a 43.394484,43.394484 0 0 1 -43.3945,43.39446 43.394484,43.394484 0 0 1 -43.3944,-43.39446 43.394484,43.394484 0 0 1 43.3944,-43.39453 43.394484,43.394484 0 0 1 43.3945,43.39453 z"
           style="opacity:1;fill:#000000;fill-opacity:1;stroke:#000000;stroke-width:13.44125333;stroke-linecap:round;stroke-linejoin:round;stroke-miterlimit:4;stroke-dasharray:none;stroke-dashoffset:0;stroke-opacity:1"
           inkscape:connector-curvature="0" />
        <path
           id="use84249-0-3-7-9"
           d="m 2891.4262,297.68653 a 43.394484,43.394484 0 0 1 -43.3945,43.39446 43.394484,43.394484 0 0 1 -43.3944,-43.39446 43.394484,43.394484 0 0 1 43.3944,-43.39446 43.394484,43.394484 0 0 1 43.3945,43.39446 z"
           style="opacity:1;fill:#ffffff;fill-opacity:1;stroke:#000000;stroke-width:13.44125333;stroke-linecap:round;stroke-linejoin:round;stroke-miterlimit:4;stroke-dasharray:none;stroke-dashoffset:0;stroke-opacity:1"
           inkscape:connector-curvature="0" />
      </g>
      <path
         style="fill:none;fill-rule:evenodd;stroke:#000000;stroke-width:19.28899002;stroke-linecap:butt;stroke-linejoin:miter;stroke-miterlimit:4;stroke-dasharray:none;stroke-opacity:1"
         d="M 2440.5547,-181.77556 V 667.85859"
         id="path85966-9"
         inkscape:connector-curvature="0" />
    </g>
  </g>
</svg>
