<?xml version="1.0" encoding="UTF-8" standalone="no"?>
<!-- Created with Inkscape (http://www.inkscape.org/) -->

<svg
   xmlns:dc="http://purl.org/dc/elements/1.1/"
   xmlns:cc="http://creativecommons.org/ns#"
   xmlns:rdf="http://www.w3.org/1999/02/22-rdf-syntax-ns#"
   xmlns:svg="http://www.w3.org/2000/svg"
   xmlns="http://www.w3.org/2000/svg"
   xmlns:xlink="http://www.w3.org/1999/xlink"
   xmlns:sodipodi="http://sodipodi.sourceforge.net/DTD/sodipodi-0.dtd"
   xmlns:inkscape="http://www.inkscape.org/namespaces/inkscape"
   width="39.536217mm"
   height="39.536221mm"
   viewBox="0 0 140.08896 140.08897"
   id="svg4672"
   version="1.1"
   inkscape:version="0.91 r13725"
   sodipodi:docname="select_primers.svg">
  <defs
     id="defs4674" />
  <sodipodi:namedview
     id="base"
     pagecolor="#ffffff"
     bordercolor="#666666"
     borderopacity="1.0"
     inkscape:pageopacity="0.0"
     inkscape:pageshadow="2"
     inkscape:zoom="1.979899"
     inkscape:cx="-167.28087"
     inkscape:cy="176.99166"
     inkscape:document-units="px"
     inkscape:current-layer="layer1"
     showgrid="false"
     fit-margin-top="0.5"
     fit-margin-left="0.5"
     fit-margin-bottom="0.5"
     fit-margin-right="0.5"
     inkscape:window-width="2895"
     inkscape:window-height="1388"
     inkscape:window-x="81"
     inkscape:window-y="24"
     inkscape:window-maximized="0" />
  <metadata
     id="metadata4677">
    <rdf:RDF>
      <cc:Work
         rdf:about="">
        <dc:format>image/svg+xml</dc:format>
        <dc:type
           rdf:resource="http://purl.org/dc/dcmitype/StillImage" />
        <dc:title />
      </cc:Work>
    </rdf:RDF>
  </metadata>
  <g
     inkscape:label="Layer 1"
     inkscape:groupmode="layer"
     id="layer1"
     transform="translate(-14.452634,-12.762348)">
    <use
       id="use79769-8-2"
       xlink:href="#home"
       transform="matrix(0.12554633,0,0,0.12554633,-86.752433,154.44143)"
       x="0"
       y="0"
       width="100%"
       height="100%" />
    <path
       style="fill:#000000"
       d="m 81.450094,150.78115 c -0.691141,-0.98676 -0.959537,-2.88 -0.959537,-6.76859 0,-6.07235 0.480746,-5.54933 -5.855739,-6.37075 -5.965244,-0.77331 -14.697626,-4.31935 -20.957376,-8.51036 -12.247206,-8.19972 -22.337514,-23.51979 -24.015302,-36.462333 -0.821429,-6.336478 -0.298404,-5.855736 -6.370755,-5.855736 -6.482056,0 -8.138526,-0.815468 -8.138526,-4.006557 0,-3.191089 1.65647,-4.006556 8.138526,-4.006556 6.072351,0 5.549326,0.480742 6.370755,-5.855738 1.677788,-12.942543 11.768096,-28.262596 24.015302,-36.462333 6.25975,-4.191016 14.992132,-7.737054 20.957376,-8.510355 6.336485,-0.821426 5.855739,-0.298401 5.855739,-6.370747 0,-6.482056 0.815473,-8.138522 4.006562,-8.138522 3.191087,0 4.006548,1.656466 4.006548,8.138522 0,6.072346 -0.480733,5.549321 5.855738,6.370747 5.965255,0.773301 14.697625,4.319339 20.957375,8.510355 12.24721,8.199737 22.3375,23.51979 24.01532,36.462333 0.82143,6.33648 0.2984,5.855738 6.37074,5.855738 6.48206,0 8.13853,0.815467 8.13853,4.006556 0,3.191089 -1.65647,4.006557 -8.13853,4.006557 -6.07234,0 -5.54931,-0.480742 -6.37074,5.855736 -1.67782,12.942543 -11.76811,28.262613 -24.01532,36.462333 -6.25975,4.19101 -14.99212,7.73705 -20.957375,8.51037 -6.336471,0.82141 -5.855738,0.29839 -5.855738,6.37074 0,6.48205 -0.815461,8.13853 -4.006548,8.13853 -1.458383,0 -2.376651,-0.41287 -3.047025,-1.36994 z M 80.490557,125.4211 c 0,-4.28308 0.216338,-5.43124 1.277522,-6.78035 0.73397,-0.93306 1.895111,-1.6241 2.72904,-1.6241 0.833916,0 1.995068,0.69104 2.729026,1.6241 1.064941,1.35385 1.277522,2.49628 1.277522,6.86521 l 0,5.24108 3.249393,-0.3819 c 10.52609,-1.23712 22.77253,-8.24995 29.99548,-17.1767 5.27981,-6.52526 9.45749,-15.898769 10.30689,-23.125675 l 0.38189,-3.249384 -5.24107,0 c -4.36894,0 -5.51135,-0.212587 -6.8652,-1.277522 -0.93308,-0.733966 -1.62411,-1.895118 -1.62411,-2.729035 0,-0.833921 0.69103,-1.995069 1.62411,-2.729035 1.35385,-1.064936 2.49626,-1.277521 6.8652,-1.277521 l 5.24107,0 -0.38189,-3.249385 C 131.18517,68.1464 126.93597,58.744065 121.51447,52.226634 113.93901,43.119875 102.31763,36.49017 91.75306,35.248507 l -3.249393,-0.381895 0,5.241083 c 0,4.368923 -0.212581,5.511344 -1.277522,6.865192 -1.647575,2.094559 -3.81048,2.094559 -5.458066,0 -1.064928,-1.353848 -1.277522,-2.496269 -1.277522,-6.865192 l 0,-5.241083 -3.249382,0.381895 C 69.970472,36.103036 60.601674,40.291745 54.158188,45.568709 45.066809,53.014202 38.177749,65.009324 36.9388,75.550883 l -0.3819,3.249385 5.241087,0 c 4.368922,0 5.511337,0.212585 6.865186,1.277521 2.094567,1.647586 2.094567,3.810485 0,5.45807 -1.353849,1.064935 -2.496264,1.277522 -6.865186,1.277522 l -5.241087,0 0.3819,3.249384 c 1.199149,10.202875 8.188219,22.583965 16.740304,29.655355 6.969475,5.76279 18.25892,10.68601 24.808178,10.81863 l 2.003275,0.0406 0,-5.1562 z"
       id="path4153"
       inkscape:connector-curvature="0" />
    <g
       id="g86929"
       transform="translate(1.0340305,-0.9464475)">
      <path
         sodipodi:nodetypes="ccc"
         inkscape:connector-curvature="0"
         id="path86912"
         d="M 52.044548,102.85132 105.25884,53.922748 83.651691,58.029891"
         style="fill:none;fill-rule:evenodd;stroke:#000000;stroke-width:7.47800016;stroke-linecap:round;stroke-linejoin:round;stroke-miterlimit:4;stroke-dasharray:none;stroke-opacity:1" />
      <path
         sodipodi:nodetypes="ccc"
         inkscape:connector-curvature="0"
         id="path86912-3"
         d="M 114.88162,64.655234 61.667329,113.58381 83.274475,109.47667"
         style="fill:none;fill-rule:evenodd;stroke:#000000;stroke-width:7.47800016;stroke-linecap:round;stroke-linejoin:round;stroke-miterlimit:4;stroke-dasharray:none;stroke-opacity:1" />
    </g>
  </g>
</svg>
