<?xml version="1.0" encoding="UTF-8" standalone="no"?>
<!-- Generated by IcoMoon.io -->

<svg
   xmlns:dc="http://purl.org/dc/elements/1.1/"
   xmlns:cc="http://creativecommons.org/ns#"
   xmlns:rdf="http://www.w3.org/1999/02/22-rdf-syntax-ns#"
   xmlns:svg="http://www.w3.org/2000/svg"
   xmlns="http://www.w3.org/2000/svg"
   xmlns:sodipodi="http://sodipodi.sourceforge.net/DTD/sodipodi-0.dtd"
   xmlns:inkscape="http://www.inkscape.org/namespaces/inkscape"
   version="1.1"
   width="19"
   height="17"
   viewBox="0 0 19 17"
   id="svg2"
   inkscape:version="0.91 r"
   sodipodi:docname="shop.svg">
  <metadata
     id="metadata18">
    <rdf:RDF>
      <cc:Work
         rdf:about="">
        <dc:format>image/svg+xml</dc:format>
        <dc:type
           rdf:resource="http://purl.org/dc/dcmitype/StillImage" />
        <dc:title></dc:title>
      </cc:Work>
    </rdf:RDF>
  </metadata>
  <defs
     id="defs16" />
  <sodipodi:namedview
     pagecolor="#ffffff"
     bordercolor="#666666"
     borderopacity="1"
     objecttolerance="10"
     gridtolerance="10"
     guidetolerance="10"
     inkscape:pageopacity="0"
     inkscape:pageshadow="2"
     inkscape:window-width="1241"
     inkscape:window-height="680"
     id="namedview14"
     showgrid="false"
     fit-margin-top="1"
     fit-margin-left="1"
     fit-margin-right="1"
     fit-margin-bottom="1"
     inkscape:zoom="11.8"
     inkscape:cx="9.3220339"
     inkscape:cy="7.20339"
     inkscape:window-x="75"
     inkscape:window-y="34"
     inkscape:window-maximized="0"
     inkscape:current-layer="svg2" />
  <path
     d="m 17.576271,7.2676969 0,-0.9002991 c 0,-0.070224 -0.0162,-0.1386461 -0.04771,-0.201667 L 15.727957,2.5645343 C 15.651432,2.4123838 15.49568,2.3160518 15.325523,2.3160518 l -10.8035888,0 c -0.1701565,0 -0.3268086,0.096332 -0.4024337,0.2484825 L 2.3189024,6.1657308 c -0.03151,0.06212 -0.047716,0.1314436 -0.047716,0.201667 l 0,0.9002991 c 0,0.734644 0.3538175,1.3882611 0.9002991,1.7996979 l 0,5.8528442 -0.4501496,0 c -0.2484825,0 -0.4501495,0.201668 -0.4501495,0.45015 0,0.248483 0.201667,0.450149 0.4501495,0.450149 l 14.4047851,0 c 0.248483,0 0.45015,-0.201666 0.45015,-0.450149 0,-0.248482 -0.201667,-0.45015 -0.45015,-0.45015 l -0.450149,0 0,-5.8528442 C 17.222453,8.655958 17.576271,8.0032412 17.576271,7.2676969 Z m -5.851945,1.3504486 c -0.744546,0 -1.350448,-0.6059013 -1.350448,-1.3504486 l 0,-0.4501496 2.700897,0 0,0.4501496 c 0,0.7445473 -0.605901,1.3504486 -1.350449,1.3504486 z m -8.5528404,-1.3504486 0,-0.4501496 2.7008973,0 0,0.4501496 c 0,0.7445473 -0.6059013,1.3504486 -1.3504487,1.3504486 -0.7445473,0 -1.3504486,-0.6059013 -1.3504486,-1.3504486 z m 6.3020938,-4.051346 0,2.7008973 -2.5748555,0 0.6752243,-2.7008973 1.8996312,0 z m 2.7999296,0 0.675224,2.7008973 -2.574855,0 0,-2.7008973 1.899631,0 z m -5.500827,3.6011964 2.7008974,0 0,0.4501496 c 0,0.7445473 -0.6059014,1.3504486 -1.3504488,1.3504486 -0.7445473,0 -1.3504486,-0.6059013 -1.3504486,-1.3504486 l 0,-0.4501496 z m 7.202393,0 2.700897,0 0,0.4501496 c 0,0.7445473 -0.605902,1.3504486 -1.350449,1.3504486 -0.744547,0 -1.350448,-0.6059013 -1.350448,-1.3504486 l 0,-0.4501496 z m 2.422705,-0.9002991 -2.521739,0 -0.675224,-2.7008973 1.846514,0 1.350449,2.7008973 z M 4.8001266,3.2163509 l 1.8465135,0 -0.6752243,2.7008973 -2.5217378,0 1.3504486,-2.7008973 z M 4.0717847,9.4734297 c 0.1458484,0.02971 0.2961984,0.045015 0.4501495,0.045015 0.7355444,0 1.3900619,-0.3547178 1.8005983,-0.9020997 0.4105364,0.5473819 1.0650538,0.9020997 1.8005981,0.9020997 0.7355444,0 1.3900619,-0.3547178 1.8005983,-0.9020997 0.3250081,0.4321436 0.8012661,0.7445474 1.3504481,0.8561845 l 0,5.4468095 -7.2023923,0 0,-5.4468095 z m 11.7038873,5.4468093 -3.601196,0 0,-5.4468093 c 0.549183,-0.1116372 1.025441,-0.4240409 1.350449,-0.8561845 0.410536,0.5473818 1.065054,0.9020997 1.800598,0.9020997 0.153952,0 0.304301,-0.015305 0.450149,-0.045015 l 0,5.4468091 z"
     id="path4"
     inkscape:connector-curvature="0"
     style="fill:#000000" />
  <path
     d="m 13.975075,11.769192 c 0,0.248483 -0.201668,0.45015 -0.45015,0.45015 -0.248483,0 -0.45015,-0.201667 -0.45015,-0.45015 0,-0.248483 0.201667,-0.450149 0.45015,-0.450149 0.248482,0 0.45015,0.201666 0.45015,0.450149 z"
     id="path6"
     inkscape:connector-curvature="0"
     style="fill:#000000" />
  <path
     d="m 5.4222334,12.219342 c -0.1152383,0 -0.2304766,-0.04411 -0.3187059,-0.131444 -0.1755584,-0.175558 -0.1755584,-0.460953 0,-0.636511 l 0.9002991,-0.900299 c 0.1755583,-0.175559 0.4609531,-0.175559 0.6365114,0 0.1755584,0.175558 0.1755584,0.460952 0,0.636511 l -0.900299,0.900299 c -0.08823,0.08823 -0.2034676,0.131444 -0.318706,0.131444 z"
     id="path8"
     inkscape:connector-curvature="0"
     style="fill:#000000" />
  <path
     d="m 6.3225325,14.01994 c -0.1152384,0 -0.2304766,-0.04411 -0.3187059,-0.131443 -0.1755584,-0.175559 -0.1755584,-0.460954 0,-0.636512 l 2.7008973,-2.700897 c 0.1755583,-0.175559 0.4609531,-0.175559 0.6365115,0 0.1755582,0.175558 0.1755582,0.460952 0,0.636511 L 6.640338,13.888497 c -0.088229,0.08823 -0.2034675,0.131443 -0.3187059,0.131443 z"
     id="path10"
     inkscape:connector-curvature="0"
     style="fill:#000000" />
  <path
     d="m 9.0234297,14.01994 c -0.1152382,0 -0.2304765,-0.04411 -0.3187058,-0.131443 -0.1755583,-0.175559 -0.1755583,-0.460954 0,-0.636512 L 9.605023,12.351686 c 0.1755584,-0.175558 0.460953,-0.175558 0.636512,0 0.175557,0.175558 0.175557,0.460953 0,0.636511 l -0.9002996,0.9003 c -0.08823,0.08823 -0.2034677,0.131443 -0.3187059,0.131443 z"
     id="path12"
     inkscape:connector-curvature="0"
     style="fill:#000000" />
</svg>
