<?xml version="1.0" encoding="UTF-8" standalone="no"?>
<!-- Created with Inkscape (http://www.inkscape.org/) -->

<svg
   xmlns:dc="http://purl.org/dc/elements/1.1/"
   xmlns:cc="http://creativecommons.org/ns#"
   xmlns:rdf="http://www.w3.org/1999/02/22-rdf-syntax-ns#"
   xmlns:svg="http://www.w3.org/2000/svg"
   xmlns="http://www.w3.org/2000/svg"
   xmlns:sodipodi="http://sodipodi.sourceforge.net/DTD/sodipodi-0.dtd"
   xmlns:inkscape="http://www.inkscape.org/namespaces/inkscape"
   width="11.424972mm"
   height="13.567147mm"
   viewBox="0 0 11.424972 13.567147"
   version="1.1"
   id="svg83930"
   inkscape:version="0.92.3 (unknown)"
   sodipodi:docname="sequence_file.svg">
  <defs
     id="defs83924" />
  <sodipodi:namedview
     id="base"
     pagecolor="#ffffff"
     bordercolor="#666666"
     borderopacity="1.0"
     inkscape:pageopacity="0.0"
     inkscape:pageshadow="2"
     inkscape:zoom="2.8"
     inkscape:cx="-77.08475"
     inkscape:cy="-45.927204"
     inkscape:document-units="mm"
     inkscape:current-layer="layer1"
     showgrid="false"
     inkscape:window-width="3775"
     inkscape:window-height="2136"
     inkscape:window-x="65"
     inkscape:window-y="24"
     inkscape:window-maximized="1" />
  <metadata
     id="metadata83927">
    <rdf:RDF>
      <cc:Work
         rdf:about="">
        <dc:format>image/svg+xml</dc:format>
        <dc:type
           rdf:resource="http://purl.org/dc/dcmitype/StillImage" />
        <dc:title></dc:title>
      </cc:Work>
    </rdf:RDF>
  </metadata>
  <g
     inkscape:label="Layer 1"
     inkscape:groupmode="layer"
     id="layer1"
     transform="translate(-78.198228,-121.63905)">
    <g
       id="g167273">
      <path
         style="fill:#ffffff;fill-opacity:1;stroke:#0f2d59;stroke-width:0.3570298;stroke-linecap:round;stroke-linejoin:round"
         d="m 86.588429,121.81758 h -7.854656 a 0.35702981,0.35702981 0 0 0 -0.35703,0.35703 v 12.49604 a 0.35702981,0.35702981 0 0 0 0.35703,0.35703 h 10.353864 a 0.35702981,0.35702981 0 0 0 0.35703,-0.35703 v -9.99684"
         inkscape:connector-curvature="0"
         id="path72-8-2-1-6" />
      <path
         style="fill:#ffffff;fill-opacity:1;stroke:#0f2d59;stroke-width:0.3570298;stroke-linecap:round;stroke-linejoin:round"
         d="m 86.588429,121.81758 v 2.4992 a 0.35702981,0.35702981 0 0 0 0.35703,0.35703 h 2.499208 z"
         inkscape:connector-curvature="0"
         id="path76-1-2-7-5" />
      <path
         inkscape:connector-curvature="0"
         id="path83901"
         style="font-style:normal;font-variant:normal;font-weight:bold;font-stretch:normal;font-size:29.64271545px;line-height:0px;font-family:inconsolata;-inkscape-font-specification:'inconsolata Bold';letter-spacing:0px;word-spacing:0px;fill:#0f2d59;fill-opacity:1;stroke:none;stroke-width:0.12829636px;stroke-linecap:butt;stroke-linejoin:miter;stroke-opacity:1"
         d="m 80.96172,130.21081 -0.228027,-0.82691 h -0.816887 l -0.233038,0.82691 h -0.591366 l 1.067466,-3.19739 h 0.335776 l 1.067465,3.19739 z m -0.932153,-1.22533 h 0.593872 l -0.293177,-1.06246 z" />
      <path
         inkscape:connector-curvature="0"
         id="path83903"
         style="font-style:normal;font-variant:normal;font-weight:bold;font-stretch:normal;font-size:29.64271545px;line-height:0px;font-family:inconsolata;-inkscape-font-specification:'inconsolata Bold';letter-spacing:0px;word-spacing:0px;fill:#0f2d59;fill-opacity:1;stroke:none;stroke-width:0.12829636px;stroke-linecap:butt;stroke-linejoin:miter;stroke-opacity:1"
         d="m 82.577953,130.21081 v -2.69874 h -0.867002 v -0.49865 h 2.355441 v 0.49865 h -0.902084 v 2.69874 z" />
      <path
         inkscape:connector-curvature="0"
         id="path83905"
         style="font-style:normal;font-variant:normal;font-weight:bold;font-stretch:normal;font-size:29.64271545px;line-height:0px;font-family:inconsolata;-inkscape-font-specification:'inconsolata Bold';letter-spacing:0px;word-spacing:0px;fill:#0f2d59;fill-opacity:1;stroke:none;stroke-width:0.12829636px;stroke-linecap:butt;stroke-linejoin:miter;stroke-opacity:1"
         d="m 80.340284,132.70006 h 1.087513 v 1.3431 q -0.228027,0.19044 -0.471088,0.27814 -0.243062,0.0877 -0.528722,0.0877 -0.410949,0 -0.704126,-0.21299 -0.293178,-0.21299 -0.446031,-0.59387 -0.152853,-0.38338 -0.152853,-0.88705 0,-0.62143 0.212992,-0.9973 0.212992,-0.37587 0.508675,-0.52872 0.298189,-0.15285 0.581343,-0.15285 0.320741,0 0.586355,0.17039 0.265613,0.16789 0.423478,0.45605 l -0.385891,0.37336 -0.0025,0.002 q -0.02758,-0.0326 -0.07769,-0.12027 -0.06766,-0.11527 -0.1303,-0.19545 -0.06265,-0.0802 -0.167888,-0.13782 -0.105243,-0.0601 -0.255591,-0.0601 -0.185428,0 -0.343292,0.11777 -0.157865,0.11777 -0.258097,0.37837 -0.09773,0.2581 -0.09773,0.65903 0,0.37837 0.09021,0.66152 0.09021,0.28065 0.250579,0.431 0.162877,0.14784 0.368351,0.14784 0.283154,0 0.456054,-0.13281 v -0.60138 h -0.543757 z m 0.641482,-0.67656 q 0,-0.01 0.0075,-0.01 0.01002,0 0.05262,0.0326 l -0.02005,0.02 -0.04009,-0.0401 z m 0.09271,0.0451 q 0,0 -0.03258,-0.0225 l 0.0075,-0.008 z" />
      <path
         inkscape:connector-curvature="0"
         id="path83907"
         style="font-style:normal;font-variant:normal;font-weight:bold;font-stretch:normal;font-size:29.64271545px;line-height:0px;font-family:inconsolata;-inkscape-font-specification:'inconsolata Bold';letter-spacing:0px;word-spacing:0px;fill:#0f2d59;fill-opacity:1;stroke:none;stroke-width:0.12829636px;stroke-linecap:butt;stroke-linejoin:miter;stroke-opacity:1"
         d="m 83.056559,133.94794 q 0.325752,0 0.578837,-0.44853 l 0.436008,0.28315 q -0.180418,0.30821 -0.446031,0.46858 -0.265614,0.15787 -0.6064,0.15787 -0.360834,0 -0.646494,-0.18543 -0.28566,-0.18543 -0.451042,-0.5613 -0.165382,-0.37837 -0.165382,-0.92714 0,-0.59387 0.19044,-0.97475 0.192946,-0.38088 0.488629,-0.55127 0.298188,-0.1729 0.631458,-0.1729 0.363339,0 0.628953,0.19294 0.265614,0.19295 0.410949,0.53624 l -0.41596,0.20297 -0.005,0.002 v -0.002 q -0.09522,-0.26311 -0.253084,-0.36585 -0.157864,-0.10273 -0.35081,-0.10273 -0.370857,0 -0.551273,0.32074 -0.177911,0.32074 -0.177911,0.88955 0,0.34831 0.0877,0.63146 0.09021,0.28065 0.250579,0.44353 0.162876,0.16287 0.365845,0.16287 z m 0.568814,-2.01215 q 0,-0.007 0.0075,-0.007 0.0075,0 0.02255,0.0225 0.01503,0.02 0.02005,0.0251 l -0.02506,0.0125 z m 0.07267,0.0702 q 0,0.005 -0.0075,-0.005 -0.0075,-0.01 -0.01503,-0.0251 l 0.01002,-0.005 z" />
    </g>
  </g>
</svg>
