<?xml version="1.0" encoding="UTF-8" standalone="no"?>
<svg
   xmlns:dc="http://purl.org/dc/elements/1.1/"
   xmlns:cc="http://creativecommons.org/ns#"
   xmlns:rdf="http://www.w3.org/1999/02/22-rdf-syntax-ns#"
   xmlns:svg="http://www.w3.org/2000/svg"
   xmlns="http://www.w3.org/2000/svg"
   xmlns:sodipodi="http://sodipodi.sourceforge.net/DTD/sodipodi-0.dtd"
   xmlns:inkscape="http://www.inkscape.org/namespaces/inkscape"
   viewBox="-200 0 450 100"
   style="background-color:#ffffff00"
   version="1.1"
   xml:space="preserve"
   x="0px"
   y="0px"
   width="450px"
   height="100px"
   id="svg2"
   inkscape:version="0.91 r13725"
   sodipodi:docname="peptide-linker.svg"><metadata
     id="metadata14"><rdf:RDF><cc:Work
         rdf:about=""><dc:format>image/svg+xml</dc:format><dc:type
           rdf:resource="http://purl.org/dc/dcmitype/StillImage" /></cc:Work></rdf:RDF></metadata><sodipodi:namedview
     pagecolor="#ffffff"
     bordercolor="#666666"
     borderopacity="1"
     objecttolerance="10"
     gridtolerance="10"
     guidetolerance="10"
     inkscape:pageopacity="0"
     inkscape:pageshadow="2"
     inkscape:window-width="2512"
     inkscape:window-height="1826"
     id="namedview12"
     showgrid="false"
     inkscape:zoom="8.0201622"
     inkscape:cx="200.89513"
     inkscape:cy="18.762714"
     inkscape:window-x="81"
     inkscape:window-y="24"
     inkscape:window-maximized="0"
     inkscape:current-layer="svg2" /><defs
     id="defs4"><style
       type="text/css"
       id="style6"><![CDATA[
      path,circle,polygon {
        stroke:#000000;
        stroke-width: 3;
        stroke-linecap: round;
        stroke-linejoin: round;
        fill: none
      }]]></style></defs><path
     style="opacity:1;fill:#99c0f6;fill-opacity:1;stroke:#000000;stroke-width:2;stroke-linecap:round;stroke-linejoin:round;stroke-miterlimit:4;stroke-dasharray:none;stroke-dashoffset:0;stroke-opacity:1"
     d="M 225.35352 30.060547 A 25.1308 19.92598 0 0 0 213.39648 32.765625 A 25.1308 19.92598 0 0 0 200.92969 50.275391 L 208.3457 50.1875 A 17.995474 14.268445 0 0 1 217.27148 37.679688 A 17.995474 14.268445 0 0 1 235.42969 37.691406 A 17.995474 14.268445 0 0 1 244.33008 50.21875 L 251.18555 50.308594 A 25.1308 19.92598 0 0 0 238.75586 32.783203 A 25.1308 19.92598 0 0 0 225.35352 30.060547 z "
     transform="translate(-200,0)"
     id="path4142" /><path
     d="M -200 50 L 250 50"
     id="path8" /></svg>