<?xml version="1.0" encoding="UTF-8" standalone="no"?>
<svg
   xmlns:dc="http://purl.org/dc/elements/1.1/"
   xmlns:cc="http://creativecommons.org/ns#"
   xmlns:rdf="http://www.w3.org/1999/02/22-rdf-syntax-ns#"
   xmlns:svg="http://www.w3.org/2000/svg"
   xmlns="http://www.w3.org/2000/svg"
   xmlns:sodipodi="http://sodipodi.sourceforge.net/DTD/sodipodi-0.dtd"
   xmlns:inkscape="http://www.inkscape.org/namespaces/inkscape"
   width="224.54288mm"
   height="75.310417mm"
   viewBox="0 0 636.49998 213.47809"
   version="1.2"
   id="svg268"
   sodipodi:docname="num1_record_Map.svg"
   inkscape:version="0.92.3 (2405546, 2018-03-11)">
  <metadata
     id="metadata272">
    <rdf:RDF>
      <cc:Work
         rdf:about="">
        <dc:format>image/svg+xml</dc:format>
        <dc:type
           rdf:resource="http://purl.org/dc/dcmitype/StillImage" />
        <dc:title>Qt SVG Document</dc:title>
      </cc:Work>
    </rdf:RDF>
  </metadata>
  <sodipodi:namedview
     pagecolor="#ffffff"
     bordercolor="#666666"
     borderopacity="1"
     objecttolerance="10"
     gridtolerance="10"
     guidetolerance="10"
     inkscape:pageopacity="0"
     inkscape:pageshadow="2"
     inkscape:window-width="1408"
     inkscape:window-height="747"
     id="namedview270"
     showgrid="false"
     inkscape:zoom="0.34136893"
     inkscape:cx="275.62769"
     inkscape:cy="176.57438"
     inkscape:window-x="539"
     inkscape:window-y="829"
     inkscape:window-maximized="0"
     inkscape:current-layer="g266" />
  <title
     id="title2">Qt SVG Document</title>
  <desc
     id="desc4">Generated with Qt</desc>
  <defs
     id="defs6" />
  <g
     id="g266"
     style="fill:none;fill-rule:evenodd;stroke:#000000;stroke-width:1;stroke-linecap:square;stroke-linejoin:bevel"
     transform="translate(-99.5,-374.00104)">
    <g
       transform="matrix(0.94630339,0,0,0.94630339,22.431759,-263.75477)"
       font-size="9"
       font-weight="400"
       font-style="normal"
       id="g12"
       style="font-style:normal;font-weight:400;font-size:9px;font-family:'Sans Serif';fill:#252525;fill-opacity:1;stroke:none">
      <path
         d="m 719,687 h 2 v 8 h -2 v -8"
         id="path10"
         inkscape:connector-curvature="0"
         style="vector-effect:none;fill-rule:evenodd" />
    </g>
    <g
       transform="matrix(0.94630339,0,0,0.94630339,22.431759,-263.75477)"
       font-size="9"
       font-weight="400"
       font-style="normal"
       id="g16"
       style="font-style:normal;font-weight:400;font-size:9px;font-family:'Sans Serif';fill:#252525;fill-opacity:1;stroke:none">
      <path
         d="m 564,687 h 2 v 8 h -2 v -8"
         id="path14"
         inkscape:connector-curvature="0"
         style="vector-effect:none;fill-rule:evenodd" />
    </g>
    <g
       transform="matrix(0.94630339,0,0,0.94630339,22.431759,-263.75477)"
       font-size="9"
       font-weight="400"
       font-style="normal"
       id="g20"
       style="font-style:normal;font-weight:400;font-size:9px;font-family:'Sans Serif';fill:#252525;fill-opacity:1;stroke:none">
      <path
         d="m 409,687 h 2 v 8 h -2 v -8"
         id="path18"
         inkscape:connector-curvature="0"
         style="vector-effect:none;fill-rule:evenodd" />
    </g>
    <g
       transform="matrix(0.94630339,0,0,0.94630339,22.431759,-263.75477)"
       font-size="9"
       font-weight="400"
       font-style="normal"
       id="g24"
       style="font-style:normal;font-weight:400;font-size:9px;font-family:'Sans Serif';fill:#252525;fill-opacity:1;stroke:none">
      <path
         d="m 255,687 h 2 v 8 h -2 v -8"
         id="path22"
         inkscape:connector-curvature="0"
         style="vector-effect:none;fill-rule:evenodd" />
    </g>
    <g
       transform="matrix(0.94630339,0,0,0.94630339,22.431759,-263.75477)"
       font-size="11"
       font-weight="400"
       font-style="normal"
       id="g34"
       style="font-style:normal;font-weight:400;font-size:11px;font-family:Verdana;fill:none;stroke:#000000;stroke-width:1;stroke-linecap:square;stroke-linejoin:bevel;stroke-opacity:1">
      <text
         xml:space="preserve"
         x="678"
         y="698"
         font-size="11"
         font-weight="400"
         font-style="normal"
         id="text26"
         style="font-style:normal;font-weight:400;font-size:11px;font-family:Verdana;fill:#000000;fill-opacity:1;stroke:none">10,000</text>
      <text
         xml:space="preserve"
         x="534"
         y="698"
         font-size="11"
         font-weight="400"
         font-style="normal"
         id="text28"
         style="font-style:normal;font-weight:400;font-size:11px;font-family:Verdana;fill:#000000;fill-opacity:1;stroke:none">7500</text>
      <text
         xml:space="preserve"
         x="379"
         y="698"
         font-size="11"
         font-weight="400"
         font-style="normal"
         id="text30"
         style="font-style:normal;font-weight:400;font-size:11px;font-family:Verdana;fill:#000000;fill-opacity:1;stroke:none">5000</text>
      <text
         xml:space="preserve"
         x="225"
         y="698"
         font-size="11"
         font-weight="400"
         font-style="normal"
         id="text32"
         style="font-style:normal;font-weight:400;font-size:11px;font-family:Verdana;fill:#000000;fill-opacity:1;stroke:none">2500</text>
    </g>
    <g
       transform="matrix(0.94630339,0,0,0.94630339,22.431759,-263.75477)"
       font-size="9"
       font-weight="400"
       font-style="normal"
       id="g38"
       style="font-style:normal;font-weight:400;font-size:9px;font-family:'Sans Serif';fill:#252525;fill-opacity:1;stroke:none">
      <rect
         x="100"
         y="680"
         width="636"
         height="3"
         id="rect36" />
    </g>
    <g
       transform="matrix(0.94630339,0,0,0.94630339,22.431759,-263.75477)"
       font-size="9"
       font-weight="400"
       font-style="normal"
       id="g42"
       style="font-style:normal;font-weight:400;font-size:9px;font-family:'Sans Serif';fill:#252525;fill-opacity:1;stroke:none">
      <rect
         x="100"
         y="684"
         width="636"
         height="3"
         id="rect40" />
    </g>
    <g
       transform="matrix(0.94630339,0,0,0.94630339,22.431759,385.40936)"
       font-size="12"
       font-weight="400"
       font-style="normal"
       id="g46"
       style="font-style:normal;font-weight:400;font-size:12px;font-family:Verdana;fill:#3366ff;fill-opacity:1;stroke:none">
      <path
         d="M 100,25 H 735 V 42 H 100 V 25"
         id="path44"
         inkscape:connector-curvature="0"
         style="vector-effect:none;fill-rule:evenodd" />
    </g>
    <g
       transform="matrix(0.94630339,0,0,0.94630339,22.431759,385.40936)"
       font-size="12"
       font-weight="400"
       font-style="normal"
       id="g50"
       style="font-style:normal;font-weight:400;font-size:12px;font-family:Verdana;fill:none;stroke:#2c2c2c;stroke-width:1;stroke-linecap:square;stroke-linejoin:bevel;stroke-opacity:1">
      <path
         d="M 100,25 V 41"
         id="path48"
         inkscape:connector-curvature="0"
         style="vector-effect:none;fill-rule:evenodd" />
    </g>
    <g
       transform="matrix(0.94630339,0,0,0.94630339,22.431759,385.40936)"
       font-size="12"
       font-weight="400"
       font-style="normal"
       id="g54"
       style="font-style:normal;font-weight:400;font-size:12px;font-family:Verdana;fill:none;stroke:#2c2c2c;stroke-width:1;stroke-linecap:square;stroke-linejoin:bevel;stroke-opacity:1">
      <path
         d="M 735,25 V 41"
         id="path52"
         inkscape:connector-curvature="0"
         style="vector-effect:none;fill-rule:evenodd" />
    </g>
    <g
       transform="matrix(0.94630339,0,0,0.94630339,22.431759,385.40936)"
       font-size="12"
       font-weight="400"
       font-style="normal"
       id="g58"
       style="font-style:normal;font-weight:400;font-size:12px;font-family:Verdana;fill:none;stroke:#2c2c2c;stroke-width:1;stroke-linecap:square;stroke-linejoin:bevel;stroke-opacity:1">
      <path
         d="M 100,25 H 735"
         id="path56"
         inkscape:connector-curvature="0"
         style="vector-effect:none;fill-rule:evenodd" />
    </g>
    <g
       transform="matrix(0.94630339,0,0,0.94630339,22.431759,385.40936)"
       font-size="12"
       font-weight="400"
       font-style="normal"
       id="g62"
       style="font-style:normal;font-weight:400;font-size:12px;font-family:Verdana;fill:none;stroke:#2c2c2c;stroke-width:1;stroke-linecap:square;stroke-linejoin:bevel;stroke-opacity:1">
      <path
         d="M 100,42 H 735"
         id="path60"
         inkscape:connector-curvature="0"
         style="vector-effect:none;fill-rule:evenodd" />
    </g>
    <g
       transform="matrix(0.94630339,0,0,0.94630339,22.431759,385.40936)"
       font-size="12"
       font-weight="400"
       font-style="normal"
       id="g66"
       style="font-style:normal;font-weight:400;font-size:12px;font-family:Verdana;fill:#ffffff;fill-opacity:1;stroke:#ffffff;stroke-width:0.5;stroke-linecap:square;stroke-linejoin:bevel;stroke-opacity:1">
      <path
         d="m 380.953,34.1094 c 0,0.5416 -0.078,1.0677 -0.234,1.5781 -0.156,0.5104 -0.38,0.974 -0.672,1.3906 h -2.578 l -0.156,-0.6718 c -0.292,0.2291 -0.571,0.4062 -0.836,0.5312 -0.266,0.125 -0.571,0.1875 -0.914,0.1875 -0.657,0 -1.18,-0.2474 -1.571,-0.7422 -0.39,-0.4948 -0.586,-1.1901 -0.586,-2.0859 0,-0.8854 0.24,-1.5912 0.719,-2.1172 0.479,-0.5261 1.052,-0.7891 1.719,-0.7891 0.281,0 0.531,0.0313 0.75,0.0938 0.219,0.0625 0.458,0.1614 0.719,0.2969 V 31.5 h 0.921 v 4.9219 h 1.422 c 0.167,-0.2917 0.292,-0.6563 0.375,-1.0938 0.084,-0.4375 0.125,-0.8281 0.125,-1.1718 0,-0.6459 -0.088,-1.2292 -0.265,-1.75 -0.177,-0.5209 -0.438,-0.9688 -0.782,-1.3438 -0.343,-0.375 -0.768,-0.6641 -1.273,-0.8672 -0.505,-0.2031 -1.081,-0.3047 -1.727,-0.3047 -0.625,0 -1.198,0.112 -1.718,0.336 -0.521,0.2239 -0.964,0.5286 -1.328,0.914 -0.375,0.3854 -0.67,0.8438 -0.883,1.375 -0.214,0.5313 -0.321,1.099 -0.321,1.7032 0,0.6458 0.102,1.2343 0.305,1.7656 0.203,0.5312 0.492,0.9896 0.867,1.375 0.386,0.3958 0.836,0.6927 1.352,0.8906 0.515,0.1979 1.081,0.2969 1.695,0.2969 0.344,0 0.693,-0.0209 1.047,-0.0625 0.354,-0.0417 0.698,-0.1094 1.031,-0.2031 v 0.8281 c -0.385,0.0833 -0.742,0.1406 -1.07,0.1719 -0.328,0.0312 -0.664,0.0468 -1.008,0.0468 -0.729,0 -1.404,-0.125 -2.023,-0.375 -0.62,-0.25 -1.154,-0.5989 -1.602,-1.0468 -0.448,-0.448 -0.797,-0.987 -1.047,-1.6172 -0.25,-0.6302 -0.375,-1.3256 -0.375,-2.086 0,-0.7187 0.13,-1.3906 0.391,-2.0156 0.26,-0.625 0.62,-1.1667 1.078,-1.625 0.448,-0.4479 0.984,-0.8047 1.609,-1.0703 0.625,-0.2656 1.287,-0.3984 1.985,-0.3984 0.771,0 1.455,0.1223 2.054,0.3671 0.599,0.2448 1.107,0.586 1.524,1.0235 0.417,0.4375 0.734,0.9635 0.953,1.5781 0.219,0.6146 0.328,1.2969 0.328,2.0469 m -3.656,1.5 v -3.0313 c -0.25,-0.1146 -0.471,-0.1979 -0.664,-0.25 C 376.44,32.276 376.229,32.25 376,32.25 c -0.5,0 -0.893,0.1771 -1.18,0.5313 -0.286,0.3541 -0.429,0.8541 -0.429,1.5 0,0.6354 0.114,1.1171 0.343,1.4453 0.23,0.3281 0.584,0.4922 1.063,0.4922 0.26,0 0.521,-0.0599 0.781,-0.1797 0.261,-0.1198 0.5,-0.2631 0.719,-0.4297 M 388.563,38 h -1.11 v -3.7344 c 0,-0.2916 -0.018,-0.5703 -0.055,-0.8359 -0.036,-0.2656 -0.101,-0.4714 -0.195,-0.6172 -0.094,-0.1667 -0.232,-0.2891 -0.414,-0.3672 -0.182,-0.0781 -0.419,-0.1172 -0.711,-0.1172 -0.302,0 -0.617,0.0729 -0.945,0.2188 -0.328,0.1458 -0.643,0.3333 -0.945,0.5625 V 38 h -1.11 v -6.5469 h 1.11 v 0.7344 c 0.343,-0.2917 0.697,-0.5182 1.062,-0.6797 0.365,-0.1614 0.745,-0.2422 1.141,-0.2422 0.698,0 1.234,0.2136 1.609,0.6407 0.375,0.427 0.563,1.0416 0.563,1.8437 V 38 m 7.687,-3.2656 c 0,1.0625 -0.273,1.9036 -0.82,2.5234 -0.547,0.6198 -1.279,0.9297 -2.196,0.9297 -0.927,0 -1.661,-0.3099 -2.203,-0.9297 -0.541,-0.6198 -0.812,-1.4609 -0.812,-2.5234 0,-1.0729 0.271,-1.9193 0.812,-2.5391 0.542,-0.6198 1.276,-0.9297 2.203,-0.9297 0.917,0 1.649,0.3099 2.196,0.9297 0.547,0.6198 0.82,1.4662 0.82,2.5391 m -1.125,0 c 0,-0.8542 -0.167,-1.487 -0.5,-1.8985 -0.333,-0.4114 -0.797,-0.6171 -1.391,-0.6171 -0.593,0 -1.054,0.2057 -1.382,0.6171 -0.329,0.4115 -0.493,1.0443 -0.493,1.8985 0,0.8125 0.164,1.4323 0.493,1.8594 0.328,0.427 0.789,0.6406 1.382,0.6406 0.594,0 1.058,-0.211 1.391,-0.6328 0.333,-0.4219 0.5,-1.0443 0.5,-1.8672 m 6.344,5.6875 h -1.344 c -0.698,-0.8021 -1.237,-1.6719 -1.617,-2.6094 -0.38,-0.9375 -0.57,-1.9948 -0.57,-3.1719 0,-1.1666 0.19,-2.2187 0.57,-3.1562 0.38,-0.9375 0.919,-1.8073 1.617,-2.6094 h 1.344 v 0.0625 c -0.323,0.2917 -0.628,0.6224 -0.914,0.9922 -0.287,0.3698 -0.55,0.8047 -0.789,1.3047 -0.24,0.4791 -0.433,1.0078 -0.578,1.5859 -0.146,0.5781 -0.219,1.1849 -0.219,1.8203 0,0.6771 0.07,1.2917 0.211,1.8438 0.14,0.5521 0.336,1.0781 0.586,1.5781 0.229,0.4792 0.494,0.9141 0.797,1.3047 0.302,0.3906 0.604,0.7213 0.906,0.9922 v 0.0625 m 8.594,-5.1094 c 0,0.4375 -0.081,0.8229 -0.243,1.1563 -0.161,0.3333 -0.382,0.6041 -0.664,0.8125 -0.323,0.2604 -0.682,0.4453 -1.078,0.5546 -0.396,0.1094 -0.896,0.1641 -1.5,0.1641 h -3.094 v -8.7187 h 2.579 c 0.645,0 1.125,0.0234 1.437,0.0703 0.313,0.0468 0.615,0.1432 0.906,0.289 0.323,0.1667 0.558,0.3828 0.703,0.6485 0.146,0.2656 0.219,0.5807 0.219,0.9453 0,0.4166 -0.107,0.7682 -0.32,1.0547 -0.214,0.2864 -0.498,0.5182 -0.852,0.6953 v 0.0469 c 0.594,0.125 1.06,0.3854 1.399,0.7812 0.338,0.3958 0.508,0.8958 0.508,1.5 m -1.954,-3.9219 c 0,-0.2187 -0.033,-0.3984 -0.101,-0.539 -0.068,-0.1407 -0.18,-0.2578 -0.336,-0.3516 -0.188,-0.1042 -0.412,-0.1693 -0.672,-0.1953 -0.26,-0.0261 -0.583,-0.0391 -0.969,-0.0391 h -1.39 v 2.5157 h 1.5 c 0.364,0 0.653,-0.0183 0.867,-0.0547 0.213,-0.0365 0.414,-0.112 0.601,-0.2266 0.188,-0.1146 0.318,-0.2656 0.391,-0.4531 0.073,-0.1875 0.109,-0.4063 0.109,-0.6563 m 0.75,3.9688 c 0,-0.3542 -0.052,-0.6328 -0.156,-0.836 -0.104,-0.2031 -0.297,-0.3776 -0.578,-0.5234 -0.187,-0.1042 -0.414,-0.1693 -0.68,-0.1953 -0.265,-0.0261 -0.591,-0.0391 -0.976,-0.0391 h -1.828 v 3.25 h 1.547 c 0.5,0 0.914,-0.0286 1.242,-0.0859 0.328,-0.0573 0.591,-0.1537 0.789,-0.2891 0.219,-0.1562 0.38,-0.3307 0.484,-0.5234 0.104,-0.1927 0.156,-0.4453 0.156,-0.7578 m 7.438,0.75 c 0,0.6041 -0.248,1.0963 -0.742,1.4765 -0.495,0.3802 -1.17,0.5704 -2.024,0.5704 -0.489,0 -0.935,-0.0573 -1.336,-0.1719 -0.401,-0.1146 -0.742,-0.2396 -1.023,-0.375 V 36.375 h 0.062 c 0.344,0.2604 0.73,0.4661 1.157,0.6172 0.427,0.151 0.838,0.2266 1.234,0.2266 0.479,0 0.857,-0.0782 1.133,-0.2344 0.276,-0.1563 0.414,-0.4011 0.414,-0.7344 0,-0.2604 -0.078,-0.4531 -0.234,-0.5781 -0.146,-0.1354 -0.428,-0.25 -0.844,-0.3438 -0.156,-0.0312 -0.362,-0.0703 -0.617,-0.1172 -0.256,-0.0468 -0.487,-0.1015 -0.696,-0.164 -0.573,-0.1459 -0.979,-0.3672 -1.218,-0.6641 -0.24,-0.2969 -0.36,-0.6588 -0.36,-1.0859 0,-0.2709 0.057,-0.5261 0.172,-0.7656 0.115,-0.2396 0.281,-0.4532 0.5,-0.6407 0.219,-0.1771 0.497,-0.3203 0.836,-0.4297 0.338,-0.1093 0.716,-0.164 1.133,-0.164 0.396,0 0.794,0.0469 1.195,0.1406 0.401,0.0938 0.732,0.2083 0.992,0.3438 v 1.1875 h -0.062 c -0.281,-0.2084 -0.623,-0.3829 -1.024,-0.5235 -0.401,-0.1406 -0.794,-0.2109 -1.179,-0.2109 -0.407,0 -0.748,0.0755 -1.024,0.2265 -0.276,0.1511 -0.414,0.3776 -0.414,0.6797 0,0.2709 0.083,0.474 0.25,0.6094 0.167,0.1458 0.432,0.2604 0.797,0.3438 0.208,0.0416 0.438,0.0859 0.688,0.1328 0.25,0.0468 0.458,0.0911 0.625,0.1328 0.51,0.1146 0.906,0.3177 1.187,0.6094 0.281,0.2812 0.422,0.6614 0.422,1.1406 M 422.953,38 h -1.094 v -0.7031 c -0.104,0.0729 -0.237,0.1692 -0.398,0.289 -0.162,0.1198 -0.32,0.211 -0.477,0.2735 -0.187,0.0937 -0.401,0.1719 -0.64,0.2344 -0.24,0.0625 -0.521,0.0937 -0.844,0.0937 -0.583,0 -1.081,-0.1953 -1.492,-0.5859 -0.412,-0.3907 -0.617,-0.8933 -0.617,-1.5078 0,-0.4896 0.106,-0.8881 0.32,-1.1954 0.213,-0.3073 0.518,-0.5494 0.914,-0.7265 0.396,-0.1771 0.872,-0.2969 1.43,-0.3594 0.557,-0.0625 1.159,-0.1094 1.804,-0.1406 V 33.5 c 0,-0.25 -0.044,-0.4557 -0.132,-0.6172 -0.089,-0.1614 -0.217,-0.289 -0.383,-0.3828 -0.156,-0.0937 -0.344,-0.1562 -0.563,-0.1875 -0.218,-0.0312 -0.448,-0.0469 -0.687,-0.0469 -0.281,0 -0.602,0.0391 -0.961,0.1172 -0.36,0.0781 -0.727,0.1901 -1.102,0.336 h -0.062 v -1.125 c 0.219,-0.0625 0.531,-0.1277 0.937,-0.1954 0.407,-0.0677 0.808,-0.1015 1.203,-0.1015 0.459,0 0.86,0.039 1.204,0.1172 0.343,0.0781 0.64,0.2057 0.89,0.3828 0.24,0.1771 0.425,0.4088 0.555,0.6953 0.13,0.2864 0.195,0.6432 0.195,1.0703 V 38 m -1.094,-1.6094 v -1.8281 c -0.333,0.0208 -0.729,0.0521 -1.187,0.0938 -0.458,0.0416 -0.818,0.0989 -1.078,0.1718 -0.323,0.0834 -0.581,0.2214 -0.774,0.4141 -0.192,0.1927 -0.289,0.4557 -0.289,0.7891 0,0.375 0.112,0.6562 0.336,0.8437 0.224,0.1875 0.571,0.2813 1.039,0.2813 0.386,0 0.74,-0.0756 1.063,-0.2266 0.323,-0.1511 0.62,-0.3307 0.89,-0.5391 M 428.234,38 h -3.453 v -0.8906 h 1.157 v -6.9375 h -1.157 v -0.8906 h 3.453 v 0.8906 h -1.14 v 6.9375 h 1.14 V 38 m 8.454,1.7656 h -7.672 v -0.7031 h 7.672 v 0.7031 m 5.734,-3.6562 c 0,0.6041 -0.248,1.0963 -0.742,1.4765 -0.495,0.3802 -1.17,0.5704 -2.024,0.5704 -0.489,0 -0.935,-0.0573 -1.336,-0.1719 -0.401,-0.1146 -0.742,-0.2396 -1.023,-0.375 V 36.375 h 0.062 c 0.344,0.2604 0.73,0.4661 1.157,0.6172 0.427,0.151 0.838,0.2266 1.234,0.2266 0.479,0 0.857,-0.0782 1.133,-0.2344 0.276,-0.1563 0.414,-0.4011 0.414,-0.7344 0,-0.2604 -0.078,-0.4531 -0.234,-0.5781 -0.146,-0.1354 -0.428,-0.25 -0.844,-0.3438 -0.156,-0.0312 -0.362,-0.0703 -0.617,-0.1172 -0.256,-0.0468 -0.487,-0.1015 -0.696,-0.164 -0.573,-0.1459 -0.979,-0.3672 -1.218,-0.6641 -0.24,-0.2969 -0.36,-0.6588 -0.36,-1.0859 0,-0.2709 0.057,-0.5261 0.172,-0.7656 0.115,-0.2396 0.281,-0.4532 0.5,-0.6407 0.219,-0.1771 0.497,-0.3203 0.836,-0.4297 0.338,-0.1093 0.716,-0.164 1.133,-0.164 0.396,0 0.794,0.0469 1.195,0.1406 0.401,0.0938 0.732,0.2083 0.992,0.3438 v 1.1875 h -0.062 c -0.281,-0.2084 -0.623,-0.3829 -1.024,-0.5235 -0.401,-0.1406 -0.794,-0.2109 -1.179,-0.2109 -0.407,0 -0.748,0.0755 -1.024,0.2265 -0.276,0.1511 -0.414,0.3776 -0.414,0.6797 0,0.2709 0.083,0.474 0.25,0.6094 0.167,0.1458 0.432,0.2604 0.797,0.3438 0.208,0.0416 0.438,0.0859 0.688,0.1328 0.25,0.0468 0.458,0.0911 0.625,0.1328 0.51,0.1146 0.906,0.3177 1.187,0.6094 0.281,0.2812 0.422,0.6614 0.422,1.1406 m 2.75,-5.75 h -1.234 v -1.1406 h 1.234 v 1.1406 M 445.109,38 H 444 v -6.5469 h 1.109 V 38 m 5.563,-0.0625 c -0.208,0.0625 -0.435,0.1094 -0.68,0.1406 -0.245,0.0313 -0.461,0.0469 -0.648,0.0469 -0.667,0 -1.175,-0.1797 -1.524,-0.5391 -0.349,-0.3593 -0.523,-0.9349 -0.523,-1.7265 V 32.375 h -0.75 v -0.9219 h 0.75 v -1.875 h 1.094 v 1.875 h 2.281 v 0.9219 h -2.281 v 2.9844 c 0,0.3437 0.007,0.612 0.023,0.8047 0.016,0.1927 0.07,0.3724 0.164,0.539 0.094,0.1563 0.216,0.2709 0.367,0.3438 0.151,0.0729 0.378,0.1094 0.68,0.1094 0.177,0 0.365,-0.0261 0.563,-0.0782 0.197,-0.0521 0.338,-0.0937 0.421,-0.125 h 0.063 v 0.9844 m 6.797,-3.0937 h -4.828 c 0,0.3958 0.062,0.7447 0.187,1.0468 0.125,0.3021 0.292,0.5469 0.5,0.7344 0.198,0.1875 0.438,0.3281 0.719,0.4219 0.281,0.0937 0.588,0.1406 0.922,0.1406 0.448,0 0.898,-0.0885 1.351,-0.2656 0.453,-0.1771 0.774,-0.349 0.961,-0.5156 h 0.063 v 1.1875 c -0.375,0.1562 -0.755,0.289 -1.141,0.3984 -0.385,0.1094 -0.792,0.1641 -1.219,0.1641 -1.083,0 -1.929,-0.2943 -2.539,-0.8829 -0.609,-0.5885 -0.914,-1.4244 -0.914,-2.5078 0,-1.0729 0.292,-1.9245 0.875,-2.5547 0.584,-0.6302 1.349,-0.9453 2.297,-0.9453 0.886,0 1.568,0.2578 2.047,0.7735 0.479,0.5156 0.719,1.2526 0.719,2.2109 v 0.5938 M 456.391,34 c 0,-0.5833 -0.144,-1.0312 -0.43,-1.3437 -0.287,-0.3125 -0.721,-0.4688 -1.305,-0.4688 -0.593,0 -1.065,0.1719 -1.414,0.5156 -0.349,0.3438 -0.549,0.7761 -0.601,1.2969 h 3.75 m 6.047,0.6406 c 0,1.1771 -0.193,2.2344 -0.579,3.1719 -0.385,0.9375 -0.921,1.8073 -1.609,2.6094 h -1.344 v -0.0625 c 0.302,-0.2709 0.604,-0.6016 0.907,-0.9922 0.302,-0.3906 0.567,-0.8255 0.796,-1.3047 0.25,-0.5 0.446,-1.026 0.586,-1.5781 0.141,-0.5521 0.211,-1.1667 0.211,-1.8438 0,-0.6354 -0.073,-1.2422 -0.218,-1.8203 -0.146,-0.5781 -0.339,-1.1068 -0.579,-1.5859 -0.239,-0.5 -0.502,-0.9349 -0.789,-1.3047 -0.286,-0.3698 -0.591,-0.7005 -0.914,-0.9922 V 28.875 h 1.344 c 0.688,0.8021 1.224,1.6719 1.609,2.6094 0.386,0.9375 0.579,1.9896 0.579,3.1562"
         id="path64"
         inkscape:connector-curvature="0"
         style="vector-effect:none;fill-rule:evenodd" />
    </g>
    <g
       transform="matrix(0.94630339,0,0,0.94630339,22.431759,385.40936)"
       font-size="12"
       font-weight="400"
       font-style="normal"
       id="g70"
       style="font-style:normal;font-weight:400;font-size:12px;font-family:Verdana;fill:#ffff00;fill-opacity:1;stroke:none">
      <path
         d="M 100,54 H 735 V 71 H 100 V 54"
         id="path68"
         inkscape:connector-curvature="0"
         style="vector-effect:none;fill-rule:evenodd" />
    </g>
    <g
       transform="matrix(0.94630339,0,0,0.94630339,22.431759,385.40936)"
       font-size="12"
       font-weight="400"
       font-style="normal"
       id="g74"
       style="font-style:normal;font-weight:400;font-size:12px;font-family:Verdana;fill:none;stroke:#626262;stroke-width:1;stroke-linecap:square;stroke-linejoin:bevel;stroke-opacity:1">
      <path
         d="M 100,54 V 70"
         id="path72"
         inkscape:connector-curvature="0"
         style="vector-effect:none;fill-rule:evenodd" />
    </g>
    <g
       transform="matrix(0.94630339,0,0,0.94630339,22.431759,385.40936)"
       font-size="12"
       font-weight="400"
       font-style="normal"
       id="g78"
       style="font-style:normal;font-weight:400;font-size:12px;font-family:Verdana;fill:none;stroke:#626262;stroke-width:1;stroke-linecap:square;stroke-linejoin:bevel;stroke-opacity:1">
      <path
         d="M 735,54 V 70"
         id="path76"
         inkscape:connector-curvature="0"
         style="vector-effect:none;fill-rule:evenodd" />
    </g>
    <g
       transform="matrix(0.94630339,0,0,0.94630339,22.431759,385.40936)"
       font-size="12"
       font-weight="400"
       font-style="normal"
       id="g82"
       style="font-style:normal;font-weight:400;font-size:12px;font-family:Verdana;fill:none;stroke:#626262;stroke-width:1;stroke-linecap:square;stroke-linejoin:bevel;stroke-opacity:1">
      <path
         d="M 100,54 H 735"
         id="path80"
         inkscape:connector-curvature="0"
         style="vector-effect:none;fill-rule:evenodd" />
    </g>
    <g
       transform="matrix(0.94630339,0,0,0.94630339,22.431759,385.40936)"
       font-size="12"
       font-weight="400"
       font-style="normal"
       id="g86"
       style="font-style:normal;font-weight:400;font-size:12px;font-family:Verdana;fill:none;stroke:#626262;stroke-width:1;stroke-linecap:square;stroke-linejoin:bevel;stroke-opacity:1">
      <path
         d="M 100,71 H 735"
         id="path84"
         inkscape:connector-curvature="0"
         style="vector-effect:none;fill-rule:evenodd" />
    </g>
    <g
       transform="matrix(0.94630339,0,0,0.94630339,22.431759,385.40936)"
       font-size="12"
       font-weight="400"
       font-style="normal"
       id="g90"
       style="font-style:normal;font-weight:400;font-size:12px;font-family:Verdana;fill:none;stroke:#000000;stroke-width:1;stroke-linecap:square;stroke-linejoin:bevel;stroke-opacity:1">
      <text
         xml:space="preserve"
         x="331"
         y="67"
         font-size="12"
         font-weight="400"
         font-style="normal"
         id="text88"
         style="font-style:normal;font-weight:400;font-size:12px;font-family:Verdana;fill:#000000;fill-opacity:1;stroke:none">~gc(30-45%, window=100)</text>
    </g>
    <g
       transform="matrix(0.94630339,0,0,0.94630339,22.431759,385.40936)"
       font-size="12"
       font-weight="400"
       font-style="normal"
       id="g94"
       style="font-style:normal;font-weight:400;font-size:12px;font-family:Verdana;fill:#3366ff;fill-opacity:1;stroke:none">
      <path
         d="m 107,83 h 55 v 17 H 107 V 83"
         id="path92"
         inkscape:connector-curvature="0"
         style="vector-effect:none;fill-rule:evenodd" />
    </g>
    <g
       transform="matrix(0.94630339,0,0,0.94630339,22.431759,385.40936)"
       font-size="12"
       font-weight="400"
       font-style="normal"
       id="g98"
       style="font-style:normal;font-weight:400;font-size:12px;font-family:Verdana;fill:none;stroke:#2c2c2c;stroke-width:1;stroke-linecap:square;stroke-linejoin:bevel;stroke-opacity:1">
      <path
         d="M 107,83 V 99"
         id="path96"
         inkscape:connector-curvature="0"
         style="vector-effect:none;fill-rule:evenodd" />
    </g>
    <g
       transform="matrix(0.94630339,0,0,0.94630339,22.431759,385.40936)"
       font-size="12"
       font-weight="400"
       font-style="normal"
       id="g102"
       style="font-style:normal;font-weight:400;font-size:12px;font-family:Verdana;fill:none;stroke:#2c2c2c;stroke-width:1;stroke-linecap:square;stroke-linejoin:bevel;stroke-opacity:1">
      <path
         d="M 162,83 V 99"
         id="path100"
         inkscape:connector-curvature="0"
         style="vector-effect:none;fill-rule:evenodd" />
    </g>
    <g
       transform="matrix(0.94630339,0,0,0.94630339,22.431759,385.40936)"
       font-size="12"
       font-weight="400"
       font-style="normal"
       id="g106"
       style="font-style:normal;font-weight:400;font-size:12px;font-family:Verdana;fill:none;stroke:#2c2c2c;stroke-width:1;stroke-linecap:square;stroke-linejoin:bevel;stroke-opacity:1">
      <path
         d="m 107,83 h 55"
         id="path104"
         inkscape:connector-curvature="0"
         style="vector-effect:none;fill-rule:evenodd" />
    </g>
    <g
       transform="matrix(0.94630339,0,0,0.94630339,22.431759,385.40936)"
       font-size="12"
       font-weight="400"
       font-style="normal"
       id="g110"
       style="font-style:normal;font-weight:400;font-size:12px;font-family:Verdana;fill:none;stroke:#2c2c2c;stroke-width:1;stroke-linecap:square;stroke-linejoin:bevel;stroke-opacity:1">
      <path
         d="m 107,100 h 55"
         id="path108"
         inkscape:connector-curvature="0"
         style="vector-effect:none;fill-rule:evenodd" />
    </g>
    <g
       transform="matrix(0.94630339,0,0,0.94630339,22.431759,385.40936)"
       font-size="12"
       font-weight="400"
       font-style="normal"
       id="g114"
       style="font-style:normal;font-weight:400;font-size:12px;font-family:Verdana;fill:#3366ff;fill-opacity:1;stroke:none">
      <path
         d="m 162,83 h 510 v 17 H 162 V 83"
         id="path112"
         inkscape:connector-curvature="0"
         style="vector-effect:none;fill-rule:evenodd" />
    </g>
    <g
       transform="matrix(0.94630339,0,0,0.94630339,22.431759,385.40936)"
       font-size="12"
       font-weight="400"
       font-style="normal"
       id="g118"
       style="font-style:normal;font-weight:400;font-size:12px;font-family:Verdana;fill:none;stroke:#2c2c2c;stroke-width:1;stroke-linecap:square;stroke-linejoin:bevel;stroke-opacity:1">
      <path
         d="M 162,83 V 99"
         id="path116"
         inkscape:connector-curvature="0"
         style="vector-effect:none;fill-rule:evenodd" />
    </g>
    <g
       transform="matrix(0.94630339,0,0,0.94630339,22.431759,385.40936)"
       font-size="12"
       font-weight="400"
       font-style="normal"
       id="g122"
       style="font-style:normal;font-weight:400;font-size:12px;font-family:Verdana;fill:none;stroke:#2c2c2c;stroke-width:1;stroke-linecap:square;stroke-linejoin:bevel;stroke-opacity:1">
      <path
         d="M 672,83 V 99"
         id="path120"
         inkscape:connector-curvature="0"
         style="vector-effect:none;fill-rule:evenodd" />
    </g>
    <g
       transform="matrix(0.94630339,0,0,0.94630339,22.431759,385.40936)"
       font-size="12"
       font-weight="400"
       font-style="normal"
       id="g126"
       style="font-style:normal;font-weight:400;font-size:12px;font-family:Verdana;fill:none;stroke:#2c2c2c;stroke-width:1;stroke-linecap:square;stroke-linejoin:bevel;stroke-opacity:1">
      <path
         d="M 162,83 H 672"
         id="path124"
         inkscape:connector-curvature="0"
         style="vector-effect:none;fill-rule:evenodd" />
    </g>
    <g
       transform="matrix(0.94630339,0,0,0.94630339,22.431759,385.40936)"
       font-size="12"
       font-weight="400"
       font-style="normal"
       id="g130"
       style="font-style:normal;font-weight:400;font-size:12px;font-family:Verdana;fill:none;stroke:#2c2c2c;stroke-width:1;stroke-linecap:square;stroke-linejoin:bevel;stroke-opacity:1">
      <path
         d="M 162,100 H 672"
         id="path128"
         inkscape:connector-curvature="0"
         style="vector-effect:none;fill-rule:evenodd" />
    </g>
    <g
       transform="matrix(0.94630339,0,0,0.94630339,22.431759,385.40936)"
       font-size="12"
       font-weight="400"
       font-style="normal"
       id="g134"
       style="font-style:normal;font-weight:400;font-size:12px;font-family:Verdana;fill:#3366ff;fill-opacity:1;stroke:none">
      <path
         d="m 672,83 h 63 v 17 H 672 V 83"
         id="path132"
         inkscape:connector-curvature="0"
         style="vector-effect:none;fill-rule:evenodd" />
    </g>
    <g
       transform="matrix(0.94630339,0,0,0.94630339,22.431759,385.40936)"
       font-size="12"
       font-weight="400"
       font-style="normal"
       id="g138"
       style="font-style:normal;font-weight:400;font-size:12px;font-family:Verdana;fill:none;stroke:#2c2c2c;stroke-width:1;stroke-linecap:square;stroke-linejoin:bevel;stroke-opacity:1">
      <path
         d="M 672,83 V 99"
         id="path136"
         inkscape:connector-curvature="0"
         style="vector-effect:none;fill-rule:evenodd" />
    </g>
    <g
       transform="matrix(0.94630339,0,0,0.94630339,22.431759,385.40936)"
       font-size="12"
       font-weight="400"
       font-style="normal"
       id="g142"
       style="font-style:normal;font-weight:400;font-size:12px;font-family:Verdana;fill:none;stroke:#2c2c2c;stroke-width:1;stroke-linecap:square;stroke-linejoin:bevel;stroke-opacity:1">
      <path
         d="M 735,83 V 99"
         id="path140"
         inkscape:connector-curvature="0"
         style="vector-effect:none;fill-rule:evenodd" />
    </g>
    <g
       transform="matrix(0.94630339,0,0,0.94630339,22.431759,385.40936)"
       font-size="12"
       font-weight="400"
       font-style="normal"
       id="g146"
       style="font-style:normal;font-weight:400;font-size:12px;font-family:Verdana;fill:none;stroke:#2c2c2c;stroke-width:1;stroke-linecap:square;stroke-linejoin:bevel;stroke-opacity:1">
      <path
         d="m 672,83 h 63"
         id="path144"
         inkscape:connector-curvature="0"
         style="vector-effect:none;fill-rule:evenodd" />
    </g>
    <g
       transform="matrix(0.94630339,0,0,0.94630339,22.431759,385.40936)"
       font-size="12"
       font-weight="400"
       font-style="normal"
       id="g150"
       style="font-style:normal;font-weight:400;font-size:12px;font-family:Verdana;fill:none;stroke:#2c2c2c;stroke-width:1;stroke-linecap:square;stroke-linejoin:bevel;stroke-opacity:1">
      <path
         d="m 672,100 h 63"
         id="path148"
         inkscape:connector-curvature="0"
         style="vector-effect:none;fill-rule:evenodd" />
    </g>
    <g
       transform="matrix(0.94630339,0,0,0.94630339,22.431759,385.40936)"
       font-size="12"
       font-weight="400"
       font-style="normal"
       id="g154"
       style="font-style:normal;font-weight:400;font-size:12px;font-family:Verdana;fill:#ffffff;fill-opacity:1;stroke:#ffffff;stroke-width:0.5;stroke-linecap:square;stroke-linejoin:bevel;stroke-opacity:1">
      <path
         d="m 123.953,92.1094 c 0,0.5416 -0.078,1.0677 -0.234,1.5781 -0.156,0.5104 -0.38,0.974 -0.672,1.3906 h -2.578 l -0.156,-0.6718 c -0.292,0.2291 -0.571,0.4062 -0.836,0.5312 -0.266,0.125 -0.571,0.1875 -0.914,0.1875 -0.657,0 -1.18,-0.2474 -1.571,-0.7422 -0.39,-0.4948 -0.586,-1.1901 -0.586,-2.0859 0,-0.8854 0.24,-1.5912 0.719,-2.1172 0.479,-0.5261 1.052,-0.7891 1.719,-0.7891 0.281,0 0.531,0.0313 0.75,0.0938 0.219,0.0625 0.458,0.1614 0.719,0.2969 V 89.5 h 0.921 v 4.9219 h 1.422 c 0.167,-0.2917 0.292,-0.6563 0.375,-1.0938 0.084,-0.4375 0.125,-0.8281 0.125,-1.1718 0,-0.6459 -0.088,-1.2292 -0.265,-1.75 -0.177,-0.5209 -0.438,-0.9688 -0.782,-1.3438 -0.343,-0.375 -0.768,-0.6641 -1.273,-0.8672 -0.505,-0.2031 -1.081,-0.3047 -1.727,-0.3047 -0.625,0 -1.198,0.112 -1.718,0.336 -0.521,0.2239 -0.964,0.5286 -1.328,0.914 -0.375,0.3854 -0.67,0.8438 -0.883,1.375 -0.214,0.5313 -0.321,1.099 -0.321,1.7032 0,0.6458 0.102,1.2343 0.305,1.7656 0.203,0.5312 0.492,0.9896 0.867,1.375 0.386,0.3958 0.836,0.6927 1.352,0.8906 0.515,0.1979 1.081,0.2969 1.695,0.2969 0.344,0 0.693,-0.0209 1.047,-0.0625 0.354,-0.0417 0.698,-0.1094 1.031,-0.2031 v 0.8281 c -0.385,0.0833 -0.742,0.1406 -1.07,0.1719 -0.328,0.0312 -0.664,0.0468 -1.008,0.0468 -0.729,0 -1.404,-0.125 -2.023,-0.375 -0.62,-0.25 -1.154,-0.5989 -1.602,-1.0468 -0.448,-0.448 -0.797,-0.987 -1.047,-1.6172 -0.25,-0.6302 -0.375,-1.3256 -0.375,-2.086 0,-0.7187 0.13,-1.3906 0.391,-2.0156 0.26,-0.625 0.62,-1.1667 1.078,-1.625 0.448,-0.4479 0.984,-0.8047 1.609,-1.0703 0.625,-0.2656 1.287,-0.3984 1.985,-0.3984 0.771,0 1.455,0.1223 2.054,0.3671 0.599,0.2448 1.107,0.586 1.524,1.0235 0.417,0.4375 0.734,0.9635 0.953,1.5781 0.219,0.6146 0.328,1.2969 0.328,2.0469 m -3.656,1.5 v -3.0313 c -0.25,-0.1146 -0.471,-0.1979 -0.664,-0.25 C 119.44,90.276 119.229,90.25 119,90.25 c -0.5,0 -0.893,0.1771 -1.18,0.5313 -0.286,0.3541 -0.429,0.8541 -0.429,1.5 0,0.6354 0.114,1.1171 0.343,1.4453 0.23,0.3281 0.584,0.4922 1.063,0.4922 0.26,0 0.521,-0.0599 0.781,-0.1797 0.261,-0.1198 0.5,-0.2631 0.719,-0.4297 M 132.031,96 h -1.453 l -2.625,-2.8594 -0.719,0.6719 V 96 h -1.109 v -9.125 h 1.109 v 5.8594 l 3.188,-3.2813 h 1.375 l -3.031,3.0313 3.265,3.5156 m 6.516,-3.1562 h -4.828 c 0,0.3958 0.062,0.7447 0.187,1.0468 0.125,0.3021 0.292,0.5469 0.5,0.7344 0.198,0.1875 0.438,0.3281 0.719,0.4219 0.281,0.0937 0.589,0.1406 0.922,0.1406 0.448,0 0.898,-0.0885 1.351,-0.2656 0.454,-0.1771 0.774,-0.349 0.961,-0.5156 h 0.063 v 1.1875 c -0.375,0.1562 -0.755,0.289 -1.141,0.3984 -0.385,0.1094 -0.791,0.1641 -1.218,0.1641 -1.084,0 -1.93,-0.2943 -2.54,-0.8829 -0.609,-0.5885 -0.914,-1.4244 -0.914,-2.5078 0,-1.0729 0.292,-1.9245 0.875,-2.5547 0.584,-0.6302 1.349,-0.9453 2.297,-0.9453 0.886,0 1.568,0.2578 2.047,0.7735 0.479,0.5156 0.719,1.2526 0.719,2.2109 v 0.5938 M 137.469,92 c 0,-0.5833 -0.143,-1.0312 -0.43,-1.3437 -0.286,-0.3125 -0.721,-0.4688 -1.305,-0.4688 -0.593,0 -1.065,0.1719 -1.414,0.5156 -0.349,0.3438 -0.549,0.7761 -0.601,1.2969 h 3.75 m 8.219,0.8438 h -4.829 c 0,0.3958 0.063,0.7447 0.188,1.0468 0.125,0.3021 0.292,0.5469 0.5,0.7344 0.198,0.1875 0.437,0.3281 0.719,0.4219 0.281,0.0937 0.588,0.1406 0.922,0.1406 0.447,0 0.898,-0.0885 1.351,-0.2656 0.453,-0.1771 0.774,-0.349 0.961,-0.5156 h 0.063 v 1.1875 c -0.375,0.1562 -0.756,0.289 -1.141,0.3984 -0.386,0.1094 -0.792,0.1641 -1.219,0.1641 -1.083,0 -1.93,-0.2943 -2.539,-0.8829 -0.609,-0.5885 -0.914,-1.4244 -0.914,-2.5078 0,-1.0729 0.292,-1.9245 0.875,-2.5547 0.583,-0.6302 1.349,-0.9453 2.297,-0.9453 0.885,0 1.568,0.2578 2.047,0.7735 0.479,0.5156 0.719,1.2526 0.719,2.2109 v 0.5938 M 144.609,92 c 0,-0.5833 -0.143,-1.0312 -0.429,-1.3437 -0.287,-0.3125 -0.722,-0.4688 -1.305,-0.4688 -0.594,0 -1.065,0.1719 -1.414,0.5156 -0.349,0.3438 -0.55,0.7761 -0.602,1.2969 h 3.75 m 8.5,0.6406 c 0,0.5313 -0.075,1.0183 -0.226,1.461 -0.151,0.4427 -0.367,0.8151 -0.649,1.1172 -0.26,0.2916 -0.565,0.5156 -0.914,0.6718 -0.349,0.1563 -0.716,0.2344 -1.101,0.2344 -0.344,0 -0.654,-0.0365 -0.93,-0.1094 -0.276,-0.0729 -0.555,-0.1875 -0.836,-0.3437 v 2.75 h -1.109 v -8.9688 h 1.109 v 0.6875 c 0.292,-0.25 0.62,-0.4583 0.985,-0.625 0.364,-0.1666 0.755,-0.25 1.171,-0.25 0.792,0 1.407,0.2995 1.844,0.8985 0.438,0.5989 0.656,1.4244 0.656,2.4765 m -1.14,0.0313 c 0,-0.7813 -0.133,-1.3672 -0.399,-1.7578 -0.265,-0.3907 -0.679,-0.586 -1.242,-0.586 -0.312,0 -0.63,0.0677 -0.953,0.2032 -0.323,0.1354 -0.63,0.3125 -0.922,0.5312 v 3.7188 c 0.313,0.1354 0.581,0.2291 0.805,0.2812 0.224,0.0521 0.476,0.0781 0.758,0.0781 0.614,0 1.093,-0.2083 1.437,-0.625 0.344,-0.4166 0.516,-1.0312 0.516,-1.8437"
         id="path152"
         inkscape:connector-curvature="0"
         style="vector-effect:none;fill-rule:evenodd" />
    </g>
    <g
       transform="matrix(0.94630339,0,0,0.94630339,22.431759,385.40936)"
       font-size="12"
       font-weight="400"
       font-style="normal"
       id="g158"
       style="font-style:normal;font-weight:400;font-size:12px;font-family:Verdana;fill:#ffffff;fill-opacity:1;stroke:#ffffff;stroke-width:0.5;stroke-linecap:square;stroke-linejoin:bevel;stroke-opacity:1">
      <path
         d="m 410.953,92.1094 c 0,0.5416 -0.078,1.0677 -0.234,1.5781 -0.156,0.5104 -0.38,0.974 -0.672,1.3906 h -2.578 l -0.156,-0.6718 c -0.292,0.2291 -0.571,0.4062 -0.836,0.5312 -0.266,0.125 -0.571,0.1875 -0.914,0.1875 -0.657,0 -1.18,-0.2474 -1.571,-0.7422 -0.39,-0.4948 -0.586,-1.1901 -0.586,-2.0859 0,-0.8854 0.24,-1.5912 0.719,-2.1172 0.479,-0.5261 1.052,-0.7891 1.719,-0.7891 0.281,0 0.531,0.0313 0.75,0.0938 0.219,0.0625 0.458,0.1614 0.719,0.2969 V 89.5 h 0.921 v 4.9219 h 1.422 c 0.167,-0.2917 0.292,-0.6563 0.375,-1.0938 0.084,-0.4375 0.125,-0.8281 0.125,-1.1718 0,-0.6459 -0.088,-1.2292 -0.265,-1.75 -0.177,-0.5209 -0.438,-0.9688 -0.782,-1.3438 -0.343,-0.375 -0.768,-0.6641 -1.273,-0.8672 -0.505,-0.2031 -1.081,-0.3047 -1.727,-0.3047 -0.625,0 -1.198,0.112 -1.718,0.336 -0.521,0.2239 -0.964,0.5286 -1.328,0.914 -0.375,0.3854 -0.67,0.8438 -0.883,1.375 -0.214,0.5313 -0.321,1.099 -0.321,1.7032 0,0.6458 0.102,1.2343 0.305,1.7656 0.203,0.5312 0.492,0.9896 0.867,1.375 0.386,0.3958 0.836,0.6927 1.352,0.8906 0.515,0.1979 1.081,0.2969 1.695,0.2969 0.344,0 0.693,-0.0209 1.047,-0.0625 0.354,-0.0417 0.698,-0.1094 1.031,-0.2031 v 0.8281 c -0.385,0.0833 -0.742,0.1406 -1.07,0.1719 -0.328,0.0312 -0.664,0.0468 -1.008,0.0468 -0.729,0 -1.404,-0.125 -2.023,-0.375 -0.62,-0.25 -1.154,-0.5989 -1.602,-1.0468 -0.448,-0.448 -0.797,-0.987 -1.047,-1.6172 -0.25,-0.6302 -0.375,-1.3256 -0.375,-2.086 0,-0.7187 0.13,-1.3906 0.391,-2.0156 0.26,-0.625 0.62,-1.1667 1.078,-1.625 0.448,-0.4479 0.984,-0.8047 1.609,-1.0703 0.625,-0.2656 1.287,-0.3984 1.985,-0.3984 0.771,0 1.455,0.1223 2.054,0.3671 0.599,0.2448 1.107,0.586 1.524,1.0235 0.417,0.4375 0.734,0.9635 0.953,1.5781 0.219,0.6146 0.328,1.2969 0.328,2.0469 m -3.656,1.5 v -3.0313 c -0.25,-0.1146 -0.471,-0.1979 -0.664,-0.25 C 406.44,90.276 406.229,90.25 406,90.25 c -0.5,0 -0.893,0.1771 -1.18,0.5313 -0.286,0.3541 -0.429,0.8541 -0.429,1.5 0,0.6354 0.114,1.1171 0.343,1.4453 0.23,0.3281 0.584,0.4922 1.063,0.4922 0.26,0 0.521,-0.0599 0.781,-0.1797 0.261,-0.1198 0.5,-0.2631 0.719,-0.4297 m 10.625,1.9844 c -0.365,0.177 -0.711,0.3125 -1.039,0.4062 -0.328,0.0938 -0.68,0.1406 -1.055,0.1406 -0.469,0 -0.901,-0.0677 -1.297,-0.2031 -0.396,-0.1354 -0.734,-0.3437 -1.015,-0.625 -0.292,-0.2812 -0.516,-0.638 -0.672,-1.0703 -0.156,-0.4323 -0.235,-0.9349 -0.235,-1.5078 0,-1.0729 0.295,-1.9141 0.883,-2.5235 0.589,-0.6093 1.367,-0.914 2.336,-0.914 0.375,0 0.742,0.0547 1.102,0.164 0.359,0.1094 0.69,0.237 0.992,0.3829 v 1.2343 h -0.063 c -0.333,-0.2708 -0.677,-0.4765 -1.031,-0.6172 -0.354,-0.1406 -0.703,-0.2109 -1.047,-0.2109 -0.625,0 -1.117,0.2109 -1.476,0.6328 -0.36,0.4219 -0.539,1.0391 -0.539,1.8516 0,0.7916 0.174,1.3984 0.523,1.8203 0.349,0.4219 0.846,0.6328 1.492,0.6328 0.219,0 0.446,-0.0286 0.68,-0.0859 0.234,-0.0573 0.44,-0.1328 0.617,-0.2266 0.167,-0.0833 0.32,-0.1719 0.461,-0.2656 0.141,-0.0938 0.247,-0.1719 0.32,-0.2344 h 0.063 v 1.2188 M 424.641,96 h -1.094 v -0.6875 c -0.323,0.2708 -0.656,0.4844 -1,0.6406 -0.344,0.1563 -0.714,0.2344 -1.109,0.2344 -0.782,0 -1.402,-0.3021 -1.86,-0.9062 -0.458,-0.6042 -0.687,-1.4375 -0.687,-2.5 0,-0.5625 0.078,-1.0599 0.234,-1.4922 0.156,-0.4323 0.37,-0.7995 0.641,-1.1016 0.26,-0.3021 0.567,-0.5312 0.922,-0.6875 0.354,-0.1562 0.723,-0.2344 1.109,-0.2344 0.344,0 0.648,0.0365 0.914,0.1094 0.266,0.0729 0.544,0.1875 0.836,0.3438 V 86.875 h 1.094 V 96 m -1.094,-1.6094 V 90.625 c -0.302,-0.125 -0.57,-0.2135 -0.805,-0.2656 -0.234,-0.0521 -0.487,-0.0781 -0.758,-0.0781 -0.625,0 -1.109,0.2135 -1.453,0.6406 -0.343,0.4271 -0.515,1.0364 -0.515,1.8281 0,0.7813 0.132,1.3724 0.398,1.7734 0.266,0.4011 0.695,0.6016 1.289,0.6016 0.313,0 0.628,-0.0677 0.945,-0.2031 0.318,-0.1354 0.618,-0.3125 0.899,-0.5313 m 7.937,-0.2812 c 0,0.6041 -0.247,1.0963 -0.742,1.4765 -0.495,0.3802 -1.169,0.5704 -2.023,0.5704 -0.49,0 -0.935,-0.0573 -1.336,-0.1719 -0.401,-0.1146 -0.742,-0.2396 -1.024,-0.375 V 94.375 h 0.063 c 0.344,0.2604 0.729,0.4661 1.156,0.6172 0.427,0.151 0.839,0.2266 1.235,0.2266 0.479,0 0.856,-0.0782 1.132,-0.2344 0.276,-0.1563 0.414,-0.4011 0.414,-0.7344 0,-0.2604 -0.078,-0.4531 -0.234,-0.5781 -0.146,-0.1354 -0.427,-0.25 -0.844,-0.3438 -0.156,-0.0312 -0.362,-0.0703 -0.617,-0.1172 -0.255,-0.0468 -0.487,-0.1015 -0.695,-0.164 -0.573,-0.1459 -0.979,-0.3672 -1.219,-0.6641 -0.24,-0.2969 -0.359,-0.6588 -0.359,-1.0859 0,-0.2709 0.057,-0.5261 0.172,-0.7656 0.114,-0.2396 0.281,-0.4532 0.5,-0.6407 0.218,-0.1771 0.497,-0.3203 0.835,-0.4297 0.339,-0.1093 0.717,-0.164 1.133,-0.164 0.396,0 0.795,0.0469 1.196,0.1406 0.401,0.0938 0.731,0.2083 0.992,0.3438 v 1.1875 h -0.063 c -0.281,-0.2084 -0.622,-0.3829 -1.023,-0.5235 -0.401,-0.1406 -0.794,-0.2109 -1.18,-0.2109 -0.406,0 -0.747,0.0755 -1.023,0.2265 -0.276,0.1511 -0.414,0.3776 -0.414,0.6797 0,0.2709 0.083,0.474 0.25,0.6094 0.166,0.1458 0.432,0.2604 0.797,0.3438 0.208,0.0416 0.437,0.0859 0.687,0.1328 0.25,0.0468 0.458,0.0911 0.625,0.1328 0.51,0.1146 0.906,0.3177 1.188,0.6094 0.281,0.2812 0.421,0.6614 0.421,1.1406"
         id="path156"
         inkscape:connector-curvature="0"
         style="vector-effect:none;fill-rule:evenodd" />
    </g>
    <g
       transform="matrix(0.94630339,0,0,0.94630339,22.431759,385.40936)"
       font-size="12"
       font-weight="400"
       font-style="normal"
       id="g162"
       style="font-style:normal;font-weight:400;font-size:12px;font-family:Verdana;fill:#ffffff;fill-opacity:1;stroke:#ffffff;stroke-width:0.5;stroke-linecap:square;stroke-linejoin:bevel;stroke-opacity:1">
      <path
         d="m 692.953,92.1094 c 0,0.5416 -0.078,1.0677 -0.234,1.5781 -0.156,0.5104 -0.38,0.974 -0.672,1.3906 h -2.578 l -0.156,-0.6718 c -0.292,0.2291 -0.571,0.4062 -0.836,0.5312 -0.266,0.125 -0.571,0.1875 -0.914,0.1875 -0.657,0 -1.18,-0.2474 -1.571,-0.7422 -0.39,-0.4948 -0.586,-1.1901 -0.586,-2.0859 0,-0.8854 0.24,-1.5912 0.719,-2.1172 0.479,-0.5261 1.052,-0.7891 1.719,-0.7891 0.281,0 0.531,0.0313 0.75,0.0938 0.219,0.0625 0.458,0.1614 0.719,0.2969 V 89.5 h 0.921 v 4.9219 h 1.422 c 0.167,-0.2917 0.292,-0.6563 0.375,-1.0938 0.084,-0.4375 0.125,-0.8281 0.125,-1.1718 0,-0.6459 -0.088,-1.2292 -0.265,-1.75 -0.177,-0.5209 -0.438,-0.9688 -0.782,-1.3438 -0.343,-0.375 -0.768,-0.6641 -1.273,-0.8672 -0.505,-0.2031 -1.081,-0.3047 -1.727,-0.3047 -0.625,0 -1.198,0.112 -1.718,0.336 -0.521,0.2239 -0.964,0.5286 -1.328,0.914 -0.375,0.3854 -0.67,0.8438 -0.883,1.375 -0.214,0.5313 -0.321,1.099 -0.321,1.7032 0,0.6458 0.102,1.2343 0.305,1.7656 0.203,0.5312 0.492,0.9896 0.867,1.375 0.386,0.3958 0.836,0.6927 1.352,0.8906 0.515,0.1979 1.081,0.2969 1.695,0.2969 0.344,0 0.693,-0.0209 1.047,-0.0625 0.354,-0.0417 0.698,-0.1094 1.031,-0.2031 v 0.8281 c -0.385,0.0833 -0.742,0.1406 -1.07,0.1719 -0.328,0.0312 -0.664,0.0468 -1.008,0.0468 -0.729,0 -1.404,-0.125 -2.023,-0.375 -0.62,-0.25 -1.154,-0.5989 -1.602,-1.0468 -0.448,-0.448 -0.797,-0.987 -1.047,-1.6172 -0.25,-0.6302 -0.375,-1.3256 -0.375,-2.086 0,-0.7187 0.13,-1.3906 0.391,-2.0156 0.26,-0.625 0.62,-1.1667 1.078,-1.625 0.448,-0.4479 0.984,-0.8047 1.609,-1.0703 0.625,-0.2656 1.287,-0.3984 1.985,-0.3984 0.771,0 1.455,0.1223 2.054,0.3671 0.599,0.2448 1.107,0.586 1.524,1.0235 0.417,0.4375 0.734,0.9635 0.953,1.5781 0.219,0.6146 0.328,1.2969 0.328,2.0469 m -3.656,1.5 v -3.0313 c -0.25,-0.1146 -0.471,-0.1979 -0.664,-0.25 C 688.44,90.276 688.229,90.25 688,90.25 c -0.5,0 -0.893,0.1771 -1.18,0.5313 -0.286,0.3541 -0.429,0.8541 -0.429,1.5 0,0.6354 0.114,1.1171 0.343,1.4453 0.23,0.3281 0.584,0.4922 1.063,0.4922 0.26,0 0.521,-0.0599 0.781,-0.1797 0.261,-0.1198 0.5,-0.2631 0.719,-0.4297 M 701.031,96 h -1.453 l -2.625,-2.8594 -0.719,0.6719 V 96 h -1.109 v -9.125 h 1.109 v 5.8594 l 3.188,-3.2813 h 1.375 l -3.031,3.0313 3.265,3.5156 m 6.516,-3.1562 h -4.828 c 0,0.3958 0.062,0.7447 0.187,1.0468 0.125,0.3021 0.292,0.5469 0.5,0.7344 0.198,0.1875 0.438,0.3281 0.719,0.4219 0.281,0.0937 0.589,0.1406 0.922,0.1406 0.448,0 0.898,-0.0885 1.351,-0.2656 0.454,-0.1771 0.774,-0.349 0.961,-0.5156 h 0.063 v 1.1875 c -0.375,0.1562 -0.755,0.289 -1.141,0.3984 -0.385,0.1094 -0.791,0.1641 -1.218,0.1641 -1.084,0 -1.93,-0.2943 -2.54,-0.8829 -0.609,-0.5885 -0.914,-1.4244 -0.914,-2.5078 0,-1.0729 0.292,-1.9245 0.875,-2.5547 0.584,-0.6302 1.349,-0.9453 2.297,-0.9453 0.886,0 1.568,0.2578 2.047,0.7735 0.479,0.5156 0.719,1.2526 0.719,2.2109 v 0.5938 M 706.469,92 c 0,-0.5833 -0.143,-1.0312 -0.43,-1.3437 -0.286,-0.3125 -0.721,-0.4688 -1.305,-0.4688 -0.593,0 -1.065,0.1719 -1.414,0.5156 -0.349,0.3438 -0.549,0.7761 -0.601,1.2969 h 3.75 m 8.219,0.8438 h -4.829 c 0,0.3958 0.063,0.7447 0.188,1.0468 0.125,0.3021 0.292,0.5469 0.5,0.7344 0.198,0.1875 0.437,0.3281 0.719,0.4219 0.281,0.0937 0.588,0.1406 0.922,0.1406 0.447,0 0.898,-0.0885 1.351,-0.2656 0.453,-0.1771 0.774,-0.349 0.961,-0.5156 h 0.063 v 1.1875 c -0.375,0.1562 -0.756,0.289 -1.141,0.3984 -0.386,0.1094 -0.792,0.1641 -1.219,0.1641 -1.083,0 -1.93,-0.2943 -2.539,-0.8829 -0.609,-0.5885 -0.914,-1.4244 -0.914,-2.5078 0,-1.0729 0.292,-1.9245 0.875,-2.5547 0.583,-0.6302 1.349,-0.9453 2.297,-0.9453 0.885,0 1.568,0.2578 2.047,0.7735 0.479,0.5156 0.719,1.2526 0.719,2.2109 v 0.5938 M 713.609,92 c 0,-0.5833 -0.143,-1.0312 -0.429,-1.3437 -0.287,-0.3125 -0.722,-0.4688 -1.305,-0.4688 -0.594,0 -1.065,0.1719 -1.414,0.5156 -0.349,0.3438 -0.55,0.7761 -0.602,1.2969 h 3.75 m 8.5,0.6406 c 0,0.5313 -0.075,1.0183 -0.226,1.461 -0.151,0.4427 -0.367,0.8151 -0.649,1.1172 -0.26,0.2916 -0.565,0.5156 -0.914,0.6718 -0.349,0.1563 -0.716,0.2344 -1.101,0.2344 -0.344,0 -0.654,-0.0365 -0.93,-0.1094 -0.276,-0.0729 -0.555,-0.1875 -0.836,-0.3437 v 2.75 h -1.109 v -8.9688 h 1.109 v 0.6875 c 0.292,-0.25 0.62,-0.4583 0.985,-0.625 0.364,-0.1666 0.755,-0.25 1.171,-0.25 0.792,0 1.407,0.2995 1.844,0.8985 0.438,0.5989 0.656,1.4244 0.656,2.4765 m -1.14,0.0313 c 0,-0.7813 -0.133,-1.3672 -0.399,-1.7578 -0.265,-0.3907 -0.679,-0.586 -1.242,-0.586 -0.312,0 -0.63,0.0677 -0.953,0.2032 -0.323,0.1354 -0.63,0.3125 -0.922,0.5312 v 3.7188 c 0.313,0.1354 0.581,0.2291 0.805,0.2812 0.224,0.0521 0.476,0.0781 0.758,0.0781 0.614,0 1.093,-0.2083 1.437,-0.625 0.344,-0.4166 0.516,-1.0312 0.516,-1.8437"
         id="path160"
         inkscape:connector-curvature="0"
         style="vector-effect:none;fill-rule:evenodd" />
    </g>
    <g
       transform="translate(0,380)"
       font-size="12"
       font-weight="400"
       font-style="normal"
       id="g164"
       style="font-style:normal;font-weight:400;font-size:12px;font-family:Verdana;fill:none;stroke:#ffffff;stroke-width:0.5;stroke-linecap:square;stroke-linejoin:bevel;stroke-opacity:1" />
    <g
       transform="matrix(0.94630339,0,0,0.94630339,22.431759,385.40936)"
       font-size="12"
       font-weight="400"
       font-style="normal"
       id="g168"
       style="font-style:normal;font-weight:400;font-size:12px;font-family:Verdana;fill:#ff9900;fill-opacity:1;stroke:none">
      <path
         d="m 651,108 21,12 -21,12 v -24"
         id="path166"
         inkscape:connector-curvature="0"
         style="vector-effect:none;fill-rule:evenodd" />
    </g>
    <g
       transform="translate(0,380)"
       font-size="12"
       font-weight="400"
       font-style="normal"
       id="g170"
       style="font-style:normal;font-weight:400;font-size:12px;font-family:Verdana;fill:none;stroke:#ffffff;stroke-width:0.5;stroke-linecap:square;stroke-linejoin:bevel;stroke-opacity:1" />
    <g
       transform="matrix(0.94630339,0,0,0.94630339,22.431759,385.40936)"
       font-size="12"
       font-weight="400"
       font-style="normal"
       id="g174"
       style="font-style:normal;font-weight:400;font-size:12px;font-family:Verdana;fill:#ff9900;fill-opacity:1;stroke:none">
      <path
         d="m 162,112 h 489 v 17 H 162 v -17"
         id="path172"
         inkscape:connector-curvature="0"
         style="vector-effect:none;fill-rule:evenodd" />
    </g>
    <g
       transform="translate(0,380)"
       font-size="12"
       font-weight="400"
       font-style="normal"
       id="g176"
       style="font-style:normal;font-weight:400;font-size:12px;font-family:Verdana;fill:none;stroke:#ffffff;stroke-width:0.5;stroke-linecap:square;stroke-linejoin:bevel;stroke-opacity:1" />
    <g
       transform="matrix(0.94630339,0,0,0.94630339,22.431759,385.40936)"
       font-size="12"
       font-weight="400"
       font-style="normal"
       id="g180"
       style="font-style:normal;font-weight:400;font-size:12px;font-family:Verdana;fill:none;stroke:#474747;stroke-width:1;stroke-linecap:square;stroke-linejoin:bevel;stroke-opacity:1">
      <path
         d="m 651,108 20,12 -20,13"
         id="path178"
         inkscape:connector-curvature="0"
         style="vector-effect:none;fill-rule:evenodd" />
    </g>
    <g
       transform="translate(0,380)"
       font-size="12"
       font-weight="400"
       font-style="normal"
       id="g182"
       style="font-style:normal;font-weight:400;font-size:12px;font-family:Verdana;fill:none;stroke:#ffffff;stroke-width:0.5;stroke-linecap:square;stroke-linejoin:bevel;stroke-opacity:1" />
    <g
       transform="matrix(0.94630339,0,0,0.94630339,22.431759,385.40936)"
       font-size="12"
       font-weight="400"
       font-style="normal"
       id="g186"
       style="font-style:normal;font-weight:400;font-size:12px;font-family:Verdana;fill:none;stroke:#474747;stroke-width:1;stroke-linecap:square;stroke-linejoin:bevel;stroke-opacity:1">
      <path
         d="m 651,108 v 4"
         id="path184"
         inkscape:connector-curvature="0"
         style="vector-effect:none;fill-rule:evenodd" />
    </g>
    <g
       transform="matrix(0.94630339,0,0,0.94630339,22.431759,385.40936)"
       font-size="12"
       font-weight="400"
       font-style="normal"
       id="g190"
       style="font-style:normal;font-weight:400;font-size:12px;font-family:Verdana;fill:none;stroke:#474747;stroke-width:1;stroke-linecap:square;stroke-linejoin:bevel;stroke-opacity:1">
      <path
         d="m 651,129 v 3"
         id="path188"
         inkscape:connector-curvature="0"
         style="vector-effect:none;fill-rule:evenodd" />
    </g>
    <g
       transform="matrix(0.94630339,0,0,0.94630339,22.431759,385.40936)"
       font-size="12"
       font-weight="400"
       font-style="normal"
       id="g194"
       style="font-style:normal;font-weight:400;font-size:12px;font-family:Verdana;fill:none;stroke:#474747;stroke-width:1;stroke-linecap:square;stroke-linejoin:bevel;stroke-opacity:1">
      <path
         d="m 162,112 v 16"
         id="path192"
         inkscape:connector-curvature="0"
         style="vector-effect:none;fill-rule:evenodd" />
    </g>
    <g
       transform="matrix(0.94630339,0,0,0.94630339,22.431759,385.40936)"
       font-size="12"
       font-weight="400"
       font-style="normal"
       id="g198"
       style="font-style:normal;font-weight:400;font-size:12px;font-family:Verdana;fill:none;stroke:#474747;stroke-width:1;stroke-linecap:square;stroke-linejoin:bevel;stroke-opacity:1">
      <path
         d="M 162,112 H 651"
         id="path196"
         inkscape:connector-curvature="0"
         style="vector-effect:none;fill-rule:evenodd" />
    </g>
    <g
       transform="matrix(0.94630339,0,0,0.94630339,22.431759,385.40936)"
       font-size="12"
       font-weight="400"
       font-style="normal"
       id="g202"
       style="font-style:normal;font-weight:400;font-size:12px;font-family:Verdana;fill:none;stroke:#474747;stroke-width:1;stroke-linecap:square;stroke-linejoin:bevel;stroke-opacity:1">
      <path
         d="M 162,129 H 651"
         id="path200"
         inkscape:connector-curvature="0"
         style="vector-effect:none;fill-rule:evenodd" />
    </g>
    <g
       transform="matrix(0.94630339,0,0,0.94630339,22.431759,385.40936)"
       font-size="12"
       font-weight="400"
       font-style="normal"
       id="g206"
       style="font-style:normal;font-weight:400;font-size:12px;font-family:Verdana;fill:none;stroke:#000000;stroke-width:1;stroke-linecap:square;stroke-linejoin:bevel;stroke-opacity:1">
      <text
         xml:space="preserve"
         x="391"
         y="125"
         font-size="12"
         font-weight="400"
         font-style="normal"
         id="text204"
         style="font-style:normal;font-weight:400;font-size:12px;font-family:Verdana;fill:#000000;fill-opacity:1;stroke:none">NUM1</text>
    </g>
    <g
       transform="matrix(0.94630339,0,0,0.94630339,22.431759,385.40936)"
       font-size="12"
       font-weight="400"
       font-style="normal"
       id="g210"
       style="font-style:normal;font-weight:400;font-size:12px;font-family:Verdana;fill:#ffff00;fill-opacity:1;stroke:none">
      <path
         d="m 162,141 h 510 v 17 H 162 v -17"
         id="path208"
         inkscape:connector-curvature="0"
         style="vector-effect:none;fill-rule:evenodd" />
    </g>
    <g
       transform="matrix(0.94630339,0,0,0.94630339,22.431759,385.40936)"
       font-size="12"
       font-weight="400"
       font-style="normal"
       id="g214"
       style="font-style:normal;font-weight:400;font-size:12px;font-family:Verdana;fill:none;stroke:#626262;stroke-width:1;stroke-linecap:square;stroke-linejoin:bevel;stroke-opacity:1">
      <path
         d="m 162,141 v 16"
         id="path212"
         inkscape:connector-curvature="0"
         style="vector-effect:none;fill-rule:evenodd" />
    </g>
    <g
       transform="matrix(0.94630339,0,0,0.94630339,22.431759,385.40936)"
       font-size="12"
       font-weight="400"
       font-style="normal"
       id="g218"
       style="font-style:normal;font-weight:400;font-size:12px;font-family:Verdana;fill:none;stroke:#626262;stroke-width:1;stroke-linecap:square;stroke-linejoin:bevel;stroke-opacity:1">
      <path
         d="m 672,141 v 16"
         id="path216"
         inkscape:connector-curvature="0"
         style="vector-effect:none;fill-rule:evenodd" />
    </g>
    <g
       transform="matrix(0.94630339,0,0,0.94630339,22.431759,385.40936)"
       font-size="12"
       font-weight="400"
       font-style="normal"
       id="g222"
       style="font-style:normal;font-weight:400;font-size:12px;font-family:Verdana;fill:none;stroke:#626262;stroke-width:1;stroke-linecap:square;stroke-linejoin:bevel;stroke-opacity:1">
      <path
         d="M 162,141 H 672"
         id="path220"
         inkscape:connector-curvature="0"
         style="vector-effect:none;fill-rule:evenodd" />
    </g>
    <g
       transform="matrix(0.94630339,0,0,0.94630339,22.431759,385.40936)"
       font-size="12"
       font-weight="400"
       font-style="normal"
       id="g226"
       style="font-style:normal;font-weight:400;font-size:12px;font-family:Verdana;fill:none;stroke:#626262;stroke-width:1;stroke-linecap:square;stroke-linejoin:bevel;stroke-opacity:1">
      <path
         d="M 162,158 H 672"
         id="path224"
         inkscape:connector-curvature="0"
         style="vector-effect:none;fill-rule:evenodd" />
    </g>
    <g
       transform="matrix(0.94630339,0,0,0.94630339,22.431759,385.40936)"
       font-size="12"
       font-weight="400"
       font-style="normal"
       id="g230"
       style="font-style:normal;font-weight:400;font-size:12px;font-family:Verdana;fill:none;stroke:#000000;stroke-width:1;stroke-linecap:square;stroke-linejoin:bevel;stroke-opacity:1">
      <text
         xml:space="preserve"
         x="325"
         y="154"
         font-size="12"
         font-weight="400"
         font-style="normal"
         id="text228"
         style="font-style:normal;font-weight:400;font-size:12px;font-family:Verdana;fill:#000000;fill-opacity:1;stroke:none">~CodonOptimize(s_cerevisiae)</text>
    </g>
    <g
       transform="matrix(0.94630339,0,0,0.94630339,22.431759,385.40936)"
       font-size="12"
       font-weight="400"
       font-style="normal"
       id="g234"
       style="font-style:normal;font-weight:400;font-size:12px;font-family:Verdana;fill:#3366ff;fill-opacity:1;stroke:none">
      <path
         d="m 286,170 h 123 v 17 H 286 v -17"
         id="path232"
         inkscape:connector-curvature="0"
         style="vector-effect:none;fill-rule:evenodd" />
    </g>
    <g
       transform="matrix(0.94630339,0,0,0.94630339,22.431759,385.40936)"
       font-size="12"
       font-weight="400"
       font-style="normal"
       id="g238"
       style="font-style:normal;font-weight:400;font-size:12px;font-family:Verdana;fill:none;stroke:#2c2c2c;stroke-width:1;stroke-linecap:square;stroke-linejoin:bevel;stroke-opacity:1">
      <path
         d="m 286,170 v 16"
         id="path236"
         inkscape:connector-curvature="0"
         style="vector-effect:none;fill-rule:evenodd" />
    </g>
    <g
       transform="matrix(0.94630339,0,0,0.94630339,22.431759,385.40936)"
       font-size="12"
       font-weight="400"
       font-style="normal"
       id="g242"
       style="font-style:normal;font-weight:400;font-size:12px;font-family:Verdana;fill:none;stroke:#2c2c2c;stroke-width:1;stroke-linecap:square;stroke-linejoin:bevel;stroke-opacity:1">
      <path
         d="m 409,170 v 16"
         id="path240"
         inkscape:connector-curvature="0"
         style="vector-effect:none;fill-rule:evenodd" />
    </g>
    <g
       transform="matrix(0.94630339,0,0,0.94630339,22.431759,385.40936)"
       font-size="12"
       font-weight="400"
       font-style="normal"
       id="g246"
       style="font-style:normal;font-weight:400;font-size:12px;font-family:Verdana;fill:none;stroke:#2c2c2c;stroke-width:1;stroke-linecap:square;stroke-linejoin:bevel;stroke-opacity:1">
      <path
         d="M 286,170 H 409"
         id="path244"
         inkscape:connector-curvature="0"
         style="vector-effect:none;fill-rule:evenodd" />
    </g>
    <g
       transform="matrix(0.94630339,0,0,0.94630339,22.431759,385.40936)"
       font-size="12"
       font-weight="400"
       font-style="normal"
       id="g250"
       style="font-style:normal;font-weight:400;font-size:12px;font-family:Verdana;fill:none;stroke:#2c2c2c;stroke-width:1;stroke-linecap:square;stroke-linejoin:bevel;stroke-opacity:1">
      <path
         d="M 286,187 H 409"
         id="path248"
         inkscape:connector-curvature="0"
         style="vector-effect:none;fill-rule:evenodd" />
    </g>
    <g
       transform="matrix(0.94630339,0,0,0.94630339,22.431759,385.40936)"
       font-size="12"
       font-weight="400"
       font-style="normal"
       id="g254"
       style="font-style:normal;font-weight:400;font-size:12px;font-family:Verdana;fill:none;stroke:#000000;stroke-width:1;stroke-linecap:square;stroke-linejoin:bevel;stroke-opacity:1">
      <text
         xml:space="preserve"
         x="232"
         y="205"
         font-size="12"
         font-weight="400"
         font-style="normal"
         id="text252"
         style="font-style:normal;font-weight:400;font-size:12px;font-family:Verdana;fill:#000000;fill-opacity:1;stroke:none">@AvoidNonUniqueSegments(20, here)</text>
    </g>
    <g
       font-size="9"
       font-weight="400"
       font-style="normal"
       id="g264"
       style="font-style:normal;font-weight:400;font-size:9px;font-family:'Sans Serif';fill:none;stroke:#000000;stroke-width:1;stroke-linecap:square;stroke-linejoin:bevel;stroke-opacity:1" />
  </g>
</svg>
